<svg width="10" height="10" viewBox="0 0 10 10" fill="none" xmlns="http://www.w3.org/2000/svg">
<path d="M6 3.5C6 4.05228 5.55228 4.5 5 4.5C4.44772 4.5 4 4.05228 4 3.5C4 2.94772 4.44772 2.5 5 2.5C5.55228 2.5 6 2.94772 6 3.5Z" stroke="#7C747E" stroke-width="0.75"/>
<path d="M8 3.5C8 5.15685 6 7.5 5 7.5C4 7.5 2 5.15685 2 3.5C2 1.84315 3.34315 0.5 5 0.5C6.65685 0.5 8 1.84315 8 3.5Z" stroke="#7C747E" stroke-width="0.75"/>
<path d="M6.49999 6.5H7.06324C7.6568 6.5 8.21969 6.76365 8.59968 7.21963L9.13317 7.85982C9.67594 8.51114 9.21278 9.5 8.36494 9.5H1.63503C0.787191 9.5 0.324035 8.51114 0.866807 7.85982L1.40029 7.21963C1.78028 6.76365 2.34318 6.5 2.93674 6.5H3.49999" stroke="#7C747E" stroke-width="0.75" stroke-linejoin="round"/>
</svg>
