<svg width="8" height="8" viewBox="0 0 8 8" fill="none" xmlns="http://www.w3.org/2000/svg">
<path d="M3.34429 1.09043C3.61252 0.525359 4.38752 0.525358 4.65575 1.09043L5.11932 2.06702C5.22583 2.29141 5.43172 2.44694 5.6699 2.48292L6.70647 2.63952C7.30624 2.73014 7.54573 3.49647 7.11173 3.93632L6.36166 4.69649C6.18932 4.87115 6.11067 5.1228 6.15136 5.36943L6.32842 6.44281C6.43088 7.06388 5.80389 7.5375 5.26743 7.24427L4.3403 6.73749C4.12727 6.62105 3.87277 6.62105 3.65974 6.73749L2.73261 7.24427C2.19615 7.5375 1.56916 7.06388 1.67162 6.44281L1.84868 5.36943C1.88937 5.1228 1.81072 4.87115 1.63838 4.69649L0.888312 3.93632C0.454309 3.49647 0.693796 2.73014 1.29357 2.63952L2.33014 2.48292C2.56832 2.44694 2.77421 2.29141 2.88072 2.06702L3.34429 1.09043Z" stroke="#FBBC05" stroke-width="0.5" stroke-linejoin="round"/>
</svg>
