<svg width="182" height="74" viewBox="0 0 182 74" fill="none" xmlns="http://www.w3.org/2000/svg">
<mask id="path-1-inside-1_193_473" fill="white">
<path fill-rule="evenodd" clip-rule="evenodd" d="M72.9527 2.34305C70.6096 4.6862 70.6096 8.45744 70.6096 15.9999V23.9999C70.6096 31.5424 70.6096 35.3136 72.9527 37.6568C75.2959 39.9999 79.0671 39.9999 86.6096 39.9999H94.6096C102.152 39.9999 105.923 39.9999 108.266 37.6568C110.61 35.3136 110.61 31.5424 110.61 23.9999V15.9999C110.61 8.45744 110.61 4.6862 108.266 2.34305C105.923 -9.15527e-05 102.152 -9.15527e-05 94.6096 -9.15527e-05H86.6096C79.0671 -9.15527e-05 75.2959 -9.15527e-05 72.9527 2.34305ZM90.1233 8.51482C90.6681 8.51482 91.1096 8.9564 91.1096 9.50112V15.2714C91.207 15.0995 91.303 14.9379 91.3944 14.7951C91.5062 14.6205 91.6471 14.4164 91.8021 14.2613L91.8023 14.261C92.2762 13.7871 92.919 13.5209 93.5891 13.5209C94.2593 13.5209 94.902 13.7871 95.3759 14.261C95.8498 14.7349 96.116 15.3776 96.116 16.0478C96.116 16.718 95.8498 17.3607 95.3759 17.8346L95.3756 17.8349C95.2205 17.9898 95.0164 18.1307 94.8418 18.2425C94.699 18.334 94.5374 18.4299 94.3655 18.5273H100.136C100.681 18.5273 101.122 18.9689 101.122 19.5136C101.122 20.0583 100.681 20.4999 100.136 20.4999H94.3654C94.5374 20.5973 94.699 20.6932 94.8418 20.7847C95.0164 20.8965 95.2205 21.0374 95.3756 21.1924C95.7609 21.5774 95.7612 22.2019 95.3762 22.5872C94.9912 22.9725 94.3667 22.9728 93.9813 22.5878C93.9821 22.5885 93.9815 22.588 93.9795 22.5864L93.9793 22.5863C93.9675 22.5768 93.9105 22.5307 93.7782 22.446C93.6376 22.356 93.4543 22.2488 93.2367 22.1288C92.9274 21.9583 92.5678 21.7723 92.1965 21.5868C92.382 21.958 92.568 22.3177 92.7385 22.627C92.8585 22.8446 92.9657 23.0279 93.0557 23.1685C93.1404 23.3008 93.1865 23.3578 93.1959 23.3696C93.1977 23.3717 93.1982 23.3724 93.1975 23.3716C93.5825 23.757 93.5822 24.3815 93.1969 24.7665C92.8116 25.1515 92.1871 25.1512 91.8021 24.7659C91.6471 24.6108 91.5062 24.4067 91.3944 24.2321C91.303 24.0893 91.207 23.9277 91.1096 23.7558V29.5261C91.1096 30.0708 90.6681 30.5124 90.1233 30.5124C89.5786 30.5124 89.137 30.0708 89.137 29.5261V23.7557C89.0396 23.9276 88.9437 24.0892 88.8522 24.232C88.7405 24.4067 88.5996 24.6108 88.4446 24.7659L88.4443 24.7662C88.2096 25.0008 87.9311 25.187 87.6245 25.314C87.3179 25.4409 86.9893 25.5063 86.6575 25.5063C86.3257 25.5063 85.9971 25.4409 85.6905 25.314C85.3839 25.187 85.1054 25.0008 84.8707 24.7662C84.6361 24.5316 84.4499 24.253 84.323 23.9464C84.196 23.6398 84.1306 23.3113 84.1306 22.9794C84.1306 22.6476 84.196 22.319 84.323 22.0124C84.4499 21.7058 84.6361 21.4273 84.8707 21.1926L84.871 21.1924C85.0261 21.0374 85.2302 20.8965 85.4048 20.7847C85.5476 20.6933 85.7092 20.5973 85.8811 20.4999H80.1109C79.5661 20.4999 79.1246 20.0583 79.1246 19.5136C79.1246 18.9689 79.5661 18.5273 80.1109 18.5273H85.8811C85.7092 18.4299 85.5476 18.334 85.4048 18.2425C85.2302 18.1307 85.0261 17.9898 84.871 17.8349C84.4857 17.4498 84.4854 16.8253 84.8704 16.44C85.2554 16.0547 85.8799 16.0544 86.2653 16.4394C86.2645 16.4387 86.2652 16.4392 86.2673 16.441C86.2791 16.4505 86.3361 16.4965 86.4684 16.5812C86.609 16.6712 86.7923 16.7784 87.0099 16.8984C87.3192 17.0689 87.679 17.255 88.0504 17.4406C87.8648 17.0693 87.6787 16.7096 87.5082 16.4003C87.3882 16.1826 87.281 15.9994 87.191 15.8588C87.1062 15.7264 87.0601 15.6693 87.0507 15.6576L87.0506 15.6576C87.0489 15.6555 87.0484 15.6548 87.0491 15.6556C86.6641 15.2702 86.6644 14.6457 87.0497 14.2607C87.4351 13.8757 88.0595 13.876 88.4446 14.2613C88.5995 14.4164 88.7404 14.6205 88.8522 14.7951C88.9437 14.9379 89.0396 15.0995 89.137 15.2714V9.50112C89.137 8.9564 89.5786 8.51482 90.1233 8.51482ZM88.0502 21.5866C87.8646 21.9579 87.6786 22.3177 87.5081 22.627C87.3881 22.8446 87.2809 23.0279 87.1909 23.1685C87.1062 23.3008 87.0602 23.3578 87.0507 23.3696L87.0506 23.3696C87.0489 23.3717 87.0484 23.3724 87.0491 23.3717C86.9977 23.423 86.9367 23.4637 86.8696 23.4915C86.8024 23.5194 86.7303 23.5337 86.6575 23.5337C86.5847 23.5337 86.5126 23.5194 86.4454 23.4915C86.3781 23.4637 86.317 23.4228 86.2656 23.3714C86.2141 23.3199 86.1733 23.2588 86.1454 23.1915C86.1175 23.1243 86.1032 23.0522 86.1032 22.9794C86.1032 22.9066 86.1175 22.8346 86.1454 22.7673C86.1732 22.7002 86.2139 22.6393 86.2651 22.5879C86.2646 22.5884 86.2653 22.5879 86.2672 22.5863L86.2673 22.5862C86.2791 22.5768 86.3361 22.5307 86.4685 22.4459C86.6091 22.3559 86.7923 22.2487 87.01 22.1287C87.3192 21.9582 87.6789 21.7722 88.0502 21.5866ZM86.2653 22.5878C86.2652 22.5878 86.2652 22.5879 86.2651 22.5879C86.2653 22.5878 86.2654 22.5876 86.2656 22.5875L85.5684 21.8904L86.2653 22.5878ZM92.1965 17.4405C92.5677 17.2549 92.9274 17.0689 93.2367 16.8984C93.4543 16.7784 93.6376 16.6712 93.7782 16.5812C93.9105 16.4965 93.9675 16.4505 93.9793 16.441L93.9806 16.4399L93.9811 16.4396V16.4397L94.6785 17.1371L93.9813 16.4394C94.0851 16.3355 94.1434 16.1947 94.1434 16.0478C94.1434 15.9008 94.085 15.7598 93.9811 15.6559C93.8771 15.5519 93.7361 15.4935 93.5891 15.4935C93.4421 15.4935 93.3011 15.5519 93.1972 15.6559L92.5001 14.9587L93.1975 15.6556C93.1978 15.6552 93.1979 15.6552 93.1977 15.6554L93.1959 15.6576C93.1865 15.6694 93.1404 15.7264 93.0557 15.8587C92.9657 15.9993 92.8585 16.1826 92.7385 16.4002C92.568 16.7095 92.382 17.0692 92.1965 17.4405ZM93.9811 16.4395L93.9806 16.4399L93.2367 16.8984L93.9811 16.4395ZM93.9811 16.4395L93.9813 16.4394L93.9811 16.4396V16.4395Z"/>
</mask>
<path fill-rule="evenodd" clip-rule="evenodd" d="M72.9527 2.34305C70.6096 4.6862 70.6096 8.45744 70.6096 15.9999V23.9999C70.6096 31.5424 70.6096 35.3136 72.9527 37.6568C75.2959 39.9999 79.0671 39.9999 86.6096 39.9999H94.6096C102.152 39.9999 105.923 39.9999 108.266 37.6568C110.61 35.3136 110.61 31.5424 110.61 23.9999V15.9999C110.61 8.45744 110.61 4.6862 108.266 2.34305C105.923 -9.15527e-05 102.152 -9.15527e-05 94.6096 -9.15527e-05H86.6096C79.0671 -9.15527e-05 75.2959 -9.15527e-05 72.9527 2.34305ZM90.1233 8.51482C90.6681 8.51482 91.1096 8.9564 91.1096 9.50112V15.2714C91.207 15.0995 91.303 14.9379 91.3944 14.7951C91.5062 14.6205 91.6471 14.4164 91.8021 14.2613L91.8023 14.261C92.2762 13.7871 92.919 13.5209 93.5891 13.5209C94.2593 13.5209 94.902 13.7871 95.3759 14.261C95.8498 14.7349 96.116 15.3776 96.116 16.0478C96.116 16.718 95.8498 17.3607 95.3759 17.8346L95.3756 17.8349C95.2205 17.9898 95.0164 18.1307 94.8418 18.2425C94.699 18.334 94.5374 18.4299 94.3655 18.5273H100.136C100.681 18.5273 101.122 18.9689 101.122 19.5136C101.122 20.0583 100.681 20.4999 100.136 20.4999H94.3654C94.5374 20.5973 94.699 20.6932 94.8418 20.7847C95.0164 20.8965 95.2205 21.0374 95.3756 21.1924C95.7609 21.5774 95.7612 22.2019 95.3762 22.5872C94.9912 22.9725 94.3667 22.9728 93.9813 22.5878C93.9821 22.5885 93.9815 22.588 93.9795 22.5864L93.9793 22.5863C93.9675 22.5768 93.9105 22.5307 93.7782 22.446C93.6376 22.356 93.4543 22.2488 93.2367 22.1288C92.9274 21.9583 92.5678 21.7723 92.1965 21.5868C92.382 21.958 92.568 22.3177 92.7385 22.627C92.8585 22.8446 92.9657 23.0279 93.0557 23.1685C93.1404 23.3008 93.1865 23.3578 93.1959 23.3696C93.1977 23.3717 93.1982 23.3724 93.1975 23.3716C93.5825 23.757 93.5822 24.3815 93.1969 24.7665C92.8116 25.1515 92.1871 25.1512 91.8021 24.7659C91.6471 24.6108 91.5062 24.4067 91.3944 24.2321C91.303 24.0893 91.207 23.9277 91.1096 23.7558V29.5261C91.1096 30.0708 90.6681 30.5124 90.1233 30.5124C89.5786 30.5124 89.137 30.0708 89.137 29.5261V23.7557C89.0396 23.9276 88.9437 24.0892 88.8522 24.232C88.7405 24.4067 88.5996 24.6108 88.4446 24.7659L88.4443 24.7662C88.2096 25.0008 87.9311 25.187 87.6245 25.314C87.3179 25.4409 86.9893 25.5063 86.6575 25.5063C86.3257 25.5063 85.9971 25.4409 85.6905 25.314C85.3839 25.187 85.1054 25.0008 84.8707 24.7662C84.6361 24.5316 84.4499 24.253 84.323 23.9464C84.196 23.6398 84.1306 23.3113 84.1306 22.9794C84.1306 22.6476 84.196 22.319 84.323 22.0124C84.4499 21.7058 84.6361 21.4273 84.8707 21.1926L84.871 21.1924C85.0261 21.0374 85.2302 20.8965 85.4048 20.7847C85.5476 20.6933 85.7092 20.5973 85.8811 20.4999H80.1109C79.5661 20.4999 79.1246 20.0583 79.1246 19.5136C79.1246 18.9689 79.5661 18.5273 80.1109 18.5273H85.8811C85.7092 18.4299 85.5476 18.334 85.4048 18.2425C85.2302 18.1307 85.0261 17.9898 84.871 17.8349C84.4857 17.4498 84.4854 16.8253 84.8704 16.44C85.2554 16.0547 85.8799 16.0544 86.2653 16.4394C86.2645 16.4387 86.2652 16.4392 86.2673 16.441C86.2791 16.4505 86.3361 16.4965 86.4684 16.5812C86.609 16.6712 86.7923 16.7784 87.0099 16.8984C87.3192 17.0689 87.679 17.255 88.0504 17.4406C87.8648 17.0693 87.6787 16.7096 87.5082 16.4003C87.3882 16.1826 87.281 15.9994 87.191 15.8588C87.1062 15.7264 87.0601 15.6693 87.0507 15.6576L87.0506 15.6576C87.0489 15.6555 87.0484 15.6548 87.0491 15.6556C86.6641 15.2702 86.6644 14.6457 87.0497 14.2607C87.4351 13.8757 88.0595 13.876 88.4446 14.2613C88.5995 14.4164 88.7404 14.6205 88.8522 14.7951C88.9437 14.9379 89.0396 15.0995 89.137 15.2714V9.50112C89.137 8.9564 89.5786 8.51482 90.1233 8.51482ZM88.0502 21.5866C87.8646 21.9579 87.6786 22.3177 87.5081 22.627C87.3881 22.8446 87.2809 23.0279 87.1909 23.1685C87.1062 23.3008 87.0602 23.3578 87.0507 23.3696L87.0506 23.3696C87.0489 23.3717 87.0484 23.3724 87.0491 23.3717C86.9977 23.423 86.9367 23.4637 86.8696 23.4915C86.8024 23.5194 86.7303 23.5337 86.6575 23.5337C86.5847 23.5337 86.5126 23.5194 86.4454 23.4915C86.3781 23.4637 86.317 23.4228 86.2656 23.3714C86.2141 23.3199 86.1733 23.2588 86.1454 23.1915C86.1175 23.1243 86.1032 23.0522 86.1032 22.9794C86.1032 22.9066 86.1175 22.8346 86.1454 22.7673C86.1732 22.7002 86.2139 22.6393 86.2651 22.5879C86.2646 22.5884 86.2653 22.5879 86.2672 22.5863L86.2673 22.5862C86.2791 22.5768 86.3361 22.5307 86.4685 22.4459C86.6091 22.3559 86.7923 22.2487 87.01 22.1287C87.3192 21.9582 87.6789 21.7722 88.0502 21.5866ZM86.2653 22.5878C86.2652 22.5878 86.2652 22.5879 86.2651 22.5879C86.2653 22.5878 86.2654 22.5876 86.2656 22.5875L85.5684 21.8904L86.2653 22.5878ZM92.1965 17.4405C92.5677 17.2549 92.9274 17.0689 93.2367 16.8984C93.4543 16.7784 93.6376 16.6712 93.7782 16.5812C93.9105 16.4965 93.9675 16.4505 93.9793 16.441L93.9806 16.4399L93.9811 16.4396V16.4397L94.6785 17.1371L93.9813 16.4394C94.0851 16.3355 94.1434 16.1947 94.1434 16.0478C94.1434 15.9008 94.085 15.7598 93.9811 15.6559C93.8771 15.5519 93.7361 15.4935 93.5891 15.4935C93.4421 15.4935 93.3011 15.5519 93.1972 15.6559L92.5001 14.9587L93.1975 15.6556C93.1978 15.6552 93.1979 15.6552 93.1977 15.6554L93.1959 15.6576C93.1865 15.6694 93.1404 15.7264 93.0557 15.8587C92.9657 15.9993 92.8585 16.1826 92.7385 16.4002C92.568 16.7095 92.382 17.0692 92.1965 17.4405ZM93.9811 16.4395L93.9806 16.4399L93.2367 16.8984L93.9811 16.4395ZM93.9811 16.4395L93.9813 16.4394L93.9811 16.4396V16.4395Z" fill="url(#paint0_linear_193_473)"/>
<path d="M93.9813 16.4394L94.2437 16.8651L93.8167 15.9673L93.9813 16.4394ZM93.2367 16.8984L92.9743 16.4727L93.499 17.324L93.2367 16.8984ZM93.9811 16.4395L93.8164 15.9674L93.765 15.9853L93.7187 16.0139L93.9811 16.4395ZM93.719 16.0138L92.9744 16.4727L93.499 17.324L94.2437 16.8651L93.719 16.0138ZM93.8167 15.9673L93.8164 15.9674L94.1457 16.9117L94.146 16.9116L93.8167 15.9673ZM93.4991 17.324L94.2434 16.8652L93.7187 16.0139L92.9743 16.4727L93.4991 17.324ZM72.9527 37.6568L73.6598 36.9497H73.6598L72.9527 37.6568ZM108.266 37.6568L107.559 36.9497L108.266 37.6568ZM108.266 2.34305L107.559 3.05016V3.05016L108.266 2.34305ZM91.1096 15.2714H90.1096V19.0646L91.9797 15.7644L91.1096 15.2714ZM91.3944 14.7951L90.5522 14.2559V14.2559L91.3944 14.7951ZM91.8021 14.2613L91.0949 13.5542L91.0947 13.5545L91.8021 14.2613ZM95.3759 14.261L94.6688 14.9681V14.9681L95.3759 14.261ZM95.3759 17.8346L94.6688 17.1275L94.6665 17.1298L95.3759 17.8346ZM95.3756 17.8349L96.0824 18.5423L96.085 18.5396L95.3756 17.8349ZM94.8418 18.2425L94.3026 17.4003L94.3026 17.4004L94.8418 18.2425ZM94.3655 18.5273L93.8725 17.6573L90.5722 19.5273H94.3655V18.5273ZM94.3654 20.4999V19.4999H90.5722L93.8725 21.3699L94.3654 20.4999ZM94.8418 20.7847L95.381 19.9425L95.381 19.9425L94.8418 20.7847ZM95.3756 21.1924L96.0824 20.485L96.0824 20.4849L95.3756 21.1924ZM95.3762 22.5872L94.6688 21.8804L94.6688 21.8804L95.3762 22.5872ZM93.9813 22.5878L94.6882 21.8804L93.2733 23.2939L93.9813 22.5878ZM93.9795 22.5864L94.6077 21.8084L94.6041 21.8055L93.9795 22.5864ZM93.9793 22.5863L93.3509 23.3641L93.3546 23.3671L93.9793 22.5863ZM93.7782 22.446L93.239 23.2881L93.239 23.2882L93.7782 22.446ZM93.2367 22.1288L92.7539 23.0046L92.7539 23.0046L93.2367 22.1288ZM92.1965 21.5868L92.6436 20.6923L89.9612 19.3515L91.302 22.0338L92.1965 21.5868ZM92.7385 22.627L93.6143 22.1442L93.6143 22.1442L92.7385 22.627ZM93.0557 23.1685L93.8979 22.6293L93.8978 22.6293L93.0557 23.1685ZM93.1959 23.3696L93.9743 22.7417L93.9739 22.7412L93.1959 23.3696ZM93.1975 23.3716L93.9046 22.6645L92.4901 24.0785L93.1975 23.3716ZM93.1969 24.7665L92.4901 24.0591L92.4901 24.0591L93.1969 24.7665ZM91.8021 24.7659L92.5095 24.0591L92.5095 24.0591L91.8021 24.7659ZM91.3944 24.2321L92.2366 23.6929L92.2366 23.6929L91.3944 24.2321ZM91.1096 23.7558L91.9797 23.2628L90.1096 19.9626V23.7558H91.1096ZM89.137 23.7557H90.137V19.962L88.267 23.2627L89.137 23.7557ZM88.8522 24.232L89.6944 24.7712H89.6944L88.8522 24.232ZM88.4446 24.7659L89.1517 25.473L89.152 25.4727L88.4446 24.7659ZM88.4443 24.7662L87.7372 24.0591L87.7372 24.0591L88.4443 24.7662ZM87.6245 25.314L88.0072 26.2378L88.0072 26.2378L87.6245 25.314ZM85.6905 25.314L85.3078 26.2378L85.3078 26.2378L85.6905 25.314ZM84.8707 24.7662L85.5778 24.0591L85.5778 24.0591L84.8707 24.7662ZM84.323 23.9464L85.2468 23.5637L85.2468 23.5637L84.323 23.9464ZM84.323 22.0124L85.2468 22.3951L85.2468 22.3951L84.323 22.0124ZM84.8707 21.1926L85.5778 21.8998L85.579 21.8986L84.8707 21.1926ZM84.871 21.1924L84.1642 20.4849L84.1627 20.4864L84.871 21.1924ZM85.4048 20.7847L85.944 21.6268L85.944 21.6268L85.4048 20.7847ZM85.8811 20.4999L86.3741 21.3699L89.6737 19.4999H85.8811V20.4999ZM85.8811 18.5273V19.5273H89.6744L86.3741 17.6573L85.8811 18.5273ZM85.4048 18.2425L85.944 17.4004L85.944 17.4003L85.4048 18.2425ZM84.871 17.8349L84.1642 18.5423L84.1642 18.5423L84.871 17.8349ZM84.8704 16.44L84.163 15.7332L84.163 15.7332L84.8704 16.44ZM86.2653 16.4394L85.5585 17.1468L86.9724 15.7323L86.2653 16.4394ZM86.2673 16.441L85.639 17.2189L85.639 17.2189L86.2673 16.441ZM86.4684 16.5812L85.9292 17.4234L85.9293 17.4234L86.4684 16.5812ZM87.0099 16.8984L87.4927 16.0226H87.4927L87.0099 16.8984ZM88.0504 17.4406L87.6033 18.3351L90.286 19.676L88.9449 16.9934L88.0504 17.4406ZM87.5082 16.4003L88.3839 15.9174L88.3839 15.9174L87.5082 16.4003ZM87.191 15.8588L88.0331 15.3195L88.0331 15.3195L87.191 15.8588ZM87.0507 15.6576L87.8285 15.0292L87.8221 15.0213L87.8156 15.0135L87.0507 15.6576ZM87.0506 15.6576L86.272 16.2851L86.2788 16.2935L86.2857 16.3017L87.0506 15.6576ZM87.0491 15.6556L86.3417 16.3624L87.7567 14.9489L87.0491 15.6556ZM87.0497 14.2607L87.7565 14.9681L87.7565 14.9681L87.0497 14.2607ZM88.4446 14.2613L89.152 13.5545L89.152 13.5545L88.4446 14.2613ZM88.8522 14.7951L88.0101 15.3343L88.0101 15.3343L88.8522 14.7951ZM89.137 15.2714L88.267 15.7644L90.137 19.064V15.2714H89.137ZM87.5081 22.627L88.3838 23.1097L88.3838 23.1097L87.5081 22.627ZM88.0502 21.5866L88.9447 22.0336L90.2854 19.351L87.603 20.6921L88.0502 21.5866ZM87.1909 23.1685L88.0331 23.7076L88.0331 23.7076L87.1909 23.1685ZM87.0507 23.3696L86.2727 22.7413L86.2638 22.7523L86.2552 22.7635L87.0507 23.3696ZM87.0506 23.3696L87.828 23.9987L87.8372 23.9873L87.8461 23.9757L87.0506 23.3696ZM87.0491 23.3717L87.7557 24.0793L86.343 22.6636L87.0491 23.3717ZM86.8696 23.4915L87.2523 24.4154L87.2523 24.4154L86.8696 23.4915ZM86.4454 23.4915L86.0627 24.4154L86.0627 24.4154L86.4454 23.4915ZM86.1454 23.1915L85.2215 23.5742L85.2215 23.5742L86.1454 23.1915ZM86.1454 22.7673L87.0693 23.15L87.0693 23.15L86.1454 22.7673ZM86.2672 22.5863L86.8955 23.3644L86.896 23.364L86.2672 22.5863ZM86.2673 22.5862L85.6389 21.8084L85.6386 21.8086L86.2673 22.5862ZM86.4685 22.4459L87.0077 23.2881L87.0077 23.2881L86.4685 22.4459ZM87.01 22.1287L86.5271 21.253L86.5271 21.253L87.01 22.1287ZM86.2653 22.5878L86.9724 23.2949L87.6792 22.5881L86.9727 21.881L86.2653 22.5878ZM86.2656 22.5875L86.9702 23.297L87.6822 22.5899L86.9727 21.8804L86.2656 22.5875ZM85.5684 21.8904L86.2755 21.1832L84.861 22.5972L85.5684 21.8904ZM93.2367 16.8984L93.7195 17.7741L93.7195 17.7741L93.2367 16.8984ZM92.1965 17.4405L91.302 16.9934L89.9612 19.6757L92.6436 18.3349L92.1965 17.4405ZM93.7782 16.5812L94.3174 17.4234L94.3174 17.4234L93.7782 16.5812ZM93.9793 16.441L93.3533 15.6612L93.3509 15.663L93.9793 16.441ZM93.9811 16.4397H92.9811V16.8539L93.274 17.1468L93.9811 16.4397ZM94.6785 17.1371L93.9714 17.8443L95.3859 16.4303L94.6785 17.1371ZM93.1972 15.6559L92.4901 16.363L93.1972 17.0701L93.9043 16.363L93.1972 15.6559ZM92.5001 14.9587L93.2069 14.2513L91.793 15.6658L92.5001 14.9587ZM93.1975 15.6556L92.4907 16.363L93.1978 17.0695L93.9046 16.3627L93.1975 15.6556ZM93.1977 15.6554L93.9799 16.2785L93.9914 16.264L94.0024 16.249L93.1977 15.6554ZM93.1959 15.6576L93.9739 16.286L93.9781 16.2807L93.1959 15.6576ZM93.0557 15.8587L92.2135 15.3195L92.2135 15.3195L93.0557 15.8587ZM92.7385 16.4002L91.8628 15.9174L91.8628 15.9174L92.7385 16.4002ZM93.9811 16.4395L93.6518 15.4953L93.549 15.5311L93.4563 15.5883L93.9811 16.4395ZM71.6096 15.9999C71.6096 12.2004 71.6117 9.45137 71.8936 7.35498C72.1715 5.28736 72.705 4.00496 73.6598 3.05016L72.2456 1.63595C70.8573 3.02429 70.2192 4.79909 69.9114 7.08849C69.6075 9.34912 69.6096 12.2569 69.6096 15.9999H71.6096ZM71.6096 23.9999V15.9999H69.6096V23.9999H71.6096ZM73.6598 36.9497C72.705 35.9949 72.1715 34.7125 71.8936 32.6448C71.6117 30.5484 71.6096 27.7994 71.6096 23.9999H69.6096C69.6096 27.7429 69.6075 30.6507 69.9114 32.9113C70.2192 35.2007 70.8573 36.9755 72.2456 38.3639L73.6598 36.9497ZM86.6096 38.9999C82.8101 38.9999 80.0611 38.9978 77.9647 38.7159C75.897 38.4379 74.6146 37.9045 73.6598 36.9497L72.2456 38.3639C73.634 39.7522 75.4088 40.3903 77.6982 40.6981C79.9588 41.002 82.8666 40.9999 86.6096 40.9999V38.9999ZM94.6096 38.9999H86.6096V40.9999H94.6096V38.9999ZM107.559 36.9497C106.605 37.9045 105.322 38.4379 103.255 38.7159C101.158 38.9978 98.4091 38.9999 94.6096 38.9999V40.9999C98.3526 40.9999 101.26 41.002 103.521 40.6981C105.81 40.3903 107.585 39.7522 108.974 38.3639L107.559 36.9497ZM109.61 23.9999C109.61 27.7994 109.607 30.5484 109.326 32.6448C109.048 34.7125 108.514 35.9949 107.559 36.9497L108.974 38.3639C110.362 36.9755 111 35.2007 111.308 32.9113C111.612 30.6507 111.61 27.7429 111.61 23.9999H109.61ZM109.61 15.9999V23.9999H111.61V15.9999H109.61ZM107.559 3.05016C108.514 4.00497 109.048 5.28736 109.326 7.35498C109.607 9.45137 109.61 12.2004 109.61 15.9999H111.61C111.61 12.2569 111.612 9.34912 111.308 7.08849C111 4.79909 110.362 3.02429 108.974 1.63595L107.559 3.05016ZM94.6096 0.999908C98.4091 0.999908 101.158 1.00203 103.255 1.28388C105.322 1.56187 106.605 2.09536 107.559 3.05016L108.974 1.63595C107.585 0.247606 105.81 -0.390479 103.521 -0.698281C101.26 -1.00222 98.3526 -1.00009 94.6096 -1.00009V0.999908ZM86.6096 0.999908H94.6096V-1.00009H86.6096V0.999908ZM73.6598 3.05016C74.6146 2.09536 75.897 1.56187 77.9647 1.28388C80.0611 1.00203 82.8101 0.999908 86.6096 0.999908V-1.00009C82.8666 -1.00009 79.9588 -1.00222 77.6982 -0.698281C75.4088 -0.390479 73.634 0.247606 72.2456 1.63595L73.6598 3.05016ZM92.1096 9.50112C92.1096 8.40412 91.2203 7.51482 90.1233 7.51482V9.51482C90.1237 9.51482 90.123 9.51484 90.1216 9.51456C90.1203 9.51429 90.1189 9.51386 90.1177 9.51334C90.1153 9.51234 90.1142 9.51132 90.1136 9.51081C90.1131 9.5103 90.1121 9.50913 90.1111 9.50676C90.1106 9.50552 90.1102 9.50416 90.1099 9.50282C90.1096 9.50144 90.1096 9.50076 90.1096 9.50112H92.1096ZM92.1096 15.2714V9.50112H90.1096V15.2714H92.1096ZM90.5522 14.2559C90.4481 14.4185 90.3427 14.5965 90.2396 14.7784L91.9797 15.7644C92.0714 15.6026 92.1578 15.4574 92.2366 15.3343L90.5522 14.2559ZM91.0947 13.5545C90.8592 13.7901 90.6705 14.0711 90.5522 14.2559L92.2366 15.3343C92.3419 15.1699 92.435 15.0427 92.5095 14.9681L91.0947 13.5545ZM91.0952 13.5539L91.0949 13.5542L92.5092 14.9684L92.5095 14.9681L91.0952 13.5539ZM93.5891 12.5209C92.6537 12.5209 91.7567 12.8925 91.0952 13.5539L92.5095 14.9681C92.7958 14.6818 93.1842 14.5209 93.5891 14.5209V12.5209ZM96.083 13.5539C95.4216 12.8925 94.5245 12.5209 93.5891 12.5209V14.5209C93.9941 14.5209 94.3824 14.6818 94.6688 14.9681L96.083 13.5539ZM97.116 16.0478C97.116 15.1124 96.7444 14.2153 96.083 13.5539L94.6688 14.9681C94.9551 15.2545 95.116 15.6428 95.116 16.0478H97.116ZM96.083 18.5417C96.7444 17.8803 97.116 16.9832 97.116 16.0478H95.116C95.116 16.4527 94.9551 16.8411 94.6688 17.1275L96.083 18.5417ZM96.085 18.5396L96.0853 18.5393L94.6665 17.1298L94.6662 17.1301L96.085 18.5396ZM95.381 19.0847C95.5658 18.9664 95.8468 18.7777 96.0824 18.5423L94.6688 17.1274C94.5942 17.2019 94.4671 17.2951 94.3026 17.4003L95.381 19.0847ZM94.8585 19.3973C95.0404 19.2942 95.2185 19.1888 95.381 19.0847L94.3026 17.4004C94.1795 17.4791 94.0343 17.5656 93.8725 17.6573L94.8585 19.3973ZM100.136 17.5273H94.3655V19.5273H100.136V17.5273ZM102.122 19.5136C102.122 18.4166 101.233 17.5273 100.136 17.5273V19.5273C100.136 19.5273 100.135 19.5273 100.134 19.527C100.133 19.5268 100.131 19.5263 100.13 19.5258C100.128 19.5248 100.127 19.5238 100.126 19.5233C100.126 19.5228 100.125 19.5216 100.124 19.5192C100.123 19.518 100.123 19.5166 100.122 19.5153C100.122 19.5139 100.122 19.5132 100.122 19.5136H102.122ZM100.136 21.4999C101.233 21.4999 102.122 20.6106 102.122 19.5136H100.122C100.122 19.514 100.122 19.5133 100.122 19.5119C100.123 19.5106 100.123 19.5092 100.124 19.508C100.125 19.5056 100.126 19.5044 100.126 19.5039C100.127 19.5034 100.128 19.5024 100.13 19.5014C100.131 19.5009 100.133 19.5004 100.134 19.5002C100.135 19.4999 100.136 19.4999 100.136 19.4999V21.4999ZM94.3654 21.4999H100.136V19.4999H94.3654V21.4999ZM95.381 19.9425C95.2184 19.8384 95.0404 19.733 94.8584 19.6299L93.8725 21.3699C94.0343 21.4616 94.1795 21.5481 94.3026 21.6269L95.381 19.9425ZM96.0824 20.4849C95.8468 20.2495 95.5658 20.0608 95.381 19.9425L94.3026 21.6269C94.4671 21.7322 94.5942 21.8253 94.6688 21.8998L96.0824 20.4849ZM96.0836 23.294C96.859 22.518 96.8584 21.2603 96.0824 20.485L94.6688 21.8998C94.6691 21.9 94.6686 21.8995 94.6678 21.8984C94.667 21.8972 94.6664 21.896 94.6659 21.8947C94.6649 21.8923 94.6648 21.8908 94.6648 21.8901C94.6648 21.8893 94.6649 21.8878 94.6659 21.8854C94.6664 21.8842 94.667 21.8829 94.6678 21.8818C94.6686 21.8806 94.6691 21.8801 94.6688 21.8804L96.0836 23.294ZM93.2745 23.2952C94.0506 24.0706 95.3082 24.07 96.0836 23.294L94.6688 21.8804C94.6685 21.8806 94.669 21.8801 94.6702 21.8794C94.6713 21.8786 94.6726 21.878 94.6738 21.8774C94.6762 21.8765 94.6777 21.8764 94.6785 21.8764C94.6792 21.8764 94.6807 21.8765 94.6831 21.8774C94.6844 21.8779 94.6856 21.8786 94.6868 21.8794C94.688 21.8801 94.6884 21.8806 94.6882 21.8804L93.2745 23.2952ZM93.3512 23.3644C93.3514 23.3645 93.3519 23.365 93.3525 23.3655C93.3531 23.3659 93.3542 23.3668 93.3556 23.3679C93.3569 23.369 93.3594 23.371 93.3626 23.3735C93.3651 23.3755 93.3719 23.3808 93.3807 23.3874C93.3852 23.3908 93.393 23.3966 93.4029 23.4036C93.4104 23.4089 93.4311 23.4236 93.4588 23.4405C93.4723 23.4488 93.4988 23.4647 93.5337 23.4822C93.5532 23.492 93.6437 23.538 93.7692 23.5653C93.8284 23.5781 93.9758 23.6056 94.1608 23.5719C94.3762 23.5327 94.6745 23.3988 94.8549 23.0753C95.0107 22.7961 94.9862 22.5346 94.9685 22.4267C94.9488 22.3063 94.9114 22.217 94.8926 22.1756C94.8539 22.0901 94.8116 22.0298 94.7989 22.0118C94.7804 21.9855 94.7643 21.9655 94.7553 21.9545C94.7373 21.9325 94.7222 21.916 94.7162 21.9095C94.7029 21.8952 94.6921 21.8843 94.6894 21.8816L93.2733 23.2939C93.2708 23.2914 93.2601 23.2807 93.2469 23.2664C93.241 23.26 93.2259 23.2436 93.2079 23.2216C93.1989 23.2106 93.1829 23.1906 93.1644 23.1644C93.1517 23.1463 93.1094 23.0861 93.0707 23.0006C93.0519 22.9591 93.0144 22.8699 92.9948 22.7495C92.9771 22.6416 92.9526 22.3801 93.1084 22.1009C93.2888 21.7774 93.5871 21.6435 93.8025 21.6043C93.9875 21.5706 94.1348 21.598 94.194 21.6109C94.3196 21.6382 94.41 21.6842 94.4296 21.694C94.4644 21.7115 94.4909 21.7274 94.5044 21.7356C94.532 21.7526 94.5527 21.7672 94.5602 21.7725C94.57 21.7794 94.5777 21.7852 94.5821 21.7885C94.5999 21.8019 94.6189 21.8174 94.6077 21.8084L93.3512 23.3644ZM93.3546 23.3671L93.3548 23.3672L94.6041 21.8055L94.604 21.8054L93.3546 23.3671ZM93.239 23.2882C93.2908 23.3213 93.3227 23.3436 93.3387 23.3551C93.3466 23.3609 93.3508 23.3641 93.3517 23.3648C93.3519 23.3649 93.3508 23.3641 93.3509 23.3641L94.6077 21.8084C94.5682 21.7764 94.4814 21.7088 94.3174 21.6038L93.239 23.2882ZM92.7539 23.0046C92.9615 23.119 93.1239 23.2144 93.239 23.2881L94.3174 21.6038C94.1513 21.4975 93.9472 21.3786 93.7195 21.2531L92.7539 23.0046ZM91.7494 22.4812C92.114 22.6635 92.4607 22.8429 92.7539 23.0046L93.7195 21.2531C93.3942 21.0737 93.0215 20.8812 92.6436 20.6923L91.7494 22.4812ZM93.6143 22.1442C93.4526 21.851 93.2732 21.5043 93.0909 21.1397L91.302 22.0338C91.4909 22.4118 91.6835 22.7845 91.8628 23.1098L93.6143 22.1442ZM93.8978 22.6293C93.8241 22.5142 93.7287 22.3518 93.6143 22.1442L91.8628 23.1098C91.9883 23.3375 92.1072 23.5416 92.2135 23.7077L93.8978 22.6293ZM93.9739 22.7412C93.9738 22.7411 93.9746 22.7422 93.9745 22.742C93.9738 22.7411 93.9706 22.7369 93.9648 22.729C93.9533 22.713 93.931 22.6811 93.8979 22.6293L92.2135 23.7077C92.3185 23.8717 92.3862 23.9585 92.418 23.9979L93.9739 22.7412ZM92.4904 24.0788C92.4929 24.0813 92.5045 24.0929 92.5197 24.1069C92.5263 24.113 92.5447 24.1299 92.5696 24.15C92.5817 24.1598 92.6058 24.1788 92.638 24.2006C92.6552 24.2122 92.7402 24.2706 92.8631 24.3143C92.9202 24.3346 93.0695 24.383 93.266 24.3696C93.501 24.3535 93.8208 24.2411 94.0306 23.9256C94.2053 23.6627 94.2022 23.4044 94.1956 23.305C94.1878 23.1894 94.1615 23.1013 94.148 23.0604C94.1202 22.9755 94.087 22.9139 94.0769 22.8952C94.0622 22.8682 94.0492 22.8473 94.0419 22.8358C94.0179 22.798 93.9958 22.7693 93.9953 22.7686C93.9893 22.7607 93.9845 22.7545 93.9826 22.7522C93.9803 22.7492 93.9784 22.7469 93.9775 22.7458C93.9765 22.7445 93.9757 22.7434 93.9753 22.7429C93.9748 22.7424 93.9744 22.7419 93.9743 22.7417L92.4176 23.9974C92.4262 24.0081 92.412 23.9908 92.4 23.9748C92.3996 23.9743 92.3776 23.9457 92.3536 23.908C92.3463 23.8965 92.3334 23.8756 92.3187 23.8486C92.3086 23.8299 92.2754 23.7683 92.2476 23.6835C92.2341 23.6425 92.2078 23.5544 92.2 23.4389C92.1934 23.3395 92.1903 23.0812 92.365 22.8183C92.5748 22.5028 92.8946 22.3903 93.1296 22.3743C93.3261 22.3608 93.4754 22.4093 93.5324 22.4296C93.6554 22.4732 93.7404 22.5317 93.7576 22.5433C93.7897 22.565 93.8138 22.5841 93.8259 22.5938C93.8507 22.6139 93.8691 22.6307 93.8757 22.6368C93.8908 22.6507 93.9022 22.6622 93.9046 22.6645L92.4904 24.0788ZM93.9037 25.4739C94.6797 24.6985 94.6803 23.4409 93.9049 22.6648L92.4901 24.0785C92.4903 24.0787 92.4898 24.0783 92.4891 24.0771C92.4883 24.0759 92.4877 24.0747 92.4871 24.0734C92.4862 24.071 92.4861 24.0695 92.4861 24.0688C92.4861 24.068 92.4862 24.0665 92.4871 24.0641C92.4877 24.0629 92.4883 24.0616 92.4891 24.0605C92.4898 24.0593 92.4903 24.0588 92.4901 24.0591L93.9037 25.4739ZM91.0947 25.4727C91.87 26.2487 93.1277 26.2493 93.9037 25.4739L92.4901 24.0591C92.4898 24.0593 92.4903 24.0589 92.4915 24.0581C92.4926 24.0573 92.4939 24.0567 92.4951 24.0562C92.4975 24.0552 92.4991 24.0551 92.4998 24.0551C92.5005 24.0551 92.502 24.0552 92.5044 24.0562C92.5057 24.0567 92.5069 24.0573 92.5081 24.0581C92.5093 24.0589 92.5097 24.0594 92.5095 24.0591L91.0947 25.4727ZM90.5522 24.7713C90.6705 24.9561 90.8592 25.2371 91.0947 25.4727L92.5095 24.0591C92.435 23.9845 92.3419 23.8574 92.2366 23.6929L90.5522 24.7713ZM90.2396 24.2488C90.3427 24.4307 90.4481 24.6088 90.5522 24.7713L92.2366 23.6929C92.1578 23.5698 92.0714 23.4246 91.9797 23.2628L90.2396 24.2488ZM92.1096 29.5261V23.7558H90.1096V29.5261H92.1096ZM90.1233 31.5124C91.2203 31.5124 92.1096 30.6231 92.1096 29.5261H90.1096C90.1096 29.5264 90.1096 29.5257 90.1099 29.5244C90.1102 29.523 90.1106 29.5217 90.1111 29.5204C90.1121 29.5181 90.1131 29.5169 90.1136 29.5164C90.1142 29.5159 90.1153 29.5148 90.1177 29.5138C90.1189 29.5133 90.1203 29.5129 90.1216 29.5126C90.123 29.5123 90.1237 29.5124 90.1233 29.5124V31.5124ZM88.137 29.5261C88.137 30.6231 89.0263 31.5124 90.1233 31.5124V29.5124C90.123 29.5124 90.1236 29.5123 90.125 29.5126C90.1264 29.5129 90.1277 29.5133 90.129 29.5138C90.1313 29.5148 90.1325 29.5159 90.133 29.5164C90.1335 29.5169 90.1345 29.5181 90.1355 29.5204C90.1361 29.5217 90.1365 29.523 90.1368 29.5244C90.1371 29.5257 90.137 29.5264 90.137 29.5261H88.137ZM88.137 23.7557V29.5261H90.137V23.7557H88.137ZM89.6944 24.7712C89.7985 24.6086 89.904 24.4306 90.0071 24.2486L88.267 23.2627C88.1753 23.4246 88.0889 23.5698 88.01 23.6929L89.6944 24.7712ZM89.152 25.4727C89.3875 25.237 89.5761 24.956 89.6944 24.7712L88.0101 23.6929C87.9048 23.8573 87.8116 23.9845 87.7372 24.0591L89.152 25.4727ZM89.1514 25.4733L89.1517 25.473L87.7375 24.0588L87.7372 24.0591L89.1514 25.4733ZM88.0072 26.2378C88.4351 26.0606 88.8239 25.8008 89.1514 25.4733L87.7372 24.0591C87.5954 24.2009 87.4271 24.3133 87.2418 24.3901L88.0072 26.2378ZM86.6575 26.5063C87.1206 26.5063 87.5793 26.4151 88.0072 26.2378L87.2418 24.3901C87.0566 24.4668 86.858 24.5063 86.6575 24.5063V26.5063ZM85.3078 26.2378C85.7357 26.4151 86.1943 26.5063 86.6575 26.5063V24.5063C86.457 24.5063 86.2584 24.4668 86.0732 24.3901L85.3078 26.2378ZM84.1636 25.4733C84.4911 25.8008 84.8799 26.0606 85.3078 26.2378L86.0732 24.3901C85.8879 24.3133 85.7196 24.2009 85.5778 24.0591L84.1636 25.4733ZM83.3991 24.3291C83.5763 24.757 83.8361 25.1458 84.1636 25.4733L85.5778 24.0591C85.436 23.9173 85.3236 23.749 85.2468 23.5637L83.3991 24.3291ZM83.1306 22.9794C83.1306 23.4426 83.2218 23.9012 83.3991 24.3291L85.2468 23.5637C85.1701 23.3785 85.1306 23.1799 85.1306 22.9794H83.1306ZM83.3991 21.6297C83.2218 22.0576 83.1306 22.5163 83.1306 22.9794H85.1306C85.1306 22.7789 85.1701 22.5804 85.2468 22.3951L83.3991 21.6297ZM84.1636 20.4855C83.8361 20.813 83.5763 21.2018 83.3991 21.6297L85.2468 22.3951C85.3236 22.2099 85.436 22.0415 85.5778 21.8998L84.1636 20.4855ZM84.1627 20.4864L84.1625 20.4867L85.579 21.8986L85.5793 21.8983L84.1627 20.4864ZM84.8655 19.9425C84.6808 20.0609 84.3998 20.2495 84.1642 20.4849L85.5778 21.8998C85.6524 21.8253 85.7796 21.7321 85.944 21.6268L84.8655 19.9425ZM85.388 19.6299C85.2061 19.733 85.0281 19.8385 84.8655 19.9425L85.944 21.6268C86.0671 21.548 86.2123 21.4616 86.3741 21.3699L85.388 19.6299ZM80.1109 21.4999H85.8811V19.4999H80.1109V21.4999ZM78.1246 19.5136C78.1246 20.6106 79.0139 21.4999 80.1109 21.4999V19.4999C80.1105 19.4999 80.1112 19.4999 80.1126 19.5002C80.1139 19.5004 80.1153 19.5009 80.1165 19.5014C80.1189 19.5024 80.12 19.5034 80.1206 19.5039C80.1211 19.5044 80.1221 19.5056 80.1231 19.508C80.1236 19.5092 80.124 19.5106 80.1243 19.5119C80.1246 19.5133 80.1246 19.514 80.1246 19.5136H78.1246ZM80.1109 17.5273C79.0139 17.5273 78.1246 18.4166 78.1246 19.5136H80.1246C80.1246 19.5132 80.1246 19.5139 80.1243 19.5153C80.124 19.5166 80.1236 19.518 80.1231 19.5192C80.1221 19.5216 80.1211 19.5228 80.1206 19.5233C80.12 19.5238 80.1189 19.5248 80.1165 19.5258C80.1153 19.5263 80.1139 19.5268 80.1126 19.527C80.1112 19.5273 80.1105 19.5273 80.1109 19.5273V17.5273ZM85.8811 17.5273H80.1109V19.5273H85.8811V17.5273ZM84.8656 19.0847C85.0282 19.1888 85.2062 19.2942 85.3881 19.3973L86.3741 17.6573C86.2123 17.5656 86.0671 17.4791 85.944 17.4004L84.8656 19.0847ZM84.1642 18.5423C84.3999 18.7777 84.6808 18.9664 84.8656 19.0847L85.944 17.4003C85.7796 17.2951 85.6524 17.2019 85.5778 17.1275L84.1642 18.5423ZM84.163 15.7332C83.3876 16.5092 83.3882 17.7669 84.1642 18.5423L85.5778 17.1275C85.5776 17.1272 85.5781 17.1277 85.5788 17.1288C85.5796 17.13 85.5802 17.1312 85.5808 17.1325C85.5817 17.1349 85.5818 17.1364 85.5818 17.1371C85.5818 17.1379 85.5817 17.1394 85.5808 17.1418C85.5803 17.143 85.5796 17.1443 85.5788 17.1454C85.5781 17.1466 85.5776 17.1471 85.5778 17.1468L84.163 15.7332ZM86.9721 15.732C86.1961 14.9567 84.9384 14.9572 84.163 15.7332L85.5778 17.1468C85.5781 17.1466 85.5776 17.1471 85.5764 17.1478C85.5753 17.1486 85.574 17.1493 85.5728 17.1498C85.5704 17.1507 85.5689 17.1508 85.5681 17.1508C85.5674 17.1508 85.5659 17.1507 85.5635 17.1498C85.5622 17.1493 85.561 17.1486 85.5598 17.1479C85.5587 17.1471 85.5582 17.1466 85.5585 17.1468L86.9721 15.732ZM86.8957 15.663C86.8955 15.6629 86.8949 15.6624 86.8944 15.662C86.8938 15.6615 86.8927 15.6607 86.8914 15.6596C86.8902 15.6587 86.8879 15.6568 86.8849 15.6544C86.8825 15.6525 86.8763 15.6476 86.8682 15.6415C86.8675 15.641 86.8387 15.6188 86.8006 15.5947C86.7891 15.5873 86.7681 15.5743 86.7409 15.5596C86.7221 15.5494 86.6602 15.5162 86.5751 15.4884C86.5339 15.475 86.4457 15.4488 86.3301 15.4412C86.2302 15.4347 85.9731 15.4324 85.7114 15.6063C85.3978 15.8148 85.2844 16.1324 85.2675 16.3676C85.2534 16.5642 85.3015 16.7139 85.3218 16.7714C85.3654 16.895 85.4239 16.9805 85.4356 16.9979C85.4574 17.0302 85.4766 17.0545 85.4864 17.0667C85.5066 17.0917 85.5236 17.1103 85.5297 17.1169C85.5439 17.1323 85.5555 17.1439 85.5582 17.1465L86.9724 15.7323C86.9748 15.7348 86.9863 15.7462 87.0004 15.7615C87.0065 15.7681 87.0234 15.7866 87.0436 15.8116C87.0534 15.8238 87.0726 15.8481 87.0943 15.8804C87.106 15.8978 87.1646 15.9832 87.2081 16.1068C87.2284 16.1644 87.2765 16.314 87.2624 16.5107C87.2455 16.7458 87.1322 17.0635 86.8185 17.2719C86.5569 17.4459 86.2997 17.4435 86.1999 17.437C86.0842 17.4294 85.996 17.4032 85.9549 17.3898C85.8698 17.362 85.8079 17.3288 85.7891 17.3186C85.762 17.3039 85.741 17.2909 85.7294 17.2836C85.6915 17.2595 85.6627 17.2374 85.6622 17.237C85.6459 17.2247 85.6285 17.2104 85.639 17.2189L86.8957 15.663ZM87.0077 15.7391C86.9558 15.7059 86.9239 15.6836 86.908 15.6721C86.9 15.6663 86.8958 15.6631 86.8949 15.6624C86.8947 15.6623 86.8957 15.6631 86.8956 15.663L85.639 17.2189C85.6784 17.2508 85.7651 17.3184 85.9292 17.4234L87.0077 15.7391ZM87.4927 16.0226C87.2852 15.9082 87.1228 15.8128 87.0076 15.7391L85.9293 17.4234C86.0953 17.5297 86.2994 17.6486 86.5271 17.7741L87.4927 16.0226ZM88.4975 16.5461C88.1328 16.3638 87.786 16.1843 87.4927 16.0226L86.5271 17.7741C86.8525 17.9535 87.2253 18.1461 87.6033 18.3351L88.4975 16.5461ZM86.6325 16.8831C86.7942 17.1764 86.9737 17.5231 87.156 17.8878L88.9449 16.9934C88.7559 16.6154 88.5633 16.2428 88.3839 15.9174L86.6325 16.8831ZM86.3488 16.398C86.4226 16.5132 86.5181 16.6756 86.6325 16.8831L88.3839 15.9174C88.2583 15.6897 88.1395 15.4856 88.0331 15.3195L86.3488 16.398ZM86.2728 16.2861C86.2729 16.2861 86.272 16.2851 86.2722 16.2853C86.2729 16.2862 86.2761 16.2904 86.2818 16.2983C86.2934 16.3143 86.3156 16.3462 86.3489 16.398L88.0331 15.3195C87.928 15.1554 87.8604 15.0686 87.8285 15.0292L86.2728 16.2861ZM86.2857 16.3017L86.2858 16.3018L87.8156 15.0135L87.8155 15.0134L86.2857 16.3017ZM87.7567 14.9489C87.7541 14.9463 87.7428 14.935 87.7278 14.9211C87.7213 14.9151 87.7034 14.8987 87.6794 14.8791C87.6676 14.8696 87.6446 14.8513 87.6141 14.8304C87.5966 14.8184 87.5186 14.7643 87.4063 14.7214C87.3538 14.7013 87.2218 14.6547 87.0457 14.6553C86.8485 14.6559 86.5239 14.7219 86.2793 15.0167C86.0613 15.2793 86.0464 15.5609 86.0491 15.6778C86.052 15.8065 86.0794 15.9048 86.0929 15.9489C86.1211 16.0408 86.1566 16.1074 86.1667 16.1264C86.1819 16.1549 86.1954 16.1768 86.2029 16.1886C86.2275 16.2277 86.2503 16.2573 86.2507 16.2578C86.2568 16.2659 86.2617 16.2722 86.2636 16.2745C86.2659 16.2775 86.2678 16.2799 86.2688 16.281C86.2698 16.2823 86.2706 16.2834 86.271 16.2839C86.2715 16.2844 86.2719 16.2849 86.272 16.2851L87.8292 15.03C87.8206 15.0193 87.835 15.0369 87.8473 15.0532C87.8475 15.0535 87.8702 15.083 87.8948 15.122C87.9022 15.1339 87.9157 15.1558 87.9309 15.1842C87.941 15.2031 87.9765 15.2697 88.0048 15.3617C88.0183 15.4057 88.0457 15.5041 88.0486 15.6327C88.0512 15.7497 88.0363 16.0312 87.8184 16.2938C87.5738 16.5886 87.2492 16.6547 87.052 16.6553C86.8759 16.6558 86.7438 16.6093 86.6914 16.5892C86.579 16.5462 86.5011 16.4922 86.4836 16.4802C86.4531 16.4593 86.4301 16.441 86.4183 16.4315C86.3943 16.412 86.3765 16.3956 86.37 16.3896C86.3551 16.3758 86.344 16.3646 86.3416 16.3622L87.7567 14.9489ZM86.3429 13.5533C85.5669 14.3287 85.5664 15.5864 86.3417 16.3624L87.7565 14.9487C87.7563 14.9485 87.7568 14.949 87.7576 14.9501C87.7583 14.9513 87.759 14.9525 87.7595 14.9538C87.7604 14.9562 87.7605 14.9577 87.7605 14.9584C87.7605 14.9592 87.7604 14.9607 87.7595 14.9631C87.759 14.9643 87.7583 14.9656 87.7575 14.9667C87.7568 14.9679 87.7563 14.9684 87.7565 14.9681L86.3429 13.5533ZM89.152 13.5545C88.3766 12.7785 87.1189 12.7779 86.3429 13.5533L87.7565 14.9681C87.7568 14.9679 87.7563 14.9684 87.7551 14.9691C87.754 14.9699 87.7527 14.9705 87.7515 14.9711C87.7491 14.972 87.7476 14.9721 87.7468 14.9721C87.7461 14.9721 87.7446 14.972 87.7422 14.9711C87.7409 14.9705 87.7397 14.9699 87.7385 14.9691C87.7374 14.9684 87.7369 14.9679 87.7372 14.9681L89.152 13.5545ZM89.6944 14.2558C89.5761 14.071 89.3874 13.7901 89.152 13.5545L87.7372 14.9681C87.8116 15.0427 87.9048 15.1699 88.0101 15.3343L89.6944 14.2558ZM90.007 14.7783C89.9039 14.5964 89.7984 14.4184 89.6944 14.2558L88.0101 15.3343C88.0889 15.4574 88.1753 15.6026 88.267 15.7644L90.007 14.7783ZM88.137 9.50112V15.2714H90.137V9.50112H88.137ZM90.1233 7.51482C89.0263 7.51482 88.137 8.40412 88.137 9.50112H90.137C90.137 9.50076 90.1371 9.50144 90.1368 9.50282C90.1365 9.50416 90.1361 9.50552 90.1355 9.50676C90.1345 9.50913 90.1335 9.5103 90.133 9.51081C90.1325 9.51132 90.1313 9.51234 90.129 9.51334C90.1277 9.51386 90.1264 9.51429 90.125 9.51456C90.1236 9.51484 90.123 9.51482 90.1233 9.51482V7.51482ZM88.3838 23.1097C88.5632 22.7843 88.7558 22.4116 88.9447 22.0336L87.1557 21.1395C86.9734 21.5042 86.7939 21.851 86.6323 22.1442L88.3838 23.1097ZM88.0331 23.7076C88.1394 23.5416 88.2583 23.3375 88.3838 23.1097L86.6323 22.1442C86.5179 22.3518 86.4224 22.5142 86.3487 22.6293L88.0331 23.7076ZM87.8286 23.9979C87.8605 23.9584 87.9281 23.8717 88.0331 23.7076L86.3487 22.6293C86.3156 22.6811 86.2933 22.713 86.2817 22.729C86.276 22.7369 86.2728 22.7411 86.2721 22.742C86.2719 22.7422 86.2728 22.7412 86.2727 22.7413L87.8286 23.9979ZM87.8461 23.9757L87.8461 23.9756L86.2552 22.7635L86.2552 22.7636L87.8461 23.9757ZM86.343 22.6636C86.3455 22.6611 86.3575 22.6491 86.3735 22.6345C86.3803 22.6282 86.3998 22.6104 86.4264 22.5893C86.4392 22.5791 86.4654 22.5587 86.5004 22.5357C86.5177 22.5244 86.6138 22.4598 86.7531 22.4167C86.8187 22.3964 86.991 22.349 87.2112 22.3852C87.4864 22.4305 87.7752 22.6006 87.9365 22.9115C88.0656 23.1604 88.0525 23.3874 88.0436 23.4742C88.033 23.5775 88.0084 23.6564 87.9951 23.6951C87.9681 23.7742 87.937 23.8318 87.9268 23.8507C87.9125 23.8768 87.8999 23.8971 87.8927 23.9084C87.8689 23.9458 87.8472 23.974 87.8466 23.9749C87.834 23.9915 87.8198 24.0088 87.828 23.9987L86.2733 22.7405C86.2733 22.7406 86.2715 22.7428 86.2697 22.745C86.2687 22.7463 86.2667 22.7487 86.2643 22.7517C86.2624 22.7542 86.2575 22.7604 86.2514 22.7685C86.2506 22.7695 86.2288 22.7979 86.205 22.8353C86.1977 22.8467 86.1851 22.867 86.1709 22.8931C86.1606 22.912 86.1295 22.9696 86.1025 23.0487C86.0893 23.0874 86.0647 23.1663 86.0541 23.2697C86.0451 23.3565 86.032 23.5835 86.1611 23.8324C86.3224 24.1433 86.6113 24.3134 86.8865 24.3587C87.1066 24.3949 87.2789 24.3475 87.3445 24.3272C87.4839 24.2841 87.58 24.2195 87.5973 24.2081C87.6323 24.1851 87.6585 24.1648 87.6713 24.1546C87.6979 24.1334 87.7175 24.1155 87.7244 24.1093C87.7405 24.0945 87.7526 24.0824 87.7553 24.0797L86.343 22.6636ZM87.2523 24.4154C87.4405 24.3374 87.6115 24.2232 87.7557 24.0793L86.3426 22.664C86.3839 22.6227 86.433 22.59 86.4869 22.5676L87.2523 24.4154ZM86.6575 24.5337C86.8616 24.5337 87.0637 24.4935 87.2523 24.4154L86.4869 22.5676C86.541 22.5452 86.599 22.5337 86.6575 22.5337V24.5337ZM86.0627 24.4154C86.2513 24.4935 86.4534 24.5337 86.6575 24.5337V22.5337C86.716 22.5337 86.774 22.5452 86.828 22.5676L86.0627 24.4154ZM85.5584 24.0785C85.7028 24.2228 85.8741 24.3373 86.0627 24.4154L86.8281 22.5676C86.8821 22.59 86.9313 22.6229 86.9727 22.6642L85.5584 24.0785ZM85.2215 23.5742C85.2996 23.7628 85.4141 23.9341 85.5584 24.0785L86.9727 22.6642C87.0141 22.7056 87.0469 22.7548 87.0693 22.8088L85.2215 23.5742ZM85.1032 22.9794C85.1032 23.1835 85.1434 23.3856 85.2215 23.5742L87.0693 22.8088C87.0917 22.8629 87.1032 22.9209 87.1032 22.9794H85.1032ZM85.2215 22.3846C85.1434 22.5732 85.1032 22.7753 85.1032 22.9794H87.1032C87.1032 23.038 87.0917 23.0959 87.0693 23.15L85.2215 22.3846ZM85.5573 21.8815C85.4135 22.0256 85.2994 22.1966 85.2215 22.3846L87.0693 23.15C87.0469 23.2039 87.0142 23.2529 86.973 23.2943L85.5573 21.8815ZM85.639 21.8083C85.6312 21.8146 85.6442 21.804 85.6565 21.7945C85.6596 21.7921 85.6748 21.7805 85.6949 21.7665C85.7032 21.7608 85.7286 21.7432 85.7627 21.7234C85.7789 21.714 85.8141 21.694 85.8609 21.6734C85.8787 21.6655 86.0205 21.5992 86.2146 21.5894C86.3157 21.5843 86.55 21.5875 86.7937 21.7393C87.0834 21.9197 87.2205 22.2034 87.2551 22.4481C87.2839 22.6519 87.2422 22.8113 87.2222 22.8775C87.1985 22.9557 87.1701 23.0147 87.1535 23.0468C87.0995 23.1515 87.0367 23.224 87.0361 23.2248C87.0084 23.2583 86.9841 23.283 86.9828 23.2843L85.5475 21.8915C85.5461 21.8929 85.5216 21.9178 85.494 21.9513C85.4932 21.9521 85.4305 22.0246 85.3764 22.1293C85.3598 22.1615 85.3314 22.2205 85.3078 22.2987C85.2878 22.3648 85.246 22.5242 85.2748 22.7281C85.3094 22.9728 85.4466 23.2564 85.7362 23.4369C85.9799 23.5887 86.2142 23.5919 86.3154 23.5868C86.5095 23.577 86.6513 23.5107 86.6691 23.5028C86.7159 23.4821 86.7511 23.4622 86.7673 23.4528C86.8015 23.4329 86.8269 23.4153 86.8353 23.4095C86.8554 23.3955 86.8707 23.3838 86.874 23.3813C86.8837 23.3738 86.8916 23.3675 86.8918 23.3673C86.8929 23.3664 86.8939 23.3656 86.8943 23.3653C86.8948 23.3649 86.8953 23.3645 86.8955 23.3644L85.639 21.8083ZM85.6386 21.8086L85.6385 21.8087L86.896 23.364L86.896 23.3639L85.6386 21.8086ZM85.9292 21.6038C85.7651 21.7089 85.6784 21.7765 85.6389 21.8084L86.8957 23.3641C86.8958 23.3641 86.8948 23.3649 86.895 23.3647C86.8959 23.364 86.9001 23.3608 86.908 23.3551C86.924 23.3436 86.9559 23.3213 87.0077 23.2881L85.9292 21.6038ZM86.5271 21.253C86.2994 21.3786 86.0953 21.4974 85.9292 21.6038L87.0077 23.2881C87.1229 23.2143 87.2853 23.1189 87.4928 23.0044L86.5271 21.253ZM87.603 20.6921C87.2251 20.8811 86.8524 21.0736 86.5271 21.253L87.4928 23.0044C87.786 22.8428 88.1327 22.6633 88.4973 22.481L87.603 20.6921ZM86.9816 23.2855C86.9806 23.2866 86.977 23.2902 86.9724 23.2949L85.5582 21.8807C85.5534 21.8854 85.5498 21.8892 85.5487 21.8903L86.9816 23.2855ZM85.5609 21.8779C85.5592 21.8796 85.5579 21.881 85.557 21.8818C85.5566 21.8822 85.5562 21.8826 85.556 21.8828C85.5558 21.883 85.5556 21.8832 85.5556 21.8832L86.9747 23.2926C86.9752 23.292 86.9729 23.2943 86.9702 23.297L85.5609 21.8779ZM84.8613 22.5975L85.5584 23.2946L86.9727 21.8804L86.2755 21.1832L84.8613 22.5975ZM86.9727 21.881L86.2758 21.1835L84.861 22.5972L85.5579 23.2946L86.9727 21.881ZM92.7539 16.0226C92.4607 16.1843 92.114 16.3637 91.7494 16.546L92.6436 18.3349C93.0215 18.146 93.3942 17.9535 93.7195 17.7741L92.7539 16.0226ZM93.239 15.7391C93.1239 15.8128 92.9615 15.9082 92.7539 16.0226L93.7195 17.7741C93.9472 17.6486 94.1513 17.5297 94.3174 17.4234L93.239 15.7391ZM93.3509 15.663C93.3509 15.6631 93.3519 15.6623 93.3517 15.6624C93.3508 15.6631 93.3466 15.6663 93.3387 15.6721C93.3227 15.6836 93.2908 15.7059 93.239 15.7391L94.3174 17.4234C94.4815 17.3184 94.5682 17.2508 94.6076 17.2189L93.3509 15.663ZM93.3546 15.6601L93.3533 15.6612L94.6053 17.2208L94.6067 17.2197L93.3546 15.6601ZM93.4557 15.5888L93.4552 15.589L94.5061 17.2907L94.5065 17.2905L93.4557 15.5888ZM92.9811 16.4396V16.4397H94.9811V16.4396H92.9811ZM93.274 17.1468L93.9714 17.8443L95.3856 16.43L94.6882 15.7326L93.274 17.1468ZM95.3859 16.4303L94.6888 15.7326L93.2739 17.1462L93.9711 17.844L95.3859 16.4303ZM93.1434 16.0478C93.1434 15.9297 93.1903 15.8164 93.2737 15.7328L94.689 17.146C94.98 16.8546 95.1434 16.4596 95.1434 16.0478H93.1434ZM93.274 16.363C93.1904 16.2794 93.1434 16.166 93.1434 16.0478H95.1434C95.1434 15.6356 94.9797 15.2402 94.6882 14.9487L93.274 16.363ZM93.5891 16.4935C93.4709 16.4935 93.3575 16.4465 93.274 16.363L94.6882 14.9487C94.3967 14.6573 94.0013 14.4935 93.5891 14.4935V16.4935ZM93.9043 16.363C93.8207 16.4465 93.7073 16.4935 93.5891 16.4935V14.4935C93.1769 14.4935 92.7816 14.6573 92.4901 14.9487L93.9043 16.363ZM91.793 15.6658L92.4901 16.363L93.9043 14.9487L93.2072 14.2516L91.793 15.6658ZM93.9043 14.9482L93.2069 14.2513L91.7933 15.6661L92.4907 16.363L93.9043 14.9482ZM94.0024 16.249C94.0066 16.2434 94.0143 16.2329 94.0236 16.2193C94.0294 16.2107 94.0518 16.1781 94.0759 16.1337C94.0865 16.1144 94.1145 16.062 94.1399 15.9906C94.1526 15.955 94.1741 15.8886 94.1869 15.8023C94.1978 15.7292 94.2169 15.5522 94.1473 15.3416C94.0622 15.0839 93.8616 14.8385 93.555 14.7212C93.303 14.6249 93.0864 14.6572 92.996 14.6759C92.8179 14.7125 92.6949 14.7907 92.6772 14.8015C92.6062 14.8447 92.5563 14.8881 92.5504 14.8931C92.5338 14.9072 92.5211 14.919 92.5151 14.9245C92.5027 14.9361 92.4933 14.9456 92.4904 14.9485L93.9046 16.3627C93.9019 16.3654 93.8926 16.3747 93.8802 16.3862C93.8743 16.3917 93.8617 16.4034 93.8451 16.4175C93.8392 16.4225 93.7893 16.4658 93.7183 16.5091C93.7007 16.5198 93.5777 16.598 93.3996 16.6347C93.3092 16.6533 93.0926 16.6857 92.8406 16.5893C92.534 16.4721 92.3334 16.2267 92.2483 15.9689C92.1787 15.7584 92.1978 15.5814 92.2087 15.5083C92.2215 15.422 92.243 15.3556 92.2557 15.32C92.2811 15.2486 92.3091 15.1962 92.3197 15.1769C92.3438 15.1325 92.3661 15.0999 92.372 15.0914C92.3812 15.0779 92.3889 15.0674 92.393 15.0618L94.0024 16.249ZM93.9781 16.2807L93.9799 16.2785L92.4155 15.0324L92.4138 15.0346L93.9781 16.2807ZM93.8978 16.3979C93.931 16.3461 93.9533 16.3142 93.9648 16.2983C93.9706 16.2903 93.9738 16.2861 93.9745 16.2852C93.9746 16.285 93.9738 16.2861 93.9739 16.286L92.418 15.0293C92.3862 15.0687 92.3185 15.1555 92.2135 15.3195L93.8978 16.3979ZM93.6143 16.883C93.7287 16.6755 93.8241 16.5131 93.8979 16.3979L92.2135 15.3195C92.1072 15.4856 91.9884 15.6897 91.8628 15.9174L93.6143 16.883ZM93.0909 17.8876C93.2732 17.5229 93.4526 17.1762 93.6143 16.883L91.8628 15.9174C91.6835 16.2427 91.4909 16.6154 91.302 16.9934L93.0909 17.8876ZM93.3533 15.6611L93.3529 15.6615L94.6084 17.2183L94.6088 17.2179L93.3533 15.6611ZM93.456 15.5886L92.712 16.0471L93.7614 17.7497L94.5053 17.2912L93.456 15.5886ZM93.7614 17.7496L94.5058 17.2908L93.4563 15.5883L92.712 16.0471L93.7614 17.7496ZM93.6521 15.4952L93.6518 15.4953L94.3103 17.3838L94.3106 17.3837L93.6521 15.4952ZM93.4554 15.5889L93.4551 15.5891L94.507 17.2901L94.5073 17.2899L93.4554 15.5889ZM92.9811 16.4395V16.4396H94.9811V16.4395H92.9811Z" fill="black" mask="url(#path-1-inside-1_193_473)"/>
<path d="M93.9813 16.4394L94.2437 16.8651L93.8167 15.9673L93.9813 16.4394ZM93.2367 16.8984L92.9743 16.4727L93.499 17.324L93.2367 16.8984ZM93.9811 16.4395L93.8164 15.9674L93.765 15.9853L93.7187 16.0139L93.9811 16.4395ZM93.719 16.0138L92.9744 16.4727L93.499 17.324L94.2437 16.8651L93.719 16.0138ZM93.8167 15.9673L93.8164 15.9674L94.1457 16.9117L94.146 16.9116L93.8167 15.9673ZM93.4991 17.324L94.2434 16.8652L93.7187 16.0139L92.9743 16.4727L93.4991 17.324ZM72.9527 37.6568L73.6598 36.9497H73.6598L72.9527 37.6568ZM108.266 37.6568L107.559 36.9497L108.266 37.6568ZM108.266 2.34305L107.559 3.05016V3.05016L108.266 2.34305ZM91.1096 15.2714H90.1096V19.0646L91.9797 15.7644L91.1096 15.2714ZM91.3944 14.7951L90.5522 14.2559V14.2559L91.3944 14.7951ZM91.8021 14.2613L91.0949 13.5542L91.0947 13.5545L91.8021 14.2613ZM95.3759 14.261L94.6688 14.9681V14.9681L95.3759 14.261ZM95.3759 17.8346L94.6688 17.1275L94.6665 17.1298L95.3759 17.8346ZM95.3756 17.8349L96.0824 18.5423L96.085 18.5396L95.3756 17.8349ZM94.8418 18.2425L94.3026 17.4003L94.3026 17.4004L94.8418 18.2425ZM94.3655 18.5273L93.8725 17.6573L90.5722 19.5273H94.3655V18.5273ZM94.3654 20.4999V19.4999H90.5722L93.8725 21.3699L94.3654 20.4999ZM94.8418 20.7847L95.381 19.9425L95.381 19.9425L94.8418 20.7847ZM95.3756 21.1924L96.0824 20.485L96.0824 20.4849L95.3756 21.1924ZM95.3762 22.5872L94.6688 21.8804L94.6688 21.8804L95.3762 22.5872ZM93.9813 22.5878L94.6882 21.8804L93.2733 23.2939L93.9813 22.5878ZM93.9795 22.5864L94.6077 21.8084L94.6041 21.8055L93.9795 22.5864ZM93.9793 22.5863L93.3509 23.3641L93.3546 23.3671L93.9793 22.5863ZM93.7782 22.446L93.239 23.2881L93.239 23.2882L93.7782 22.446ZM93.2367 22.1288L92.7539 23.0046L92.7539 23.0046L93.2367 22.1288ZM92.1965 21.5868L92.6436 20.6923L89.9612 19.3515L91.302 22.0338L92.1965 21.5868ZM92.7385 22.627L93.6143 22.1442L93.6143 22.1442L92.7385 22.627ZM93.0557 23.1685L93.8979 22.6293L93.8978 22.6293L93.0557 23.1685ZM93.1959 23.3696L93.9743 22.7417L93.9739 22.7412L93.1959 23.3696ZM93.1975 23.3716L93.9046 22.6645L92.4901 24.0785L93.1975 23.3716ZM93.1969 24.7665L92.4901 24.0591L92.4901 24.0591L93.1969 24.7665ZM91.8021 24.7659L92.5095 24.0591L92.5095 24.0591L91.8021 24.7659ZM91.3944 24.2321L92.2366 23.6929L92.2366 23.6929L91.3944 24.2321ZM91.1096 23.7558L91.9797 23.2628L90.1096 19.9626V23.7558H91.1096ZM89.137 23.7557H90.137V19.962L88.267 23.2627L89.137 23.7557ZM88.8522 24.232L89.6944 24.7712H89.6944L88.8522 24.232ZM88.4446 24.7659L89.1517 25.473L89.152 25.4727L88.4446 24.7659ZM88.4443 24.7662L87.7372 24.0591L87.7372 24.0591L88.4443 24.7662ZM87.6245 25.314L88.0072 26.2378L88.0072 26.2378L87.6245 25.314ZM85.6905 25.314L85.3078 26.2378L85.3078 26.2378L85.6905 25.314ZM84.8707 24.7662L85.5778 24.0591L85.5778 24.0591L84.8707 24.7662ZM84.323 23.9464L85.2468 23.5637L85.2468 23.5637L84.323 23.9464ZM84.323 22.0124L85.2468 22.3951L85.2468 22.3951L84.323 22.0124ZM84.8707 21.1926L85.5778 21.8998L85.579 21.8986L84.8707 21.1926ZM84.871 21.1924L84.1642 20.4849L84.1627 20.4864L84.871 21.1924ZM85.4048 20.7847L85.944 21.6268L85.944 21.6268L85.4048 20.7847ZM85.8811 20.4999L86.3741 21.3699L89.6737 19.4999H85.8811V20.4999ZM85.8811 18.5273V19.5273H89.6744L86.3741 17.6573L85.8811 18.5273ZM85.4048 18.2425L85.944 17.4004L85.944 17.4003L85.4048 18.2425ZM84.871 17.8349L84.1642 18.5423L84.1642 18.5423L84.871 17.8349ZM84.8704 16.44L84.163 15.7332L84.163 15.7332L84.8704 16.44ZM86.2653 16.4394L85.5585 17.1468L86.9724 15.7323L86.2653 16.4394ZM86.2673 16.441L85.639 17.2189L85.639 17.2189L86.2673 16.441ZM86.4684 16.5812L85.9292 17.4234L85.9293 17.4234L86.4684 16.5812ZM87.0099 16.8984L87.4927 16.0226H87.4927L87.0099 16.8984ZM88.0504 17.4406L87.6033 18.3351L90.286 19.676L88.9449 16.9934L88.0504 17.4406ZM87.5082 16.4003L88.3839 15.9174L88.3839 15.9174L87.5082 16.4003ZM87.191 15.8588L88.0331 15.3195L88.0331 15.3195L87.191 15.8588ZM87.0507 15.6576L87.8285 15.0292L87.8221 15.0213L87.8156 15.0135L87.0507 15.6576ZM87.0506 15.6576L86.272 16.2851L86.2788 16.2935L86.2857 16.3017L87.0506 15.6576ZM87.0491 15.6556L86.3417 16.3624L87.7567 14.9489L87.0491 15.6556ZM87.0497 14.2607L87.7565 14.9681L87.7565 14.9681L87.0497 14.2607ZM88.4446 14.2613L89.152 13.5545L89.152 13.5545L88.4446 14.2613ZM88.8522 14.7951L88.0101 15.3343L88.0101 15.3343L88.8522 14.7951ZM89.137 15.2714L88.267 15.7644L90.137 19.064V15.2714H89.137ZM87.5081 22.627L88.3838 23.1097L88.3838 23.1097L87.5081 22.627ZM88.0502 21.5866L88.9447 22.0336L90.2854 19.351L87.603 20.6921L88.0502 21.5866ZM87.1909 23.1685L88.0331 23.7076L88.0331 23.7076L87.1909 23.1685ZM87.0507 23.3696L86.2727 22.7413L86.2638 22.7523L86.2552 22.7635L87.0507 23.3696ZM87.0506 23.3696L87.828 23.9987L87.8372 23.9873L87.8461 23.9757L87.0506 23.3696ZM87.0491 23.3717L87.7557 24.0793L86.343 22.6636L87.0491 23.3717ZM86.8696 23.4915L87.2523 24.4154L87.2523 24.4154L86.8696 23.4915ZM86.4454 23.4915L86.0627 24.4154L86.0627 24.4154L86.4454 23.4915ZM86.1454 23.1915L85.2215 23.5742L85.2215 23.5742L86.1454 23.1915ZM86.1454 22.7673L87.0693 23.15L87.0693 23.15L86.1454 22.7673ZM86.2672 22.5863L86.8955 23.3644L86.896 23.364L86.2672 22.5863ZM86.2673 22.5862L85.6389 21.8084L85.6386 21.8086L86.2673 22.5862ZM86.4685 22.4459L87.0077 23.2881L87.0077 23.2881L86.4685 22.4459ZM87.01 22.1287L86.5271 21.253L86.5271 21.253L87.01 22.1287ZM86.2653 22.5878L86.9724 23.2949L87.6792 22.5881L86.9727 21.881L86.2653 22.5878ZM86.2656 22.5875L86.9702 23.297L87.6822 22.5899L86.9727 21.8804L86.2656 22.5875ZM85.5684 21.8904L86.2755 21.1832L84.861 22.5972L85.5684 21.8904ZM93.2367 16.8984L93.7195 17.7741L93.7195 17.7741L93.2367 16.8984ZM92.1965 17.4405L91.302 16.9934L89.9612 19.6757L92.6436 18.3349L92.1965 17.4405ZM93.7782 16.5812L94.3174 17.4234L94.3174 17.4234L93.7782 16.5812ZM93.9793 16.441L93.3533 15.6612L93.3509 15.663L93.9793 16.441ZM93.9811 16.4397H92.9811V16.8539L93.274 17.1468L93.9811 16.4397ZM94.6785 17.1371L93.9714 17.8443L95.3859 16.4303L94.6785 17.1371ZM93.1972 15.6559L92.4901 16.363L93.1972 17.0701L93.9043 16.363L93.1972 15.6559ZM92.5001 14.9587L93.2069 14.2513L91.793 15.6658L92.5001 14.9587ZM93.1975 15.6556L92.4907 16.363L93.1978 17.0695L93.9046 16.3627L93.1975 15.6556ZM93.1977 15.6554L93.9799 16.2785L93.9914 16.264L94.0024 16.249L93.1977 15.6554ZM93.1959 15.6576L93.9739 16.286L93.9781 16.2807L93.1959 15.6576ZM93.0557 15.8587L92.2135 15.3195L92.2135 15.3195L93.0557 15.8587ZM92.7385 16.4002L91.8628 15.9174L91.8628 15.9174L92.7385 16.4002ZM93.9811 16.4395L93.6518 15.4953L93.549 15.5311L93.4563 15.5883L93.9811 16.4395ZM71.6096 15.9999C71.6096 12.2004 71.6117 9.45137 71.8936 7.35498C72.1715 5.28736 72.705 4.00496 73.6598 3.05016L72.2456 1.63595C70.8573 3.02429 70.2192 4.79909 69.9114 7.08849C69.6075 9.34912 69.6096 12.2569 69.6096 15.9999H71.6096ZM71.6096 23.9999V15.9999H69.6096V23.9999H71.6096ZM73.6598 36.9497C72.705 35.9949 72.1715 34.7125 71.8936 32.6448C71.6117 30.5484 71.6096 27.7994 71.6096 23.9999H69.6096C69.6096 27.7429 69.6075 30.6507 69.9114 32.9113C70.2192 35.2007 70.8573 36.9755 72.2456 38.3639L73.6598 36.9497ZM86.6096 38.9999C82.8101 38.9999 80.0611 38.9978 77.9647 38.7159C75.897 38.4379 74.6146 37.9045 73.6598 36.9497L72.2456 38.3639C73.634 39.7522 75.4088 40.3903 77.6982 40.6981C79.9588 41.002 82.8666 40.9999 86.6096 40.9999V38.9999ZM94.6096 38.9999H86.6096V40.9999H94.6096V38.9999ZM107.559 36.9497C106.605 37.9045 105.322 38.4379 103.255 38.7159C101.158 38.9978 98.4091 38.9999 94.6096 38.9999V40.9999C98.3526 40.9999 101.26 41.002 103.521 40.6981C105.81 40.3903 107.585 39.7522 108.974 38.3639L107.559 36.9497ZM109.61 23.9999C109.61 27.7994 109.607 30.5484 109.326 32.6448C109.048 34.7125 108.514 35.9949 107.559 36.9497L108.974 38.3639C110.362 36.9755 111 35.2007 111.308 32.9113C111.612 30.6507 111.61 27.7429 111.61 23.9999H109.61ZM109.61 15.9999V23.9999H111.61V15.9999H109.61ZM107.559 3.05016C108.514 4.00497 109.048 5.28736 109.326 7.35498C109.607 9.45137 109.61 12.2004 109.61 15.9999H111.61C111.61 12.2569 111.612 9.34912 111.308 7.08849C111 4.79909 110.362 3.02429 108.974 1.63595L107.559 3.05016ZM94.6096 0.999908C98.4091 0.999908 101.158 1.00203 103.255 1.28388C105.322 1.56187 106.605 2.09536 107.559 3.05016L108.974 1.63595C107.585 0.247606 105.81 -0.390479 103.521 -0.698281C101.26 -1.00222 98.3526 -1.00009 94.6096 -1.00009V0.999908ZM86.6096 0.999908H94.6096V-1.00009H86.6096V0.999908ZM73.6598 3.05016C74.6146 2.09536 75.897 1.56187 77.9647 1.28388C80.0611 1.00203 82.8101 0.999908 86.6096 0.999908V-1.00009C82.8666 -1.00009 79.9588 -1.00222 77.6982 -0.698281C75.4088 -0.390479 73.634 0.247606 72.2456 1.63595L73.6598 3.05016ZM92.1096 9.50112C92.1096 8.40412 91.2203 7.51482 90.1233 7.51482V9.51482C90.1237 9.51482 90.123 9.51484 90.1216 9.51456C90.1203 9.51429 90.1189 9.51386 90.1177 9.51334C90.1153 9.51234 90.1142 9.51132 90.1136 9.51081C90.1131 9.5103 90.1121 9.50913 90.1111 9.50676C90.1106 9.50552 90.1102 9.50416 90.1099 9.50282C90.1096 9.50144 90.1096 9.50076 90.1096 9.50112H92.1096ZM92.1096 15.2714V9.50112H90.1096V15.2714H92.1096ZM90.5522 14.2559C90.4481 14.4185 90.3427 14.5965 90.2396 14.7784L91.9797 15.7644C92.0714 15.6026 92.1578 15.4574 92.2366 15.3343L90.5522 14.2559ZM91.0947 13.5545C90.8592 13.7901 90.6705 14.0711 90.5522 14.2559L92.2366 15.3343C92.3419 15.1699 92.435 15.0427 92.5095 14.9681L91.0947 13.5545ZM91.0952 13.5539L91.0949 13.5542L92.5092 14.9684L92.5095 14.9681L91.0952 13.5539ZM93.5891 12.5209C92.6537 12.5209 91.7567 12.8925 91.0952 13.5539L92.5095 14.9681C92.7958 14.6818 93.1842 14.5209 93.5891 14.5209V12.5209ZM96.083 13.5539C95.4216 12.8925 94.5245 12.5209 93.5891 12.5209V14.5209C93.9941 14.5209 94.3824 14.6818 94.6688 14.9681L96.083 13.5539ZM97.116 16.0478C97.116 15.1124 96.7444 14.2153 96.083 13.5539L94.6688 14.9681C94.9551 15.2545 95.116 15.6428 95.116 16.0478H97.116ZM96.083 18.5417C96.7444 17.8803 97.116 16.9832 97.116 16.0478H95.116C95.116 16.4527 94.9551 16.8411 94.6688 17.1275L96.083 18.5417ZM96.085 18.5396L96.0853 18.5393L94.6665 17.1298L94.6662 17.1301L96.085 18.5396ZM95.381 19.0847C95.5658 18.9664 95.8468 18.7777 96.0824 18.5423L94.6688 17.1274C94.5942 17.2019 94.4671 17.2951 94.3026 17.4003L95.381 19.0847ZM94.8585 19.3973C95.0404 19.2942 95.2185 19.1888 95.381 19.0847L94.3026 17.4004C94.1795 17.4791 94.0343 17.5656 93.8725 17.6573L94.8585 19.3973ZM100.136 17.5273H94.3655V19.5273H100.136V17.5273ZM102.122 19.5136C102.122 18.4166 101.233 17.5273 100.136 17.5273V19.5273C100.136 19.5273 100.135 19.5273 100.134 19.527C100.133 19.5268 100.131 19.5263 100.13 19.5258C100.128 19.5248 100.127 19.5238 100.126 19.5233C100.126 19.5228 100.125 19.5216 100.124 19.5192C100.123 19.518 100.123 19.5166 100.122 19.5153C100.122 19.5139 100.122 19.5132 100.122 19.5136H102.122ZM100.136 21.4999C101.233 21.4999 102.122 20.6106 102.122 19.5136H100.122C100.122 19.514 100.122 19.5133 100.122 19.5119C100.123 19.5106 100.123 19.5092 100.124 19.508C100.125 19.5056 100.126 19.5044 100.126 19.5039C100.127 19.5034 100.128 19.5024 100.13 19.5014C100.131 19.5009 100.133 19.5004 100.134 19.5002C100.135 19.4999 100.136 19.4999 100.136 19.4999V21.4999ZM94.3654 21.4999H100.136V19.4999H94.3654V21.4999ZM95.381 19.9425C95.2184 19.8384 95.0404 19.733 94.8584 19.6299L93.8725 21.3699C94.0343 21.4616 94.1795 21.5481 94.3026 21.6269L95.381 19.9425ZM96.0824 20.4849C95.8468 20.2495 95.5658 20.0608 95.381 19.9425L94.3026 21.6269C94.4671 21.7322 94.5942 21.8253 94.6688 21.8998L96.0824 20.4849ZM96.0836 23.294C96.859 22.518 96.8584 21.2603 96.0824 20.485L94.6688 21.8998C94.6691 21.9 94.6686 21.8995 94.6678 21.8984C94.667 21.8972 94.6664 21.896 94.6659 21.8947C94.6649 21.8923 94.6648 21.8908 94.6648 21.8901C94.6648 21.8893 94.6649 21.8878 94.6659 21.8854C94.6664 21.8842 94.667 21.8829 94.6678 21.8818C94.6686 21.8806 94.6691 21.8801 94.6688 21.8804L96.0836 23.294ZM93.2745 23.2952C94.0506 24.0706 95.3082 24.07 96.0836 23.294L94.6688 21.8804C94.6685 21.8806 94.669 21.8801 94.6702 21.8794C94.6713 21.8786 94.6726 21.878 94.6738 21.8774C94.6762 21.8765 94.6777 21.8764 94.6785 21.8764C94.6792 21.8764 94.6807 21.8765 94.6831 21.8774C94.6844 21.8779 94.6856 21.8786 94.6868 21.8794C94.688 21.8801 94.6884 21.8806 94.6882 21.8804L93.2745 23.2952ZM93.3512 23.3644C93.3514 23.3645 93.3519 23.365 93.3525 23.3655C93.3531 23.3659 93.3542 23.3668 93.3556 23.3679C93.3569 23.369 93.3594 23.371 93.3626 23.3735C93.3651 23.3755 93.3719 23.3808 93.3807 23.3874C93.3852 23.3908 93.393 23.3966 93.4029 23.4036C93.4104 23.4089 93.4311 23.4236 93.4588 23.4405C93.4723 23.4488 93.4988 23.4647 93.5337 23.4822C93.5532 23.492 93.6437 23.538 93.7692 23.5653C93.8284 23.5781 93.9758 23.6056 94.1608 23.5719C94.3762 23.5327 94.6745 23.3988 94.8549 23.0753C95.0107 22.7961 94.9862 22.5346 94.9685 22.4267C94.9488 22.3063 94.9114 22.217 94.8926 22.1756C94.8539 22.0901 94.8116 22.0298 94.7989 22.0118C94.7804 21.9855 94.7643 21.9655 94.7553 21.9545C94.7373 21.9325 94.7222 21.916 94.7162 21.9095C94.7029 21.8952 94.6921 21.8843 94.6894 21.8816L93.2733 23.2939C93.2708 23.2914 93.2601 23.2807 93.2469 23.2664C93.241 23.26 93.2259 23.2436 93.2079 23.2216C93.1989 23.2106 93.1829 23.1906 93.1644 23.1644C93.1517 23.1463 93.1094 23.0861 93.0707 23.0006C93.0519 22.9591 93.0144 22.8699 92.9948 22.7495C92.9771 22.6416 92.9526 22.3801 93.1084 22.1009C93.2888 21.7774 93.5871 21.6435 93.8025 21.6043C93.9875 21.5706 94.1348 21.598 94.194 21.6109C94.3196 21.6382 94.41 21.6842 94.4296 21.694C94.4644 21.7115 94.4909 21.7274 94.5044 21.7356C94.532 21.7526 94.5527 21.7672 94.5602 21.7725C94.57 21.7794 94.5777 21.7852 94.5821 21.7885C94.5999 21.8019 94.6189 21.8174 94.6077 21.8084L93.3512 23.3644ZM93.3546 23.3671L93.3548 23.3672L94.6041 21.8055L94.604 21.8054L93.3546 23.3671ZM93.239 23.2882C93.2908 23.3213 93.3227 23.3436 93.3387 23.3551C93.3466 23.3609 93.3508 23.3641 93.3517 23.3648C93.3519 23.3649 93.3508 23.3641 93.3509 23.3641L94.6077 21.8084C94.5682 21.7764 94.4814 21.7088 94.3174 21.6038L93.239 23.2882ZM92.7539 23.0046C92.9615 23.119 93.1239 23.2144 93.239 23.2881L94.3174 21.6038C94.1513 21.4975 93.9472 21.3786 93.7195 21.2531L92.7539 23.0046ZM91.7494 22.4812C92.114 22.6635 92.4607 22.8429 92.7539 23.0046L93.7195 21.2531C93.3942 21.0737 93.0215 20.8812 92.6436 20.6923L91.7494 22.4812ZM93.6143 22.1442C93.4526 21.851 93.2732 21.5043 93.0909 21.1397L91.302 22.0338C91.4909 22.4118 91.6835 22.7845 91.8628 23.1098L93.6143 22.1442ZM93.8978 22.6293C93.8241 22.5142 93.7287 22.3518 93.6143 22.1442L91.8628 23.1098C91.9883 23.3375 92.1072 23.5416 92.2135 23.7077L93.8978 22.6293ZM93.9739 22.7412C93.9738 22.7411 93.9746 22.7422 93.9745 22.742C93.9738 22.7411 93.9706 22.7369 93.9648 22.729C93.9533 22.713 93.931 22.6811 93.8979 22.6293L92.2135 23.7077C92.3185 23.8717 92.3862 23.9585 92.418 23.9979L93.9739 22.7412ZM92.4904 24.0788C92.4929 24.0813 92.5045 24.0929 92.5197 24.1069C92.5263 24.113 92.5447 24.1299 92.5696 24.15C92.5817 24.1598 92.6058 24.1788 92.638 24.2006C92.6552 24.2122 92.7402 24.2706 92.8631 24.3143C92.9202 24.3346 93.0695 24.383 93.266 24.3696C93.501 24.3535 93.8208 24.2411 94.0306 23.9256C94.2053 23.6627 94.2022 23.4044 94.1956 23.305C94.1878 23.1894 94.1615 23.1013 94.148 23.0604C94.1202 22.9755 94.087 22.9139 94.0769 22.8952C94.0622 22.8682 94.0492 22.8473 94.0419 22.8358C94.0179 22.798 93.9958 22.7693 93.9953 22.7686C93.9893 22.7607 93.9845 22.7545 93.9826 22.7522C93.9803 22.7492 93.9784 22.7469 93.9775 22.7458C93.9765 22.7445 93.9757 22.7434 93.9753 22.7429C93.9748 22.7424 93.9744 22.7419 93.9743 22.7417L92.4176 23.9974C92.4262 24.0081 92.412 23.9908 92.4 23.9748C92.3996 23.9743 92.3776 23.9457 92.3536 23.908C92.3463 23.8965 92.3334 23.8756 92.3187 23.8486C92.3086 23.8299 92.2754 23.7683 92.2476 23.6835C92.2341 23.6425 92.2078 23.5544 92.2 23.4389C92.1934 23.3395 92.1903 23.0812 92.365 22.8183C92.5748 22.5028 92.8946 22.3903 93.1296 22.3743C93.3261 22.3608 93.4754 22.4093 93.5324 22.4296C93.6554 22.4732 93.7404 22.5317 93.7576 22.5433C93.7897 22.565 93.8138 22.5841 93.8259 22.5938C93.8507 22.6139 93.8691 22.6307 93.8757 22.6368C93.8908 22.6507 93.9022 22.6622 93.9046 22.6645L92.4904 24.0788ZM93.9037 25.4739C94.6797 24.6985 94.6803 23.4409 93.9049 22.6648L92.4901 24.0785C92.4903 24.0787 92.4898 24.0783 92.4891 24.0771C92.4883 24.0759 92.4877 24.0747 92.4871 24.0734C92.4862 24.071 92.4861 24.0695 92.4861 24.0688C92.4861 24.068 92.4862 24.0665 92.4871 24.0641C92.4877 24.0629 92.4883 24.0616 92.4891 24.0605C92.4898 24.0593 92.4903 24.0588 92.4901 24.0591L93.9037 25.4739ZM91.0947 25.4727C91.87 26.2487 93.1277 26.2493 93.9037 25.4739L92.4901 24.0591C92.4898 24.0593 92.4903 24.0589 92.4915 24.0581C92.4926 24.0573 92.4939 24.0567 92.4951 24.0562C92.4975 24.0552 92.4991 24.0551 92.4998 24.0551C92.5005 24.0551 92.502 24.0552 92.5044 24.0562C92.5057 24.0567 92.5069 24.0573 92.5081 24.0581C92.5093 24.0589 92.5097 24.0594 92.5095 24.0591L91.0947 25.4727ZM90.5522 24.7713C90.6705 24.9561 90.8592 25.2371 91.0947 25.4727L92.5095 24.0591C92.435 23.9845 92.3419 23.8574 92.2366 23.6929L90.5522 24.7713ZM90.2396 24.2488C90.3427 24.4307 90.4481 24.6088 90.5522 24.7713L92.2366 23.6929C92.1578 23.5698 92.0714 23.4246 91.9797 23.2628L90.2396 24.2488ZM92.1096 29.5261V23.7558H90.1096V29.5261H92.1096ZM90.1233 31.5124C91.2203 31.5124 92.1096 30.6231 92.1096 29.5261H90.1096C90.1096 29.5264 90.1096 29.5257 90.1099 29.5244C90.1102 29.523 90.1106 29.5217 90.1111 29.5204C90.1121 29.5181 90.1131 29.5169 90.1136 29.5164C90.1142 29.5159 90.1153 29.5148 90.1177 29.5138C90.1189 29.5133 90.1203 29.5129 90.1216 29.5126C90.123 29.5123 90.1237 29.5124 90.1233 29.5124V31.5124ZM88.137 29.5261C88.137 30.6231 89.0263 31.5124 90.1233 31.5124V29.5124C90.123 29.5124 90.1236 29.5123 90.125 29.5126C90.1264 29.5129 90.1277 29.5133 90.129 29.5138C90.1313 29.5148 90.1325 29.5159 90.133 29.5164C90.1335 29.5169 90.1345 29.5181 90.1355 29.5204C90.1361 29.5217 90.1365 29.523 90.1368 29.5244C90.1371 29.5257 90.137 29.5264 90.137 29.5261H88.137ZM88.137 23.7557V29.5261H90.137V23.7557H88.137ZM89.6944 24.7712C89.7985 24.6086 89.904 24.4306 90.0071 24.2486L88.267 23.2627C88.1753 23.4246 88.0889 23.5698 88.01 23.6929L89.6944 24.7712ZM89.152 25.4727C89.3875 25.237 89.5761 24.956 89.6944 24.7712L88.0101 23.6929C87.9048 23.8573 87.8116 23.9845 87.7372 24.0591L89.152 25.4727ZM89.1514 25.4733L89.1517 25.473L87.7375 24.0588L87.7372 24.0591L89.1514 25.4733ZM88.0072 26.2378C88.4351 26.0606 88.8239 25.8008 89.1514 25.4733L87.7372 24.0591C87.5954 24.2009 87.4271 24.3133 87.2418 24.3901L88.0072 26.2378ZM86.6575 26.5063C87.1206 26.5063 87.5793 26.4151 88.0072 26.2378L87.2418 24.3901C87.0566 24.4668 86.858 24.5063 86.6575 24.5063V26.5063ZM85.3078 26.2378C85.7357 26.4151 86.1943 26.5063 86.6575 26.5063V24.5063C86.457 24.5063 86.2584 24.4668 86.0732 24.3901L85.3078 26.2378ZM84.1636 25.4733C84.4911 25.8008 84.8799 26.0606 85.3078 26.2378L86.0732 24.3901C85.8879 24.3133 85.7196 24.2009 85.5778 24.0591L84.1636 25.4733ZM83.3991 24.3291C83.5763 24.757 83.8361 25.1458 84.1636 25.4733L85.5778 24.0591C85.436 23.9173 85.3236 23.749 85.2468 23.5637L83.3991 24.3291ZM83.1306 22.9794C83.1306 23.4426 83.2218 23.9012 83.3991 24.3291L85.2468 23.5637C85.1701 23.3785 85.1306 23.1799 85.1306 22.9794H83.1306ZM83.3991 21.6297C83.2218 22.0576 83.1306 22.5163 83.1306 22.9794H85.1306C85.1306 22.7789 85.1701 22.5804 85.2468 22.3951L83.3991 21.6297ZM84.1636 20.4855C83.8361 20.813 83.5763 21.2018 83.3991 21.6297L85.2468 22.3951C85.3236 22.2099 85.436 22.0415 85.5778 21.8998L84.1636 20.4855ZM84.1627 20.4864L84.1625 20.4867L85.579 21.8986L85.5793 21.8983L84.1627 20.4864ZM84.8655 19.9425C84.6808 20.0609 84.3998 20.2495 84.1642 20.4849L85.5778 21.8998C85.6524 21.8253 85.7796 21.7321 85.944 21.6268L84.8655 19.9425ZM85.388 19.6299C85.2061 19.733 85.0281 19.8385 84.8655 19.9425L85.944 21.6268C86.0671 21.548 86.2123 21.4616 86.3741 21.3699L85.388 19.6299ZM80.1109 21.4999H85.8811V19.4999H80.1109V21.4999ZM78.1246 19.5136C78.1246 20.6106 79.0139 21.4999 80.1109 21.4999V19.4999C80.1105 19.4999 80.1112 19.4999 80.1126 19.5002C80.1139 19.5004 80.1153 19.5009 80.1165 19.5014C80.1189 19.5024 80.12 19.5034 80.1206 19.5039C80.1211 19.5044 80.1221 19.5056 80.1231 19.508C80.1236 19.5092 80.124 19.5106 80.1243 19.5119C80.1246 19.5133 80.1246 19.514 80.1246 19.5136H78.1246ZM80.1109 17.5273C79.0139 17.5273 78.1246 18.4166 78.1246 19.5136H80.1246C80.1246 19.5132 80.1246 19.5139 80.1243 19.5153C80.124 19.5166 80.1236 19.518 80.1231 19.5192C80.1221 19.5216 80.1211 19.5228 80.1206 19.5233C80.12 19.5238 80.1189 19.5248 80.1165 19.5258C80.1153 19.5263 80.1139 19.5268 80.1126 19.527C80.1112 19.5273 80.1105 19.5273 80.1109 19.5273V17.5273ZM85.8811 17.5273H80.1109V19.5273H85.8811V17.5273ZM84.8656 19.0847C85.0282 19.1888 85.2062 19.2942 85.3881 19.3973L86.3741 17.6573C86.2123 17.5656 86.0671 17.4791 85.944 17.4004L84.8656 19.0847ZM84.1642 18.5423C84.3999 18.7777 84.6808 18.9664 84.8656 19.0847L85.944 17.4003C85.7796 17.2951 85.6524 17.2019 85.5778 17.1275L84.1642 18.5423ZM84.163 15.7332C83.3876 16.5092 83.3882 17.7669 84.1642 18.5423L85.5778 17.1275C85.5776 17.1272 85.5781 17.1277 85.5788 17.1288C85.5796 17.13 85.5802 17.1312 85.5808 17.1325C85.5817 17.1349 85.5818 17.1364 85.5818 17.1371C85.5818 17.1379 85.5817 17.1394 85.5808 17.1418C85.5803 17.143 85.5796 17.1443 85.5788 17.1454C85.5781 17.1466 85.5776 17.1471 85.5778 17.1468L84.163 15.7332ZM86.9721 15.732C86.1961 14.9567 84.9384 14.9572 84.163 15.7332L85.5778 17.1468C85.5781 17.1466 85.5776 17.1471 85.5764 17.1478C85.5753 17.1486 85.574 17.1493 85.5728 17.1498C85.5704 17.1507 85.5689 17.1508 85.5681 17.1508C85.5674 17.1508 85.5659 17.1507 85.5635 17.1498C85.5622 17.1493 85.561 17.1486 85.5598 17.1479C85.5587 17.1471 85.5582 17.1466 85.5585 17.1468L86.9721 15.732ZM86.8957 15.663C86.8955 15.6629 86.8949 15.6624 86.8944 15.662C86.8938 15.6615 86.8927 15.6607 86.8914 15.6596C86.8902 15.6587 86.8879 15.6568 86.8849 15.6544C86.8825 15.6525 86.8763 15.6476 86.8682 15.6415C86.8675 15.641 86.8387 15.6188 86.8006 15.5947C86.7891 15.5873 86.7681 15.5743 86.7409 15.5596C86.7221 15.5494 86.6602 15.5162 86.5751 15.4884C86.5339 15.475 86.4457 15.4488 86.3301 15.4412C86.2302 15.4347 85.9731 15.4324 85.7114 15.6063C85.3978 15.8148 85.2844 16.1324 85.2675 16.3676C85.2534 16.5642 85.3015 16.7139 85.3218 16.7714C85.3654 16.895 85.4239 16.9805 85.4356 16.9979C85.4574 17.0302 85.4766 17.0545 85.4864 17.0667C85.5066 17.0917 85.5236 17.1103 85.5297 17.1169C85.5439 17.1323 85.5555 17.1439 85.5582 17.1465L86.9724 15.7323C86.9748 15.7348 86.9863 15.7462 87.0004 15.7615C87.0065 15.7681 87.0234 15.7866 87.0436 15.8116C87.0534 15.8238 87.0726 15.8481 87.0943 15.8804C87.106 15.8978 87.1646 15.9832 87.2081 16.1068C87.2284 16.1644 87.2765 16.314 87.2624 16.5107C87.2455 16.7458 87.1322 17.0635 86.8185 17.2719C86.5569 17.4459 86.2997 17.4435 86.1999 17.437C86.0842 17.4294 85.996 17.4032 85.9549 17.3898C85.8698 17.362 85.8079 17.3288 85.7891 17.3186C85.762 17.3039 85.741 17.2909 85.7294 17.2836C85.6915 17.2595 85.6627 17.2374 85.6622 17.237C85.6459 17.2247 85.6285 17.2104 85.639 17.2189L86.8957 15.663ZM87.0077 15.7391C86.9558 15.7059 86.9239 15.6836 86.908 15.6721C86.9 15.6663 86.8958 15.6631 86.8949 15.6624C86.8947 15.6623 86.8957 15.6631 86.8956 15.663L85.639 17.2189C85.6784 17.2508 85.7651 17.3184 85.9292 17.4234L87.0077 15.7391ZM87.4927 16.0226C87.2852 15.9082 87.1228 15.8128 87.0076 15.7391L85.9293 17.4234C86.0953 17.5297 86.2994 17.6486 86.5271 17.7741L87.4927 16.0226ZM88.4975 16.5461C88.1328 16.3638 87.786 16.1843 87.4927 16.0226L86.5271 17.7741C86.8525 17.9535 87.2253 18.1461 87.6033 18.3351L88.4975 16.5461ZM86.6325 16.8831C86.7942 17.1764 86.9737 17.5231 87.156 17.8878L88.9449 16.9934C88.7559 16.6154 88.5633 16.2428 88.3839 15.9174L86.6325 16.8831ZM86.3488 16.398C86.4226 16.5132 86.5181 16.6756 86.6325 16.8831L88.3839 15.9174C88.2583 15.6897 88.1395 15.4856 88.0331 15.3195L86.3488 16.398ZM86.2728 16.2861C86.2729 16.2861 86.272 16.2851 86.2722 16.2853C86.2729 16.2862 86.2761 16.2904 86.2818 16.2983C86.2934 16.3143 86.3156 16.3462 86.3489 16.398L88.0331 15.3195C87.928 15.1554 87.8604 15.0686 87.8285 15.0292L86.2728 16.2861ZM86.2857 16.3017L86.2858 16.3018L87.8156 15.0135L87.8155 15.0134L86.2857 16.3017ZM87.7567 14.9489C87.7541 14.9463 87.7428 14.935 87.7278 14.9211C87.7213 14.9151 87.7034 14.8987 87.6794 14.8791C87.6676 14.8696 87.6446 14.8513 87.6141 14.8304C87.5966 14.8184 87.5186 14.7643 87.4063 14.7214C87.3538 14.7013 87.2218 14.6547 87.0457 14.6553C86.8485 14.6559 86.5239 14.7219 86.2793 15.0167C86.0613 15.2793 86.0464 15.5609 86.0491 15.6778C86.052 15.8065 86.0794 15.9048 86.0929 15.9489C86.1211 16.0408 86.1566 16.1074 86.1667 16.1264C86.1819 16.1549 86.1954 16.1768 86.2029 16.1886C86.2275 16.2277 86.2503 16.2573 86.2507 16.2578C86.2568 16.2659 86.2617 16.2722 86.2636 16.2745C86.2659 16.2775 86.2678 16.2799 86.2688 16.281C86.2698 16.2823 86.2706 16.2834 86.271 16.2839C86.2715 16.2844 86.2719 16.2849 86.272 16.2851L87.8292 15.03C87.8206 15.0193 87.835 15.0369 87.8473 15.0532C87.8475 15.0535 87.8702 15.083 87.8948 15.122C87.9022 15.1339 87.9157 15.1558 87.9309 15.1842C87.941 15.2031 87.9765 15.2697 88.0048 15.3617C88.0183 15.4057 88.0457 15.5041 88.0486 15.6327C88.0512 15.7497 88.0363 16.0312 87.8184 16.2938C87.5738 16.5886 87.2492 16.6547 87.052 16.6553C86.8759 16.6558 86.7438 16.6093 86.6914 16.5892C86.579 16.5462 86.5011 16.4922 86.4836 16.4802C86.4531 16.4593 86.4301 16.441 86.4183 16.4315C86.3943 16.412 86.3765 16.3956 86.37 16.3896C86.3551 16.3758 86.344 16.3646 86.3416 16.3622L87.7567 14.9489ZM86.3429 13.5533C85.5669 14.3287 85.5664 15.5864 86.3417 16.3624L87.7565 14.9487C87.7563 14.9485 87.7568 14.949 87.7576 14.9501C87.7583 14.9513 87.759 14.9525 87.7595 14.9538C87.7604 14.9562 87.7605 14.9577 87.7605 14.9584C87.7605 14.9592 87.7604 14.9607 87.7595 14.9631C87.759 14.9643 87.7583 14.9656 87.7575 14.9667C87.7568 14.9679 87.7563 14.9684 87.7565 14.9681L86.3429 13.5533ZM89.152 13.5545C88.3766 12.7785 87.1189 12.7779 86.3429 13.5533L87.7565 14.9681C87.7568 14.9679 87.7563 14.9684 87.7551 14.9691C87.754 14.9699 87.7527 14.9705 87.7515 14.9711C87.7491 14.972 87.7476 14.9721 87.7468 14.9721C87.7461 14.9721 87.7446 14.972 87.7422 14.9711C87.7409 14.9705 87.7397 14.9699 87.7385 14.9691C87.7374 14.9684 87.7369 14.9679 87.7372 14.9681L89.152 13.5545ZM89.6944 14.2558C89.5761 14.071 89.3874 13.7901 89.152 13.5545L87.7372 14.9681C87.8116 15.0427 87.9048 15.1699 88.0101 15.3343L89.6944 14.2558ZM90.007 14.7783C89.9039 14.5964 89.7984 14.4184 89.6944 14.2558L88.0101 15.3343C88.0889 15.4574 88.1753 15.6026 88.267 15.7644L90.007 14.7783ZM88.137 9.50112V15.2714H90.137V9.50112H88.137ZM90.1233 7.51482C89.0263 7.51482 88.137 8.40412 88.137 9.50112H90.137C90.137 9.50076 90.1371 9.50144 90.1368 9.50282C90.1365 9.50416 90.1361 9.50552 90.1355 9.50676C90.1345 9.50913 90.1335 9.5103 90.133 9.51081C90.1325 9.51132 90.1313 9.51234 90.129 9.51334C90.1277 9.51386 90.1264 9.51429 90.125 9.51456C90.1236 9.51484 90.123 9.51482 90.1233 9.51482V7.51482ZM88.3838 23.1097C88.5632 22.7843 88.7558 22.4116 88.9447 22.0336L87.1557 21.1395C86.9734 21.5042 86.7939 21.851 86.6323 22.1442L88.3838 23.1097ZM88.0331 23.7076C88.1394 23.5416 88.2583 23.3375 88.3838 23.1097L86.6323 22.1442C86.5179 22.3518 86.4224 22.5142 86.3487 22.6293L88.0331 23.7076ZM87.8286 23.9979C87.8605 23.9584 87.9281 23.8717 88.0331 23.7076L86.3487 22.6293C86.3156 22.6811 86.2933 22.713 86.2817 22.729C86.276 22.7369 86.2728 22.7411 86.2721 22.742C86.2719 22.7422 86.2728 22.7412 86.2727 22.7413L87.8286 23.9979ZM87.8461 23.9757L87.8461 23.9756L86.2552 22.7635L86.2552 22.7636L87.8461 23.9757ZM86.343 22.6636C86.3455 22.6611 86.3575 22.6491 86.3735 22.6345C86.3803 22.6282 86.3998 22.6104 86.4264 22.5893C86.4392 22.5791 86.4654 22.5587 86.5004 22.5357C86.5177 22.5244 86.6138 22.4598 86.7531 22.4167C86.8187 22.3964 86.991 22.349 87.2112 22.3852C87.4864 22.4305 87.7752 22.6006 87.9365 22.9115C88.0656 23.1604 88.0525 23.3874 88.0436 23.4742C88.033 23.5775 88.0084 23.6564 87.9951 23.6951C87.9681 23.7742 87.937 23.8318 87.9268 23.8507C87.9125 23.8768 87.8999 23.8971 87.8927 23.9084C87.8689 23.9458 87.8472 23.974 87.8466 23.9749C87.834 23.9915 87.8198 24.0088 87.828 23.9987L86.2733 22.7405C86.2733 22.7406 86.2715 22.7428 86.2697 22.745C86.2687 22.7463 86.2667 22.7487 86.2643 22.7517C86.2624 22.7542 86.2575 22.7604 86.2514 22.7685C86.2506 22.7695 86.2288 22.7979 86.205 22.8353C86.1977 22.8467 86.1851 22.867 86.1709 22.8931C86.1606 22.912 86.1295 22.9696 86.1025 23.0487C86.0893 23.0874 86.0647 23.1663 86.0541 23.2697C86.0451 23.3565 86.032 23.5835 86.1611 23.8324C86.3224 24.1433 86.6113 24.3134 86.8865 24.3587C87.1066 24.3949 87.2789 24.3475 87.3445 24.3272C87.4839 24.2841 87.58 24.2195 87.5973 24.2081C87.6323 24.1851 87.6585 24.1648 87.6713 24.1546C87.6979 24.1334 87.7175 24.1155 87.7244 24.1093C87.7405 24.0945 87.7526 24.0824 87.7553 24.0797L86.343 22.6636ZM87.2523 24.4154C87.4405 24.3374 87.6115 24.2232 87.7557 24.0793L86.3426 22.664C86.3839 22.6227 86.433 22.59 86.4869 22.5676L87.2523 24.4154ZM86.6575 24.5337C86.8616 24.5337 87.0637 24.4935 87.2523 24.4154L86.4869 22.5676C86.541 22.5452 86.599 22.5337 86.6575 22.5337V24.5337ZM86.0627 24.4154C86.2513 24.4935 86.4534 24.5337 86.6575 24.5337V22.5337C86.716 22.5337 86.774 22.5452 86.828 22.5676L86.0627 24.4154ZM85.5584 24.0785C85.7028 24.2228 85.8741 24.3373 86.0627 24.4154L86.8281 22.5676C86.8821 22.59 86.9313 22.6229 86.9727 22.6642L85.5584 24.0785ZM85.2215 23.5742C85.2996 23.7628 85.4141 23.9341 85.5584 24.0785L86.9727 22.6642C87.0141 22.7056 87.0469 22.7548 87.0693 22.8088L85.2215 23.5742ZM85.1032 22.9794C85.1032 23.1835 85.1434 23.3856 85.2215 23.5742L87.0693 22.8088C87.0917 22.8629 87.1032 22.9209 87.1032 22.9794H85.1032ZM85.2215 22.3846C85.1434 22.5732 85.1032 22.7753 85.1032 22.9794H87.1032C87.1032 23.038 87.0917 23.0959 87.0693 23.15L85.2215 22.3846ZM85.5573 21.8815C85.4135 22.0256 85.2994 22.1966 85.2215 22.3846L87.0693 23.15C87.0469 23.2039 87.0142 23.2529 86.973 23.2943L85.5573 21.8815ZM85.639 21.8083C85.6312 21.8146 85.6442 21.804 85.6565 21.7945C85.6596 21.7921 85.6748 21.7805 85.6949 21.7665C85.7032 21.7608 85.7286 21.7432 85.7627 21.7234C85.7789 21.714 85.8141 21.694 85.8609 21.6734C85.8787 21.6655 86.0205 21.5992 86.2146 21.5894C86.3157 21.5843 86.55 21.5875 86.7937 21.7393C87.0834 21.9197 87.2205 22.2034 87.2551 22.4481C87.2839 22.6519 87.2422 22.8113 87.2222 22.8775C87.1985 22.9557 87.1701 23.0147 87.1535 23.0468C87.0995 23.1515 87.0367 23.224 87.0361 23.2248C87.0084 23.2583 86.9841 23.283 86.9828 23.2843L85.5475 21.8915C85.5461 21.8929 85.5216 21.9178 85.494 21.9513C85.4932 21.9521 85.4305 22.0246 85.3764 22.1293C85.3598 22.1615 85.3314 22.2205 85.3078 22.2987C85.2878 22.3648 85.246 22.5242 85.2748 22.7281C85.3094 22.9728 85.4466 23.2564 85.7362 23.4369C85.9799 23.5887 86.2142 23.5919 86.3154 23.5868C86.5095 23.577 86.6513 23.5107 86.6691 23.5028C86.7159 23.4821 86.7511 23.4622 86.7673 23.4528C86.8015 23.4329 86.8269 23.4153 86.8353 23.4095C86.8554 23.3955 86.8707 23.3838 86.874 23.3813C86.8837 23.3738 86.8916 23.3675 86.8918 23.3673C86.8929 23.3664 86.8939 23.3656 86.8943 23.3653C86.8948 23.3649 86.8953 23.3645 86.8955 23.3644L85.639 21.8083ZM85.6386 21.8086L85.6385 21.8087L86.896 23.364L86.896 23.3639L85.6386 21.8086ZM85.9292 21.6038C85.7651 21.7089 85.6784 21.7765 85.6389 21.8084L86.8957 23.3641C86.8958 23.3641 86.8948 23.3649 86.895 23.3647C86.8959 23.364 86.9001 23.3608 86.908 23.3551C86.924 23.3436 86.9559 23.3213 87.0077 23.2881L85.9292 21.6038ZM86.5271 21.253C86.2994 21.3786 86.0953 21.4974 85.9292 21.6038L87.0077 23.2881C87.1229 23.2143 87.2853 23.1189 87.4928 23.0044L86.5271 21.253ZM87.603 20.6921C87.2251 20.8811 86.8524 21.0736 86.5271 21.253L87.4928 23.0044C87.786 22.8428 88.1327 22.6633 88.4973 22.481L87.603 20.6921ZM86.9816 23.2855C86.9806 23.2866 86.977 23.2902 86.9724 23.2949L85.5582 21.8807C85.5534 21.8854 85.5498 21.8892 85.5487 21.8903L86.9816 23.2855ZM85.5609 21.8779C85.5592 21.8796 85.5579 21.881 85.557 21.8818C85.5566 21.8822 85.5562 21.8826 85.556 21.8828C85.5558 21.883 85.5556 21.8832 85.5556 21.8832L86.9747 23.2926C86.9752 23.292 86.9729 23.2943 86.9702 23.297L85.5609 21.8779ZM84.8613 22.5975L85.5584 23.2946L86.9727 21.8804L86.2755 21.1832L84.8613 22.5975ZM86.9727 21.881L86.2758 21.1835L84.861 22.5972L85.5579 23.2946L86.9727 21.881ZM92.7539 16.0226C92.4607 16.1843 92.114 16.3637 91.7494 16.546L92.6436 18.3349C93.0215 18.146 93.3942 17.9535 93.7195 17.7741L92.7539 16.0226ZM93.239 15.7391C93.1239 15.8128 92.9615 15.9082 92.7539 16.0226L93.7195 17.7741C93.9472 17.6486 94.1513 17.5297 94.3174 17.4234L93.239 15.7391ZM93.3509 15.663C93.3509 15.6631 93.3519 15.6623 93.3517 15.6624C93.3508 15.6631 93.3466 15.6663 93.3387 15.6721C93.3227 15.6836 93.2908 15.7059 93.239 15.7391L94.3174 17.4234C94.4815 17.3184 94.5682 17.2508 94.6076 17.2189L93.3509 15.663ZM93.3546 15.6601L93.3533 15.6612L94.6053 17.2208L94.6067 17.2197L93.3546 15.6601ZM93.4557 15.5888L93.4552 15.589L94.5061 17.2907L94.5065 17.2905L93.4557 15.5888ZM92.9811 16.4396V16.4397H94.9811V16.4396H92.9811ZM93.274 17.1468L93.9714 17.8443L95.3856 16.43L94.6882 15.7326L93.274 17.1468ZM95.3859 16.4303L94.6888 15.7326L93.2739 17.1462L93.9711 17.844L95.3859 16.4303ZM93.1434 16.0478C93.1434 15.9297 93.1903 15.8164 93.2737 15.7328L94.689 17.146C94.98 16.8546 95.1434 16.4596 95.1434 16.0478H93.1434ZM93.274 16.363C93.1904 16.2794 93.1434 16.166 93.1434 16.0478H95.1434C95.1434 15.6356 94.9797 15.2402 94.6882 14.9487L93.274 16.363ZM93.5891 16.4935C93.4709 16.4935 93.3575 16.4465 93.274 16.363L94.6882 14.9487C94.3967 14.6573 94.0013 14.4935 93.5891 14.4935V16.4935ZM93.9043 16.363C93.8207 16.4465 93.7073 16.4935 93.5891 16.4935V14.4935C93.1769 14.4935 92.7816 14.6573 92.4901 14.9487L93.9043 16.363ZM91.793 15.6658L92.4901 16.363L93.9043 14.9487L93.2072 14.2516L91.793 15.6658ZM93.9043 14.9482L93.2069 14.2513L91.7933 15.6661L92.4907 16.363L93.9043 14.9482ZM94.0024 16.249C94.0066 16.2434 94.0143 16.2329 94.0236 16.2193C94.0294 16.2107 94.0518 16.1781 94.0759 16.1337C94.0865 16.1144 94.1145 16.062 94.1399 15.9906C94.1526 15.955 94.1741 15.8886 94.1869 15.8023C94.1978 15.7292 94.2169 15.5522 94.1473 15.3416C94.0622 15.0839 93.8616 14.8385 93.555 14.7212C93.303 14.6249 93.0864 14.6572 92.996 14.6759C92.8179 14.7125 92.6949 14.7907 92.6772 14.8015C92.6062 14.8447 92.5563 14.8881 92.5504 14.8931C92.5338 14.9072 92.5211 14.919 92.5151 14.9245C92.5027 14.9361 92.4933 14.9456 92.4904 14.9485L93.9046 16.3627C93.9019 16.3654 93.8926 16.3747 93.8802 16.3862C93.8743 16.3917 93.8617 16.4034 93.8451 16.4175C93.8392 16.4225 93.7893 16.4658 93.7183 16.5091C93.7007 16.5198 93.5777 16.598 93.3996 16.6347C93.3092 16.6533 93.0926 16.6857 92.8406 16.5893C92.534 16.4721 92.3334 16.2267 92.2483 15.9689C92.1787 15.7584 92.1978 15.5814 92.2087 15.5083C92.2215 15.422 92.243 15.3556 92.2557 15.32C92.2811 15.2486 92.3091 15.1962 92.3197 15.1769C92.3438 15.1325 92.3661 15.0999 92.372 15.0914C92.3812 15.0779 92.3889 15.0674 92.393 15.0618L94.0024 16.249ZM93.9781 16.2807L93.9799 16.2785L92.4155 15.0324L92.4138 15.0346L93.9781 16.2807ZM93.8978 16.3979C93.931 16.3461 93.9533 16.3142 93.9648 16.2983C93.9706 16.2903 93.9738 16.2861 93.9745 16.2852C93.9746 16.285 93.9738 16.2861 93.9739 16.286L92.418 15.0293C92.3862 15.0687 92.3185 15.1555 92.2135 15.3195L93.8978 16.3979ZM93.6143 16.883C93.7287 16.6755 93.8241 16.5131 93.8979 16.3979L92.2135 15.3195C92.1072 15.4856 91.9884 15.6897 91.8628 15.9174L93.6143 16.883ZM93.0909 17.8876C93.2732 17.5229 93.4526 17.1762 93.6143 16.883L91.8628 15.9174C91.6835 16.2427 91.4909 16.6154 91.302 16.9934L93.0909 17.8876ZM93.3533 15.6611L93.3529 15.6615L94.6084 17.2183L94.6088 17.2179L93.3533 15.6611ZM93.456 15.5886L92.712 16.0471L93.7614 17.7497L94.5053 17.2912L93.456 15.5886ZM93.7614 17.7496L94.5058 17.2908L93.4563 15.5883L92.712 16.0471L93.7614 17.7496ZM93.6521 15.4952L93.6518 15.4953L94.3103 17.3838L94.3106 17.3837L93.6521 15.4952ZM93.4554 15.5889L93.4551 15.5891L94.507 17.2901L94.5073 17.2899L93.4554 15.5889ZM92.9811 16.4395V16.4396H94.9811V16.4395H92.9811Z" fill="black" fill-opacity="0.2" mask="url(#path-1-inside-1_193_473)"/>
<path d="M61.7976 73.2096C60.7232 73.2096 59.5988 73.272 58.4244 73.3969C58.3744 73.322 58.337 73.1721 58.312 72.9472C58.312 72.7223 58.3495 72.5599 58.4244 72.46C58.8992 72.46 59.2739 72.41 59.5488 72.31C59.8236 72.2101 59.9736 72.1226 59.9985 72.0477C60.1235 71.6979 60.1859 70.9233 60.1859 69.724V61.1786C60.1859 60.9788 60.161 60.6789 60.111 60.2791C60.061 59.8794 60.011 59.6295 59.9611 59.5296C59.8361 59.2797 59.4114 59.1298 58.6868 59.0798C58.5369 59.0548 58.4369 59.0423 58.3869 59.0423C58.3619 59.0173 58.3495 58.8924 58.3495 58.6675C58.3495 58.4177 58.3744 58.2927 58.4244 58.2927C59.3739 58.2178 60.2984 58.0429 61.1979 57.768C62.0974 57.4682 62.7845 57.2058 63.2593 56.9809C63.3592 57.0059 63.4467 57.0684 63.5216 57.1683C63.6216 57.2683 63.659 57.3557 63.6341 57.4307C63.6341 57.4807 63.5966 57.5806 63.5216 57.7305C63.4716 57.8555 63.4467 57.9929 63.4467 58.1428C63.4467 58.2677 63.4592 58.3552 63.4841 58.4052C63.5091 58.4302 63.6216 58.3302 63.8215 58.1053C64.0213 57.8805 64.3587 57.6306 64.8334 57.3557C65.3081 57.0559 65.8329 56.906 66.4075 56.906C66.9822 56.906 67.5569 57.0559 68.1316 57.3557C68.7313 57.6556 69.2435 58.0554 69.6682 58.5551C70.5428 59.5545 70.98 60.7789 70.98 62.2281C70.98 64.0021 70.3054 65.4763 68.9561 66.6506C67.7818 67.6751 66.4325 68.1873 64.9084 68.1873C64.5585 68.1873 64.2462 68.1498 63.9714 68.0749C63.6965 67.9999 63.5341 67.9624 63.4841 67.9624C63.4342 67.9624 63.4092 68.0999 63.4092 68.3747V69.724C63.4092 70.9233 63.4716 71.6979 63.5966 72.0477C63.6965 72.3225 64.2212 72.46 65.1707 72.46C65.2457 72.5599 65.2707 72.7223 65.2457 72.9472C65.2457 73.1721 65.2207 73.322 65.1707 73.3969C63.9714 73.272 62.847 73.2096 61.7976 73.2096ZM63.4092 65.6387C63.4092 66.1384 63.5841 66.5132 63.9339 66.7631C64.2837 66.988 64.6085 67.1004 64.9084 67.1004C65.2332 67.1004 65.533 67.0254 65.8079 66.8755C66.0827 66.7256 66.3326 66.4882 66.5575 66.1634C67.1321 65.3888 67.4195 64.3644 67.4195 63.0901C67.4195 61.8158 67.2321 60.7789 66.8573 59.9793C66.4825 59.1548 65.7829 58.7425 64.7584 58.7425C64.3087 58.7425 63.9714 58.8424 63.7465 59.0423C63.5216 59.2422 63.4092 59.3671 63.4092 59.4171V65.6387ZM76.3357 68.1123C75.0864 67.9874 73.9495 67.9249 72.9251 67.9249C71.9256 67.9249 70.8012 67.9874 69.5519 68.1123C69.5019 68.0374 69.477 67.8875 69.477 67.6626C69.477 67.4377 69.5019 67.2753 69.5519 67.1754C70.0766 67.1754 70.4639 67.1254 70.7138 67.0254C70.9636 66.9005 71.1011 66.8006 71.1261 66.7256C71.251 66.4757 71.3134 66.1634 71.3134 65.7886C71.3384 65.4138 71.3509 64.9516 71.3509 64.4019V54.2075C71.3509 53.6578 71.3134 53.308 71.2385 53.158C71.1635 52.9831 71.0511 52.8707 70.9012 52.8207C70.7762 52.7708 70.6388 52.7333 70.4889 52.7083C70.1391 52.6083 69.8767 52.5584 69.7018 52.5584C69.6519 52.5584 69.6144 52.4459 69.5894 52.2211C69.5894 51.9712 69.6269 51.8213 69.7018 51.7713C71.3759 51.5964 72.8376 51.3091 74.0869 50.9093C74.3118 50.8343 74.4367 50.7968 74.4617 50.7968C74.6366 50.8468 74.7616 50.9967 74.8365 51.2466C74.7865 51.5464 74.7366 51.8338 74.6866 52.1086C74.6116 52.4834 74.5742 53.0331 74.5742 53.7577V64.4019C74.5742 65.6512 74.6116 66.3758 74.6866 66.5757C74.7616 66.7506 74.8615 66.8755 74.9864 66.9505C75.1364 67.0005 75.2863 67.0504 75.4362 67.1004C75.711 67.1504 76.0109 67.1754 76.3357 67.1754C76.3857 67.2753 76.4107 67.4377 76.4107 67.6626C76.4107 67.8875 76.3857 68.0374 76.3357 68.1123ZM79.3083 66.4633C79.6331 66.4633 79.883 66.4008 80.0579 66.2759C80.2578 66.1259 80.3577 66.0135 80.3577 65.9385V62.4904C80.0828 62.6154 79.7955 62.7403 79.4957 62.8652C79.2208 62.9652 78.9335 63.1151 78.6336 63.315C78.0839 63.6898 77.8091 64.1895 77.8091 64.8142C77.8341 65.4388 78.009 65.8761 78.3338 66.1259C78.6586 66.3508 78.9835 66.4633 79.3083 66.4633ZM84.8552 66.0885C84.9802 66.1634 85.0426 66.2759 85.0426 66.4258C85.0426 66.5757 85.0051 66.7256 84.9302 66.8755C84.7803 67.0254 84.5179 67.2253 84.1431 67.4752C83.4685 67.9249 82.9063 68.1498 82.4565 68.1498C82.0068 68.1498 81.5945 68.0249 81.2197 67.775C80.8699 67.5002 80.6325 67.2128 80.5076 66.913C80.1578 67.2628 79.6581 67.5626 79.0084 67.8125C78.3838 68.0624 77.8965 68.1873 77.5467 68.1873C77.1969 68.1873 76.8221 68.0999 76.4224 67.9249C76.0226 67.75 75.6853 67.5252 75.4104 67.2503C74.7858 66.6257 74.4734 66.001 74.4734 65.3763C74.4734 64.7517 74.5984 64.2645 74.8482 63.9146C75.1231 63.5399 75.3979 63.315 75.6728 63.24C75.9726 63.1401 76.3099 63.0151 76.6847 62.8652C77.0845 62.7153 77.5093 62.5529 77.959 62.378C78.5337 62.1781 79.3333 61.8783 80.3577 61.4785V60.3166C80.3577 59.692 80.2203 59.1298 79.9454 58.63C79.6706 58.1053 79.3083 57.843 78.8585 57.843C78.4088 57.843 78.0839 58.0429 77.8841 58.4426C77.7091 58.8424 77.5842 59.2547 77.5093 59.6795C77.3094 60.554 76.8221 60.9913 76.0476 60.9913C75.7227 60.9913 75.4229 60.8913 75.1481 60.6914C74.8982 60.4665 74.7733 60.2292 74.7733 59.9793C74.7733 59.6295 74.8857 59.2297 75.1106 58.78C75.3854 58.5051 75.8352 58.2053 76.4598 57.8805C77.7341 57.2308 78.871 56.906 79.8705 56.906C80.8949 56.906 81.7569 57.2558 82.4565 57.9554C83.1811 58.655 83.5435 59.567 83.5435 60.6914V65.3014C83.5435 65.6512 83.6059 65.9136 83.7308 66.0885C83.8558 66.2384 83.9932 66.3133 84.1431 66.3133C84.318 66.3133 84.4679 66.2759 84.5929 66.2009L84.8552 66.0885ZM83.3516 58.2553C83.5515 57.9804 83.8138 57.7056 84.1386 57.4307H85.2256V56.1189C85.7003 55.6942 86.15 55.2444 86.5748 54.7697C87.0246 54.2949 87.4368 53.8702 87.8116 53.4954C87.9616 53.3954 88.099 53.3579 88.2239 53.3829C88.3488 53.3829 88.4238 53.4204 88.4488 53.4954V57.4307H91.2597C91.3597 57.4307 91.4097 57.5556 91.4097 57.8055C91.4097 58.0304 91.2223 58.2927 90.8475 58.5926H88.4488V64.7017C88.4488 65.951 88.8985 66.5757 89.798 66.5757C90.0729 66.5757 90.3477 66.5007 90.6226 66.3508C90.8974 66.1759 91.0599 66.0635 91.1098 66.0135C91.2098 66.1134 91.2597 66.2009 91.2597 66.2759C91.2597 66.5007 91.2098 66.6631 91.1098 66.7631C91.0349 66.863 90.9099 66.988 90.735 67.1379C90.5851 67.2878 90.3977 67.4377 90.1728 67.5876C89.5232 67.9874 88.9735 68.1873 88.5237 68.1873C88.099 68.1873 87.6867 68.1248 87.2869 67.9999C86.9121 67.9 86.5748 67.7001 86.275 67.4002C85.5754 66.7756 85.2256 65.8261 85.2256 64.5518V58.5926H83.464C83.3891 58.5426 83.3516 58.4302 83.3516 58.2553ZM94.9624 66.4633C95.2873 66.4633 95.5371 66.4008 95.712 66.2759C95.9119 66.1259 96.0119 66.0135 96.0119 65.9385V62.4904C95.737 62.6154 95.4497 62.7403 95.1498 62.8652C94.875 62.9652 94.5876 63.1151 94.2878 63.315C93.7381 63.6898 93.4633 64.1895 93.4633 64.8142C93.4882 65.4388 93.6632 65.8761 93.988 66.1259C94.3128 66.3508 94.6376 66.4633 94.9624 66.4633ZM100.509 66.0885C100.634 66.1634 100.697 66.2759 100.697 66.4258C100.697 66.5757 100.659 66.7256 100.584 66.8755C100.434 67.0254 100.172 67.2253 99.7973 67.4752C99.1227 67.9249 98.5605 68.1498 98.1107 68.1498C97.661 68.1498 97.2487 68.0249 96.8739 67.775C96.5241 67.5002 96.2867 67.2128 96.1618 66.913C95.812 67.2628 95.3122 67.5626 94.6626 67.8125C94.0379 68.0624 93.5507 68.1873 93.2009 68.1873C92.8511 68.1873 92.4763 68.0999 92.0765 67.9249C91.6767 67.75 91.3394 67.5252 91.0646 67.2503C90.4399 66.6257 90.1276 66.001 90.1276 65.3763C90.1276 64.7517 90.2525 64.2645 90.5024 63.9146C90.7772 63.5399 91.0521 63.315 91.3269 63.24C91.6268 63.1401 91.9641 63.0151 92.3389 62.8652C92.7387 62.7153 93.1634 62.5529 93.6132 62.378C94.1879 62.1781 94.9874 61.8783 96.0119 61.4785V60.3166C96.0119 59.692 95.8744 59.1298 95.5996 58.63C95.3247 58.1053 94.9624 57.843 94.5127 57.843C94.0629 57.843 93.7381 58.0429 93.5382 58.4426C93.3633 58.8424 93.2384 59.2547 93.1634 59.6795C92.9635 60.554 92.4763 60.9913 91.7017 60.9913C91.3769 60.9913 91.0771 60.8913 90.8022 60.6914C90.5524 60.4665 90.4274 60.2292 90.4274 59.9793C90.4274 59.6295 90.5399 59.2297 90.7647 58.78C91.0396 58.5051 91.4893 58.2053 92.114 57.8805C93.3883 57.2308 94.5252 56.906 95.5246 56.906C96.5491 56.906 97.4111 57.2558 98.1107 57.9554C98.8353 58.655 99.1976 59.567 99.1976 60.6914V65.3014C99.1976 65.6512 99.2601 65.9136 99.385 66.0885C99.5099 66.2384 99.6474 66.3133 99.7973 66.3133C99.9722 66.3133 100.122 66.2759 100.247 66.2009L100.509 66.0885ZM100.243 67.1754C100.442 66.7256 100.542 65.7511 100.542 64.252V54.2075C100.542 53.6578 100.505 53.308 100.43 53.158C100.355 52.9831 100.255 52.8707 100.13 52.8207C100.005 52.7708 99.8553 52.7333 99.6804 52.7083C99.3056 52.6083 99.0432 52.5584 98.8933 52.5584C98.8433 52.5584 98.8183 52.4459 98.8183 52.2211C98.7934 51.9712 98.8183 51.8213 98.8933 51.7713C100.293 51.6464 101.417 51.459 102.266 51.2091C103.141 50.9343 103.603 50.7968 103.653 50.7968C103.828 50.8468 103.953 50.9967 104.028 51.2466C103.853 51.9462 103.766 52.7708 103.766 53.7202V57.7305C103.766 57.7805 103.766 57.868 103.766 57.9929C103.791 58.0928 103.841 58.1178 103.916 58.0679C104.015 57.9929 104.153 57.8929 104.328 57.768C104.528 57.6431 104.74 57.5057 104.965 57.3557C105.465 57.0559 106.002 56.906 106.577 56.906C107.151 56.906 107.751 57.0434 108.376 57.3183C109 57.5681 109.55 57.9304 110.025 58.4052C110.999 59.3796 111.486 60.6289 111.486 62.1531C111.486 64.0271 110.787 65.5263 109.388 66.6506C108.163 67.6751 106.652 68.1873 104.853 68.1873C104.203 68.1873 103.603 68.0999 103.054 67.9249C102.504 67.7251 102.042 67.6251 101.667 67.6251C101.292 67.6251 101.017 67.6876 100.842 67.8125C100.792 67.8125 100.68 67.7376 100.505 67.5876C100.33 67.4127 100.243 67.2753 100.243 67.1754ZM105.115 58.7425C104.615 58.7425 104.19 58.9174 103.841 59.2672C103.791 59.3172 103.766 59.3921 103.766 59.4921V65.5637C103.766 65.9885 103.903 66.3508 104.178 66.6506C104.478 66.9505 104.853 67.1004 105.302 67.1004C105.752 67.1004 106.127 66.988 106.427 66.7631C106.751 66.5132 107.026 66.2009 107.251 65.8261C107.701 65.0265 107.926 64.1395 107.926 63.1651C107.926 61.466 107.651 60.3041 107.101 59.6795C106.552 59.0548 105.889 58.7425 105.115 58.7425ZM116.72 68.1123C115.471 67.9874 114.334 67.9249 113.309 67.9249C112.31 67.9249 111.186 67.9874 109.936 68.1123C109.886 68.0374 109.861 67.8875 109.861 67.6626C109.861 67.4377 109.886 67.2753 109.936 67.1754C110.461 67.1754 110.848 67.1254 111.098 67.0254C111.348 66.9005 111.485 66.8006 111.51 66.7256C111.635 66.4757 111.698 66.1634 111.698 65.7886C111.723 65.4138 111.735 64.9516 111.735 64.4019V54.2075C111.735 53.6578 111.698 53.308 111.623 53.158C111.548 52.9831 111.436 52.8707 111.286 52.8207C111.161 52.7708 111.023 52.7333 110.873 52.7083C110.524 52.6083 110.261 52.5584 110.086 52.5584C110.036 52.5584 109.999 52.4459 109.974 52.2211C109.974 51.9712 110.011 51.8213 110.086 51.7713C111.76 51.5964 113.222 51.3091 114.471 50.9093C114.696 50.8343 114.821 50.7968 114.846 50.7968C115.021 50.8468 115.146 50.9967 115.221 51.2466C115.171 51.5464 115.121 51.8338 115.071 52.1086C114.996 52.4834 114.959 53.0331 114.959 53.7577V64.4019C114.959 65.6512 114.996 66.3758 115.071 66.5757C115.146 66.7506 115.246 66.8755 115.371 66.9505C115.521 67.0005 115.671 67.0504 115.821 67.1004C116.095 67.1504 116.395 67.1754 116.72 67.1754C116.77 67.2753 116.795 67.4377 116.795 67.6626C116.795 67.8875 116.77 68.0374 116.72 68.1123ZM118.119 61.0287C118.169 61.0287 118.331 61.0287 118.606 61.0287C118.906 61.0037 119.23 60.9788 119.58 60.9538C120.38 60.9288 120.955 60.8913 121.304 60.8413C121.529 60.8163 121.642 60.6789 121.642 60.4291C121.642 60.1542 121.617 59.8669 121.567 59.567C121.517 59.2672 121.429 59.0048 121.304 58.78C121.029 58.2303 120.667 57.9554 120.217 57.9554C119.793 57.9554 119.455 58.0803 119.205 58.3302C118.956 58.5551 118.743 58.8299 118.568 59.1548C118.268 59.8044 118.119 60.4291 118.119 61.0287ZM124.04 61.7034C122.541 61.8283 120.567 61.9282 118.119 62.0032C118.119 63.5274 118.543 64.6517 119.393 65.3763C120.043 65.9011 120.742 66.1634 121.492 66.1634C122.266 66.1634 122.866 66.026 123.291 65.7511C123.715 65.4763 124.065 65.2014 124.34 64.9266C124.54 64.9766 124.64 65.114 124.64 65.3389C124.64 65.5637 124.59 65.7511 124.49 65.9011C124.415 66.026 124.253 66.2259 124.003 66.5007C123.753 66.7506 123.441 67.0005 123.066 67.2503C122.116 67.9 121.204 68.2248 120.33 68.2248C119.455 68.2248 118.706 68.1123 118.081 67.8875C117.456 67.6376 116.907 67.2878 116.432 66.838C115.408 65.8636 114.895 64.6018 114.895 63.0526C114.895 61.4535 115.445 60.0543 116.544 58.8549C117.719 57.5806 118.993 56.9435 120.367 56.9435C121.842 56.9435 122.966 57.3807 123.74 58.2553C124.39 58.9549 124.715 59.7669 124.715 60.6914C124.715 60.9663 124.652 61.2036 124.528 61.4035C124.403 61.6034 124.24 61.7034 124.04 61.7034Z" fill="#1D1B1E"/>
<defs>
<linearGradient id="paint0_linear_193_473" x1="108.11" y1="2.24991" x2="70.6096" y2="36.2499" gradientUnits="userSpaceOnUse">
<stop stop-color="#1D1B1E"/>
<stop offset="1" stop-color="#1D1B1E"/>
</linearGradient>
</defs>
</svg>
