<svg width="45" height="44" viewBox="0 0 45 44" fill="none" xmlns="http://www.w3.org/2000/svg">
<g filter="url(#filter0_d_193_760)">
<mask id="path-1-inside-1_193_760" fill="white">
<path fill-rule="evenodd" clip-rule="evenodd" d="M4.59315 2.34315C2.25 4.68629 2.25 8.45753 2.25 16V24C2.25 31.5425 2.25 35.3137 4.59315 37.6569C6.93629 40 10.7075 40 18.25 40H26.25C33.7925 40 37.5637 40 39.9069 37.6569C42.25 35.3137 42.25 31.5425 42.25 24V16C42.25 8.45753 42.25 4.68629 39.9069 2.34315C37.5637 0 33.7925 0 26.25 0H18.25C10.7075 0 6.93629 0 4.59315 2.34315ZM21.75 8.5C22.3023 8.5 22.75 8.94771 22.75 9.5V15.2068C22.8378 15.0532 22.9242 14.9086 23.007 14.7793C23.1187 14.6048 23.2602 14.3998 23.4161 14.2437L23.4164 14.2434C23.8925 13.7673 24.5382 13.4998 25.2115 13.4998C25.8848 13.4998 26.5306 13.7673 27.0066 14.2434C27.4827 14.7195 27.7502 15.3652 27.7502 16.0385C27.7502 16.7118 27.4827 17.3575 27.0066 17.8336L27.0064 17.8339C26.8502 17.9899 26.6452 18.1313 26.4707 18.2431C26.3414 18.3258 26.1969 18.4122 26.0433 18.5H31.75C32.3023 18.5 32.75 18.9477 32.75 19.5C32.75 20.0523 32.3023 20.5 31.75 20.5H26.0434C26.1969 20.5878 26.3415 20.6742 26.4707 20.7569C26.6452 20.8687 26.8502 21.0101 27.0064 21.1661C27.397 21.5564 27.3973 22.1896 27.0069 22.5803C26.6166 22.971 25.9834 22.9712 25.5927 22.5809C25.5938 22.5819 25.5931 22.5814 25.5904 22.5792L25.5903 22.5792C25.5776 22.5689 25.521 22.5237 25.3923 22.4413C25.2523 22.3516 25.0696 22.2448 24.8524 22.125C24.5548 21.961 24.2105 21.7826 23.854 21.604C24.0326 21.9604 24.2111 22.3048 24.3751 22.6023C24.4948 22.8195 24.6017 23.0022 24.6913 23.1422C24.7737 23.2709 24.819 23.3275 24.8292 23.3402L24.8293 23.3403C24.8314 23.343 24.832 23.3437 24.8309 23.3427C25.2213 23.7334 25.221 24.3665 24.8304 24.7569C24.4397 25.1472 23.8065 25.147 23.4161 24.7563C23.2602 24.6002 23.1187 24.3952 23.007 24.2206C22.9242 24.0914 22.8378 23.9468 22.75 23.7932V29.5C22.75 30.0523 22.3023 30.5 21.75 30.5C21.1977 30.5 20.75 30.0523 20.75 29.5V23.7933C20.6622 23.9468 20.5759 24.0914 20.4931 24.2206C20.3814 24.3951 20.24 24.6002 20.0839 24.7563L20.0836 24.7566C19.8479 24.9923 19.5681 25.1793 19.26 25.3069C18.952 25.4345 18.6219 25.5001 18.2885 25.5001C17.9552 25.5001 17.625 25.4345 17.317 25.3069C17.009 25.1793 16.7292 24.9923 16.4934 24.7566C16.2577 24.5209 16.0707 24.241 15.9431 23.933C15.8155 23.625 15.7499 23.2949 15.7499 22.9615C15.7499 22.6281 15.8155 22.298 15.9431 21.99C16.0707 21.682 16.2577 21.4021 16.4934 21.1664L16.4937 21.1661C16.6498 21.0101 16.8548 20.8687 17.0293 20.7569C17.1586 20.6742 17.3031 20.5878 17.4566 20.5H11.75C11.1977 20.5 10.75 20.0523 10.75 19.5C10.75 18.9477 11.1977 18.5 11.75 18.5H17.4568C17.3032 18.4122 17.1586 18.3258 17.0294 18.2431C16.8548 18.1313 16.6499 17.9899 16.4937 17.8339C16.103 17.4435 16.1028 16.8104 16.4931 16.4197C16.8835 16.029 17.5167 16.0287 17.9074 16.4191C17.9067 16.4184 17.9067 16.4184 17.9076 16.419C17.908 16.4194 17.9088 16.42 17.9098 16.4208L17.9098 16.4208L17.9098 16.4208C17.9226 16.4311 17.9792 16.4764 18.1078 16.5587C18.2478 16.6484 18.4305 16.7552 18.6477 16.8749C18.9453 17.039 19.2898 17.2175 19.6463 17.3961C19.4677 17.0396 19.2892 16.6953 19.1251 16.3977C19.0053 16.1805 18.8985 15.9978 18.8088 15.8578C18.7264 15.729 18.6811 15.6724 18.6709 15.6597L18.6709 15.6597L18.6708 15.6596C18.6687 15.657 18.6681 15.6563 18.6691 15.6573C18.2788 15.2666 18.279 14.6334 18.6697 14.2431C19.0604 13.8527 19.6936 13.853 20.0839 14.2437C20.2399 14.3998 20.3813 14.6047 20.4931 14.7793C20.5758 14.9085 20.6622 15.053 20.75 15.2065V9.5C20.75 8.94771 21.1977 8.5 21.75 8.5ZM19.6461 21.6038C19.4674 21.9603 19.289 22.3047 19.125 22.6022C19.0052 22.8195 18.8984 23.0022 18.8087 23.1423C18.7264 23.2709 18.6811 23.3275 18.6709 23.3402C18.6687 23.343 18.6681 23.3437 18.6691 23.3427C18.6192 23.3926 18.5599 23.4321 18.4947 23.4591C18.4293 23.4862 18.3593 23.5001 18.2885 23.5001C18.2178 23.5001 18.1478 23.4862 18.0824 23.4591C18.0171 23.4321 17.9577 23.3924 17.9076 23.3424C17.8576 23.2924 17.818 23.233 17.7909 23.1676C17.7638 23.1023 17.7499 23.0322 17.7499 22.9615C17.7499 22.8907 17.7638 22.8207 17.7909 22.7553C17.8179 22.6902 17.8574 22.631 17.9072 22.581C17.9064 22.5818 17.9072 22.5812 17.9097 22.5792L17.9098 22.5792C17.9225 22.569 17.9791 22.5236 18.1078 22.4412C18.2479 22.3515 18.4306 22.2447 18.6478 22.1249C18.9453 21.9609 19.2896 21.7824 19.6461 21.6038ZM23.854 17.396C24.2105 17.2174 24.5548 17.039 24.8524 16.8749C25.0696 16.7552 25.2523 16.6484 25.3923 16.5587C25.521 16.4763 25.5776 16.431 25.5903 16.4208C25.5931 16.4186 25.5938 16.418 25.5927 16.4191C25.6936 16.3181 25.7502 16.1812 25.7502 16.0385C25.7502 15.8956 25.6935 15.7586 25.5924 15.6576C25.4914 15.5566 25.3544 15.4998 25.2115 15.4998C25.0689 15.4998 24.9321 15.5564 24.8311 15.6571C24.8319 15.6563 24.8313 15.6571 24.8292 15.6597L24.8292 15.6597C24.819 15.6725 24.7737 15.729 24.6913 15.8577C24.6017 15.9977 24.4948 16.1805 24.3751 16.3977C24.2111 16.6952 24.0326 17.0395 23.854 17.396Z"/>
</mask>
<path fill-rule="evenodd" clip-rule="evenodd" d="M4.59315 2.34315C2.25 4.68629 2.25 8.45753 2.25 16V24C2.25 31.5425 2.25 35.3137 4.59315 37.6569C6.93629 40 10.7075 40 18.25 40H26.25C33.7925 40 37.5637 40 39.9069 37.6569C42.25 35.3137 42.25 31.5425 42.25 24V16C42.25 8.45753 42.25 4.68629 39.9069 2.34315C37.5637 0 33.7925 0 26.25 0H18.25C10.7075 0 6.93629 0 4.59315 2.34315ZM21.75 8.5C22.3023 8.5 22.75 8.94771 22.75 9.5V15.2068C22.8378 15.0532 22.9242 14.9086 23.007 14.7793C23.1187 14.6048 23.2602 14.3998 23.4161 14.2437L23.4164 14.2434C23.8925 13.7673 24.5382 13.4998 25.2115 13.4998C25.8848 13.4998 26.5306 13.7673 27.0066 14.2434C27.4827 14.7195 27.7502 15.3652 27.7502 16.0385C27.7502 16.7118 27.4827 17.3575 27.0066 17.8336L27.0064 17.8339C26.8502 17.9899 26.6452 18.1313 26.4707 18.2431C26.3414 18.3258 26.1969 18.4122 26.0433 18.5H31.75C32.3023 18.5 32.75 18.9477 32.75 19.5C32.75 20.0523 32.3023 20.5 31.75 20.5H26.0434C26.1969 20.5878 26.3415 20.6742 26.4707 20.7569C26.6452 20.8687 26.8502 21.0101 27.0064 21.1661C27.397 21.5564 27.3973 22.1896 27.0069 22.5803C26.6166 22.971 25.9834 22.9712 25.5927 22.5809C25.5938 22.5819 25.5931 22.5814 25.5904 22.5792L25.5903 22.5792C25.5776 22.5689 25.521 22.5237 25.3923 22.4413C25.2523 22.3516 25.0696 22.2448 24.8524 22.125C24.5548 21.961 24.2105 21.7826 23.854 21.604C24.0326 21.9604 24.2111 22.3048 24.3751 22.6023C24.4948 22.8195 24.6017 23.0022 24.6913 23.1422C24.7737 23.2709 24.819 23.3275 24.8292 23.3402L24.8293 23.3403C24.8314 23.343 24.832 23.3437 24.8309 23.3427C25.2213 23.7334 25.221 24.3665 24.8304 24.7569C24.4397 25.1472 23.8065 25.147 23.4161 24.7563C23.2602 24.6002 23.1187 24.3952 23.007 24.2206C22.9242 24.0914 22.8378 23.9468 22.75 23.7932V29.5C22.75 30.0523 22.3023 30.5 21.75 30.5C21.1977 30.5 20.75 30.0523 20.75 29.5V23.7933C20.6622 23.9468 20.5759 24.0914 20.4931 24.2206C20.3814 24.3951 20.24 24.6002 20.0839 24.7563L20.0836 24.7566C19.8479 24.9923 19.5681 25.1793 19.26 25.3069C18.952 25.4345 18.6219 25.5001 18.2885 25.5001C17.9552 25.5001 17.625 25.4345 17.317 25.3069C17.009 25.1793 16.7292 24.9923 16.4934 24.7566C16.2577 24.5209 16.0707 24.241 15.9431 23.933C15.8155 23.625 15.7499 23.2949 15.7499 22.9615C15.7499 22.6281 15.8155 22.298 15.9431 21.99C16.0707 21.682 16.2577 21.4021 16.4934 21.1664L16.4937 21.1661C16.6498 21.0101 16.8548 20.8687 17.0293 20.7569C17.1586 20.6742 17.3031 20.5878 17.4566 20.5H11.75C11.1977 20.5 10.75 20.0523 10.75 19.5C10.75 18.9477 11.1977 18.5 11.75 18.5H17.4568C17.3032 18.4122 17.1586 18.3258 17.0294 18.2431C16.8548 18.1313 16.6499 17.9899 16.4937 17.8339C16.103 17.4435 16.1028 16.8104 16.4931 16.4197C16.8835 16.029 17.5167 16.0287 17.9074 16.4191C17.9067 16.4184 17.9067 16.4184 17.9076 16.419C17.908 16.4194 17.9088 16.42 17.9098 16.4208L17.9098 16.4208L17.9098 16.4208C17.9226 16.4311 17.9792 16.4764 18.1078 16.5587C18.2478 16.6484 18.4305 16.7552 18.6477 16.8749C18.9453 17.039 19.2898 17.2175 19.6463 17.3961C19.4677 17.0396 19.2892 16.6953 19.1251 16.3977C19.0053 16.1805 18.8985 15.9978 18.8088 15.8578C18.7264 15.729 18.6811 15.6724 18.6709 15.6597L18.6709 15.6597L18.6708 15.6596C18.6687 15.657 18.6681 15.6563 18.6691 15.6573C18.2788 15.2666 18.279 14.6334 18.6697 14.2431C19.0604 13.8527 19.6936 13.853 20.0839 14.2437C20.2399 14.3998 20.3813 14.6047 20.4931 14.7793C20.5758 14.9085 20.6622 15.053 20.75 15.2065V9.5C20.75 8.94771 21.1977 8.5 21.75 8.5ZM19.6461 21.6038C19.4674 21.9603 19.289 22.3047 19.125 22.6022C19.0052 22.8195 18.8984 23.0022 18.8087 23.1423C18.7264 23.2709 18.6811 23.3275 18.6709 23.3402C18.6687 23.343 18.6681 23.3437 18.6691 23.3427C18.6192 23.3926 18.5599 23.4321 18.4947 23.4591C18.4293 23.4862 18.3593 23.5001 18.2885 23.5001C18.2178 23.5001 18.1478 23.4862 18.0824 23.4591C18.0171 23.4321 17.9577 23.3924 17.9076 23.3424C17.8576 23.2924 17.818 23.233 17.7909 23.1676C17.7638 23.1023 17.7499 23.0322 17.7499 22.9615C17.7499 22.8907 17.7638 22.8207 17.7909 22.7553C17.8179 22.6902 17.8574 22.631 17.9072 22.581C17.9064 22.5818 17.9072 22.5812 17.9097 22.5792L17.9098 22.5792C17.9225 22.569 17.9791 22.5236 18.1078 22.4412C18.2479 22.3515 18.4306 22.2447 18.6478 22.1249C18.9453 21.9609 19.2896 21.7824 19.6461 21.6038ZM23.854 17.396C24.2105 17.2174 24.5548 17.039 24.8524 16.8749C25.0696 16.7552 25.2523 16.6484 25.3923 16.5587C25.521 16.4763 25.5776 16.431 25.5903 16.4208C25.5931 16.4186 25.5938 16.418 25.5927 16.4191C25.6936 16.3181 25.7502 16.1812 25.7502 16.0385C25.7502 15.8956 25.6935 15.7586 25.5924 15.6576C25.4914 15.5566 25.3544 15.4998 25.2115 15.4998C25.0689 15.4998 24.9321 15.5564 24.8311 15.6571C24.8319 15.6563 24.8313 15.6571 24.8292 15.6597L24.8292 15.6597C24.819 15.6725 24.7737 15.729 24.6913 15.8577C24.6017 15.9977 24.4948 16.1805 24.3751 16.3977C24.2111 16.6952 24.0326 17.0395 23.854 17.396Z" fill="url(#paint0_linear_193_760)"/>
<path d="M4.59315 37.6569L4.9467 37.3033H4.9467L4.59315 37.6569ZM39.9069 37.6569L39.5533 37.3033L39.9069 37.6569ZM39.9069 2.34315L39.5533 2.6967V2.6967L39.9069 2.34315ZM22.75 15.2068H22.25V17.089L23.1841 15.4549L22.75 15.2068ZM23.007 14.7793L23.4281 15.0489V15.0489L23.007 14.7793ZM23.4161 14.2437L23.7698 14.5971L23.7703 14.5966L23.4161 14.2437ZM23.4164 14.2434L23.0629 13.8898L23.0623 13.8904L23.4164 14.2434ZM27.0066 14.2434L27.3602 13.8898L27.3602 13.8898L27.0066 14.2434ZM27.0064 17.8339L27.3598 18.1876L27.3599 18.1874L27.0064 17.8339ZM26.4707 18.2431L26.2011 17.822L26.2011 17.822L26.4707 18.2431ZM26.0433 18.5L25.7952 18.0659L24.1611 19H26.0433V18.5ZM26.0434 20.5V20H24.1612L25.7952 20.9341L26.0434 20.5ZM26.4707 20.7569L26.2011 21.178H26.2011L26.4707 20.7569ZM27.0064 21.1661L27.3598 20.8124L27.3598 20.8124L27.0064 21.1661ZM27.0069 22.5803L26.6532 22.2269V22.2269L27.0069 22.5803ZM25.5927 22.5809L25.946 22.227L25.2393 22.9346L25.5927 22.5809ZM25.5904 22.5792L25.2771 22.9689L25.2779 22.9696L25.5904 22.5792ZM25.5903 22.5792L25.9036 22.1895L25.9028 22.1888L25.5903 22.5792ZM25.3923 22.4413L25.1227 22.8624L25.1227 22.8624L25.3923 22.4413ZM24.8524 22.125L25.0937 21.6872L24.8524 22.125ZM23.854 21.604L24.078 21.1569L22.7331 20.4831L23.407 21.8279L23.854 21.604ZM24.3751 22.6023L23.9372 22.8437L24.3751 22.6023ZM24.6913 23.1422L25.1124 22.8726L25.1124 22.8726L24.6913 23.1422ZM24.8292 23.3402L24.4389 23.6527L24.4395 23.6535L24.8292 23.3402ZM24.8293 23.3403L25.2196 23.0279L25.219 23.0271L24.8293 23.3403ZM24.8309 23.3427L25.1846 22.9893L24.4771 23.6959L24.8309 23.3427ZM24.8304 24.7569L24.4769 24.4032H24.4769L24.8304 24.7569ZM23.4161 24.7563L23.0624 25.1097L23.0624 25.1097L23.4161 24.7563ZM23.007 24.2206L23.4281 23.951V23.951L23.007 24.2206ZM22.75 23.7932L23.1841 23.5451L22.25 21.911V23.7932H22.75ZM20.75 23.7933H21.25V21.911L20.3159 23.5452L20.75 23.7933ZM20.4931 24.2206L20.072 23.951L20.072 23.951L20.4931 24.2206ZM20.0839 24.7563L20.4375 25.1098L20.4376 25.1097L20.0839 24.7563ZM19.26 25.3069L19.4514 25.7688L19.4514 25.7688L19.26 25.3069ZM17.317 25.3069L17.5084 24.845H17.5084L17.317 25.3069ZM16.4934 24.7566L16.1399 25.1101L16.1399 25.1101L16.4934 24.7566ZM15.9431 23.933L15.4812 24.1243L15.9431 23.933ZM15.9431 21.99L16.4051 22.1813L15.9431 21.99ZM16.4934 21.1664L16.1405 20.8122L16.1399 20.8128L16.4934 21.1664ZM16.4937 21.1661L16.8467 21.5202L16.8471 21.5198L16.4937 21.1661ZM17.0293 20.7569L17.299 21.178L17.299 21.178L17.0293 20.7569ZM17.4566 20.5L17.7048 20.9341L19.3385 20H17.4566V20.5ZM17.4568 18.5V19H19.339L17.7049 18.0659L17.4568 18.5ZM17.0294 18.2431L17.299 17.822L17.299 17.822L17.0294 18.2431ZM16.4937 17.8339L16.8471 17.4802H16.8471L16.4937 17.8339ZM16.4931 16.4197L16.8468 16.7731L16.8468 16.7731L16.4931 16.4197ZM17.9074 16.4191L17.5539 16.7728L18.2612 16.0658L17.9074 16.4191ZM17.9076 16.419L18.215 16.0248L18.2145 16.0243L17.9076 16.419ZM17.9098 16.4208L18.2633 16.0672L18.2437 16.0476L18.2219 16.0302L17.9098 16.4208ZM17.9098 16.4208L17.5562 16.7744L17.5813 16.7995L17.6098 16.8208L17.9098 16.4208ZM17.9098 16.4208L18.2223 16.0305L18.2161 16.0256L18.2098 16.0208L17.9098 16.4208ZM18.1078 16.5587L18.3774 16.1376L18.3774 16.1376L18.1078 16.5587ZM18.6477 16.8749L18.4063 17.3128L18.4063 17.3128L18.6477 16.8749ZM19.6463 17.3961L19.4223 17.8432L20.7674 18.5171L20.0933 17.1721L19.6463 17.3961ZM19.1251 16.3977L18.6873 16.6392L18.6873 16.6392L19.1251 16.3977ZM18.8088 15.8578L19.2299 15.5881L19.2299 15.5881L18.8088 15.8578ZM18.6709 15.6597L19.0612 15.3472L19.0578 15.3431L18.6709 15.6597ZM18.6709 15.6597L19.0578 15.3431L19.056 15.3409L18.6709 15.6597ZM18.6708 15.6596L18.2802 15.9719L18.2856 15.9784L18.6708 15.6596ZM18.6691 15.6573L18.3154 16.0107L19.0229 15.3039L18.6691 15.6573ZM18.6697 14.2431L19.0231 14.5968L19.0231 14.5968L18.6697 14.2431ZM20.0839 14.2437L19.7302 14.5971L19.7302 14.5971L20.0839 14.2437ZM20.4931 14.7793L20.9142 14.5096V14.5096L20.4931 14.7793ZM20.75 15.2065L20.3159 15.4547L21.25 17.0884V15.2065H20.75ZM19.125 22.6022L18.6871 22.3609V22.3609L19.125 22.6022ZM19.6461 21.6038L20.0931 21.8277L20.767 20.4827L19.422 21.1568L19.6461 21.6038ZM18.8087 23.1423L18.3876 22.8727H18.3876L18.8087 23.1423ZM18.6709 23.3402L19.0612 23.6527L19.0612 23.6527L18.6709 23.3402ZM18.6691 23.3427L19.023 23.6959L18.3159 22.9888L18.6691 23.3427ZM18.4947 23.4591L18.3033 22.9972L18.3033 22.9972L18.4947 23.4591ZM18.0824 23.4591L17.8911 23.9211H17.8911L18.0824 23.4591ZM17.9076 23.3424L18.2612 22.9888L18.2612 22.9888L17.9076 23.3424ZM17.7909 23.1676L18.2528 22.9763L18.2528 22.9763L17.7909 23.1676ZM17.7909 22.7553L18.2528 22.9467L18.2528 22.9467L17.7909 22.7553ZM17.9072 22.581L18.2639 22.9315L17.5533 22.2279L17.9072 22.581ZM17.9097 22.5792L18.2219 22.9698L18.2255 22.9668L17.9097 22.5792ZM17.9098 22.5792L17.5972 22.1889L17.5939 22.1915L17.9098 22.5792ZM18.1078 22.4412L18.3775 22.8623L18.3775 22.8623L18.1078 22.4412ZM18.6478 22.1249L18.4064 21.6871L18.4064 21.6871L18.6478 22.1249ZM24.8524 16.8749L25.0937 17.3128L25.0937 17.3128L24.8524 16.8749ZM23.854 17.396L23.407 17.172L22.7331 18.5169L24.078 17.843L23.854 17.396ZM25.3923 16.5587L25.1227 16.1376H25.1227L25.3923 16.5587ZM25.5903 16.4208L25.9028 16.8111L25.9028 16.8111L25.5903 16.4208ZM25.5927 16.4191L25.2389 16.0658L25.946 16.773L25.5927 16.4191ZM25.5924 15.6576L25.2389 16.0111L25.2389 16.0111L25.5924 15.6576ZM24.8311 15.6571L24.478 15.3032L25.1809 16.0144L24.8311 15.6571ZM24.8292 15.6597L25.2173 15.975L25.2195 15.9723L24.8292 15.6597ZM24.8292 15.6597L24.4411 15.3444L24.4389 15.3472L24.8292 15.6597ZM24.6913 15.8577L25.1124 16.1273L25.1124 16.1273L24.6913 15.8577ZM24.3751 16.3977L23.9372 16.1563L24.3751 16.3977ZM2.75 16C2.75 12.2146 2.75106 9.4259 3.03843 7.28845C3.32387 5.16538 3.88351 3.75989 4.9467 2.6967L4.23959 1.98959C2.95964 3.26955 2.3477 4.92125 2.04735 7.1552C1.74894 9.37477 1.75 12.2429 1.75 16H2.75ZM2.75 24V16H1.75V24H2.75ZM4.9467 37.3033C3.88351 36.2401 3.32387 34.8346 3.03843 32.7116C2.75106 30.5741 2.75 27.7854 2.75 24H1.75C1.75 27.7571 1.74894 30.6252 2.04735 32.8448C2.3477 35.0788 2.95964 36.7304 4.23959 38.0104L4.9467 37.3033ZM18.25 39.5C14.4646 39.5 11.6759 39.4989 9.53845 39.2116C7.41538 38.9261 6.00989 38.3665 4.9467 37.3033L4.23959 38.0104C5.51955 39.2904 7.17125 39.9023 9.4052 40.2026C11.6248 40.5011 14.4929 40.5 18.25 40.5V39.5ZM26.25 39.5H18.25V40.5H26.25V39.5ZM39.5533 37.3033C38.4901 38.3665 37.0846 38.9261 34.9616 39.2116C32.8241 39.4989 30.0354 39.5 26.25 39.5V40.5C30.0071 40.5 32.8752 40.5011 35.0948 40.2026C37.3288 39.9023 38.9804 39.2904 40.2604 38.0104L39.5533 37.3033ZM41.75 24C41.75 27.7854 41.7489 30.5741 41.4616 32.7116C41.1761 34.8346 40.6165 36.2401 39.5533 37.3033L40.2604 38.0104C41.5404 36.7304 42.1523 35.0788 42.4526 32.8448C42.7511 30.6252 42.75 27.7571 42.75 24H41.75ZM41.75 16V24H42.75V16H41.75ZM39.5533 2.6967C40.6165 3.75989 41.1761 5.16538 41.4616 7.28845C41.7489 9.4259 41.75 12.2146 41.75 16H42.75C42.75 12.2429 42.7511 9.37477 42.4526 7.1552C42.1523 4.92125 41.5404 3.26955 40.2604 1.98959L39.5533 2.6967ZM26.25 0.5C30.0354 0.5 32.8241 0.501062 34.9616 0.788435C37.0846 1.07387 38.4901 1.63351 39.5533 2.6967L40.2604 1.98959C38.9804 0.709635 37.3288 0.0976994 35.0948 -0.202648C32.8752 -0.501062 30.0071 -0.5 26.25 -0.5V0.5ZM18.25 0.5H26.25V-0.5H18.25V0.5ZM4.9467 2.6967C6.00989 1.63351 7.41538 1.07387 9.53845 0.788435C11.6759 0.501062 14.4646 0.5 18.25 0.5V-0.5C14.4929 -0.5 11.6248 -0.501062 9.4052 -0.202648C7.17125 0.0976994 5.51955 0.709635 4.23959 1.98959L4.9467 2.6967ZM23.25 9.5C23.25 8.67157 22.5784 8 21.75 8V9C22.0261 9 22.25 9.22386 22.25 9.5H23.25ZM23.25 15.2068V9.5H22.25V15.2068H23.25ZM22.5859 14.5097C22.4974 14.648 22.4065 14.8001 22.3159 14.9586L23.1841 15.4549C23.2691 15.3062 23.3511 15.1692 23.4281 15.0489L22.5859 14.5097ZM23.0624 13.8903C22.8662 14.0867 22.7009 14.3301 22.5859 14.5097L23.4281 15.0489C23.5365 14.8795 23.6541 14.7129 23.7698 14.5971L23.0624 13.8903ZM23.0623 13.8904L23.062 13.8907L23.7703 14.5966L23.7706 14.5964L23.0623 13.8904ZM25.2115 12.9998C24.4056 12.9998 23.6327 13.32 23.0629 13.8898L23.77 14.5969C24.1523 14.2146 24.6709 13.9998 25.2115 13.9998V12.9998ZM27.3602 13.8898C26.7903 13.32 26.0174 12.9998 25.2115 12.9998V13.9998C25.7522 13.9998 26.2708 14.2146 26.6531 14.5969L27.3602 13.8898ZM28.2502 16.0385C28.2502 15.2326 27.9301 14.4597 27.3602 13.8898L26.6531 14.5969C27.0354 14.9793 27.2502 15.4978 27.2502 16.0385H28.2502ZM27.3602 18.1871C27.9301 17.6173 28.2502 16.8444 28.2502 16.0385H27.2502C27.2502 16.5792 27.0354 17.0977 26.6531 17.48L27.3602 18.1871ZM27.3599 18.1874L27.3602 18.1871L26.6531 17.48L26.6528 17.4803L27.3599 18.1874ZM26.7403 18.6641C26.9199 18.5491 27.1634 18.3838 27.3598 18.1876L26.653 17.4802C26.5371 17.5959 26.3706 17.7135 26.2011 17.822L26.7403 18.6641ZM26.2914 18.9341C26.4499 18.8435 26.602 18.7527 26.7403 18.6641L26.2011 17.822C26.0809 17.899 25.9438 17.9809 25.7952 18.0659L26.2914 18.9341ZM31.75 18H26.0433V19H31.75V18ZM33.25 19.5C33.25 18.6716 32.5784 18 31.75 18V19C32.0261 19 32.25 19.2239 32.25 19.5H33.25ZM31.75 21C32.5784 21 33.25 20.3284 33.25 19.5H32.25C32.25 19.7761 32.0261 20 31.75 20V21ZM26.0434 21H31.75V20H26.0434V21ZM26.7403 20.3358C26.6021 20.2473 26.45 20.1565 26.2915 20.0659L25.7952 20.9341C25.9439 21.0191 26.0809 21.101 26.2011 21.178L26.7403 20.3358ZM27.3598 20.8124C27.1634 20.6161 26.9199 20.4508 26.7403 20.3358L26.2011 21.178C26.3706 21.2865 26.5371 21.404 26.653 21.5198L27.3598 20.8124ZM27.3606 22.9337C27.9462 22.3477 27.9458 21.3979 27.3598 20.8124L26.6529 21.5198C26.8483 21.715 26.8484 22.0315 26.6532 22.2269L27.3606 22.9337ZM25.2393 22.9346C25.8254 23.5201 26.7751 23.5197 27.3606 22.9337L26.6532 22.2269C26.4581 22.4222 26.1415 22.4224 25.9461 22.2272L25.2393 22.9346ZM25.2779 22.9696C25.2783 22.9698 25.2799 22.9711 25.2814 22.9723C25.2823 22.973 25.2839 22.9743 25.2859 22.9759C25.2874 22.977 25.2918 22.9805 25.2976 22.9847C25.3004 22.9868 25.306 22.9908 25.3131 22.9956C25.3172 22.9984 25.3353 23.0106 25.3599 23.0236C25.3699 23.0289 25.4015 23.0454 25.445 23.0589C25.4663 23.0655 25.5101 23.0777 25.5671 23.0807C25.6178 23.0834 25.7382 23.0821 25.8624 23.0027C26.0102 22.9083 26.0752 22.7618 26.0896 22.6408C26.1017 22.54 26.0798 22.4619 26.0697 22.4301C26.0487 22.3637 26.0182 22.3178 26.0121 22.3084C25.9927 22.2787 25.9742 22.2576 25.9714 22.2543C25.9649 22.2468 25.9596 22.2411 25.957 22.2384C25.9517 22.2327 25.9473 22.2283 25.946 22.227L25.2395 22.9348C25.2384 22.9337 25.2343 22.9295 25.2291 22.924C25.2265 22.9213 25.2213 22.9157 25.2149 22.9083C25.2121 22.905 25.1936 22.884 25.1743 22.8543C25.1681 22.8449 25.1377 22.799 25.1166 22.7327C25.1065 22.7009 25.0847 22.6227 25.0967 22.5219C25.1112 22.401 25.1762 22.2544 25.324 22.16C25.4482 22.0807 25.5685 22.0794 25.6192 22.0821C25.6763 22.085 25.7201 22.0972 25.7413 22.1038C25.7848 22.1173 25.8164 22.1338 25.8264 22.1391C25.851 22.1521 25.869 22.1643 25.8731 22.1671C25.8801 22.1718 25.8856 22.1758 25.8883 22.1778C25.8993 22.1858 25.9108 22.1952 25.9029 22.1889L25.2779 22.9696ZM25.277 22.9688L25.2771 22.9689L25.9037 22.1895L25.9036 22.1895L25.277 22.9688ZM25.1227 22.8624C25.18 22.8991 25.2188 22.9259 25.2428 22.9431C25.2657 22.9597 25.276 22.968 25.2778 22.9695L25.9028 22.1888C25.8771 22.1682 25.8062 22.1126 25.6619 22.0202L25.1227 22.8624ZM24.611 22.5629C24.8231 22.6799 24.9954 22.7809 25.1227 22.8624L25.6619 22.0202C25.5091 21.9224 25.316 21.8097 25.0937 21.6872L24.611 22.5629ZM23.63 22.051C23.9832 22.2279 24.3212 22.4032 24.611 22.5629L25.0937 21.6872C24.7884 21.5188 24.4378 21.3372 24.078 21.1569L23.63 22.051ZM24.813 22.3609C24.6532 22.0712 24.478 21.7331 24.301 21.38L23.407 21.8279C23.5873 22.1877 23.7689 22.5384 23.9372 22.8437L24.813 22.3609ZM25.1124 22.8726C25.0309 22.7453 24.9299 22.5731 24.813 22.3609L23.9372 22.8437C24.0598 23.066 24.1724 23.2591 24.2702 23.4118L25.1124 22.8726ZM25.2195 23.0278C25.2181 23.026 25.2097 23.0157 25.1932 22.9927C25.176 22.9688 25.1491 22.93 25.1124 22.8726L24.2702 23.4118C24.3626 23.5562 24.4183 23.627 24.4389 23.6527L25.2195 23.0278ZM25.219 23.0271L25.2189 23.027L24.4395 23.6535L24.4396 23.6536L25.219 23.0271ZM24.4771 23.6959C24.4784 23.6972 24.4828 23.7016 24.4884 23.707C24.4912 23.7095 24.4969 23.7149 24.5044 23.7213C24.5077 23.7242 24.5287 23.7427 24.5585 23.762C24.5679 23.7682 24.6138 23.7986 24.6801 23.8197C24.7119 23.8298 24.7901 23.8516 24.8909 23.8396C25.0118 23.8251 25.1584 23.7601 25.2528 23.6123C25.3322 23.4881 25.3334 23.3678 25.3308 23.3171C25.3278 23.26 25.3156 23.2162 25.309 23.1949C25.2955 23.1515 25.279 23.1198 25.2737 23.1098C25.2607 23.0852 25.2484 23.0671 25.2456 23.063C25.2408 23.0559 25.2368 23.0504 25.2348 23.0475C25.2305 23.0418 25.2271 23.0373 25.2259 23.0358C25.2244 23.0338 25.2231 23.0322 25.2224 23.0314C25.2212 23.0298 25.2199 23.0282 25.2196 23.0279L24.439 23.6528C24.4453 23.6607 24.4359 23.6492 24.4279 23.6382C24.4258 23.6355 24.4219 23.63 24.4171 23.623C24.4144 23.619 24.4022 23.6009 24.3892 23.5763C24.3839 23.5663 24.3674 23.5347 24.3539 23.4913C24.3473 23.47 24.3351 23.4262 24.3321 23.3692C24.3295 23.3185 24.3307 23.1981 24.4101 23.0739C24.5045 22.9261 24.651 22.8612 24.772 22.8467C24.8728 22.8346 24.951 22.8565 24.9827 22.8666C25.0491 22.8876 25.095 22.9181 25.1044 22.9242C25.1341 22.9435 25.1551 22.962 25.1583 22.9648C25.1657 22.9712 25.1714 22.9765 25.1741 22.979C25.1796 22.9842 25.1837 22.9884 25.1848 22.9894L24.4771 23.6959ZM25.1838 25.1106C25.7698 24.525 25.7702 23.5753 25.1846 22.9893L24.4772 23.6961C24.6724 23.8914 24.6723 24.208 24.4769 24.4032L25.1838 25.1106ZM23.0624 25.1097C23.648 25.6957 24.5977 25.6961 25.1838 25.1106L24.4769 24.4032C24.2816 24.5984 23.965 24.5982 23.7698 24.4029L23.0624 25.1097ZM22.5859 24.4902C22.7009 24.6699 22.8662 24.9133 23.0624 25.1097L23.7698 24.4029C23.6541 24.287 23.5365 24.1205 23.4281 23.951L22.5859 24.4902ZM22.3159 24.0413C22.4065 24.1998 22.4974 24.352 22.5859 24.4902L23.4281 23.951C23.3511 23.8308 23.2691 23.6937 23.1841 23.5451L22.3159 24.0413ZM23.25 29.5V23.7932H22.25V29.5H23.25ZM21.75 31C22.5784 31 23.25 30.3284 23.25 29.5H22.25C22.25 29.7761 22.0261 30 21.75 30V31ZM20.25 29.5C20.25 30.3284 20.9216 31 21.75 31V30C21.4739 30 21.25 29.7761 21.25 29.5H20.25ZM20.25 23.7933V29.5H21.25V23.7933H20.25ZM20.9142 24.4902C21.0027 24.3519 21.0935 24.1999 21.1841 24.0414L20.3159 23.5452C20.2309 23.6938 20.149 23.8308 20.072 23.951L20.9142 24.4902ZM20.4376 25.1097C20.6339 24.9133 20.7992 24.6698 20.9142 24.4902L20.072 23.951C19.9635 24.1205 19.846 24.287 19.7302 24.4029L20.4376 25.1097ZM20.4372 25.1101L20.4375 25.1098L19.7304 24.4027L19.7301 24.403L20.4372 25.1101ZM19.4514 25.7688C19.8201 25.6161 20.155 25.3923 20.4372 25.1101L19.7301 24.403C19.5408 24.5923 19.316 24.7425 19.0687 24.845L19.4514 25.7688ZM18.2885 26.0001C18.6876 26.0001 19.0827 25.9216 19.4514 25.7688L19.0687 24.845C18.8214 24.9474 18.5563 25.0001 18.2885 25.0001V26.0001ZM17.1257 25.7688C17.4944 25.9216 17.8895 26.0001 18.2885 26.0001V25.0001C18.0208 25.0001 17.7557 24.9474 17.5084 24.845L17.1257 25.7688ZM16.1399 25.1101C16.422 25.3923 16.757 25.6161 17.1257 25.7688L17.5084 24.845C17.261 24.7425 17.0363 24.5923 16.847 24.403L16.1399 25.1101ZM15.4812 24.1243C15.6339 24.493 15.8577 24.828 16.1399 25.1101L16.847 24.403C16.6577 24.2137 16.5075 23.989 16.4051 23.7416L15.4812 24.1243ZM15.2499 22.9615C15.2499 23.3605 15.3285 23.7557 15.4812 24.1243L16.4051 23.7416C16.3026 23.4943 16.2499 23.2292 16.2499 22.9615H15.2499ZM15.4812 21.7986C15.3285 22.1673 15.2499 22.5624 15.2499 22.9615H16.2499C16.2499 22.6938 16.3026 22.4287 16.4051 22.1813L15.4812 21.7986ZM16.1399 20.8128C15.8577 21.095 15.6339 21.43 15.4812 21.7986L16.4051 22.1813C16.5075 21.934 16.6577 21.7092 16.847 21.5199L16.1399 20.8128ZM16.1408 20.812L16.1405 20.8122L16.8464 21.5205L16.8467 21.5202L16.1408 20.812ZM16.7597 20.3358C16.5801 20.4509 16.3367 20.6162 16.1403 20.8124L16.8471 21.5198C16.963 21.404 17.1295 21.2865 17.299 21.178L16.7597 20.3358ZM17.2085 20.0659C17.05 20.1565 16.8979 20.2473 16.7597 20.3358L17.299 21.178C17.4192 21.101 17.5562 21.019 17.7048 20.9341L17.2085 20.0659ZM11.75 21H17.4566V20H11.75V21ZM10.25 19.5C10.25 20.3284 10.9216 21 11.75 21V20C11.4739 20 11.25 19.7761 11.25 19.5H10.25ZM11.75 18C10.9216 18 10.25 18.6716 10.25 19.5H11.25C11.25 19.2239 11.4739 19 11.75 19V18ZM17.4568 18H11.75V19H17.4568V18ZM16.7598 18.6641C16.898 18.7527 17.0502 18.8435 17.2087 18.9341L17.7049 18.0659C17.5563 17.9809 17.4192 17.899 17.299 17.822L16.7598 18.6641ZM16.1403 18.1876C16.3367 18.3838 16.5802 18.5491 16.7598 18.6641L17.299 17.822C17.1295 17.7135 16.963 17.5959 16.8471 17.4802L16.1403 18.1876ZM16.1394 16.0663C15.5539 16.6523 15.5543 17.602 16.1403 18.1876L16.8471 17.4802C16.6518 17.285 16.6517 16.9684 16.8468 16.7731L16.1394 16.0663ZM18.2608 16.0654C17.6747 15.4798 16.725 15.4802 16.1394 16.0663L16.8468 16.7731C17.042 16.5777 17.3586 16.5776 17.5539 16.7728L18.2608 16.0654ZM18.2145 16.0243C18.2136 16.0236 18.207 16.0185 18.1985 16.0124C18.1955 16.0102 18.1832 16.0014 18.1667 15.9913C18.1596 15.9871 18.1395 15.975 18.1122 15.9626C18.0988 15.9566 18.072 15.9452 18.0367 15.9357C18.0123 15.9292 17.926 15.9066 17.8161 15.9269C17.7543 15.9383 17.6707 15.966 17.591 16.031C17.5077 16.0989 17.4551 16.186 17.4287 16.2726C17.3831 16.422 17.4217 16.5435 17.4315 16.5734C17.4562 16.6495 17.4946 16.7015 17.4975 16.7056C17.5164 16.7326 17.5342 16.752 17.5358 16.7537C17.5451 16.764 17.553 16.7719 17.5535 16.7724L18.2612 16.0658C18.2613 16.066 18.269 16.0736 18.2781 16.0837C18.2797 16.0854 18.2975 16.1047 18.3164 16.1316C18.3192 16.1357 18.3576 16.1877 18.3823 16.2638C18.3921 16.2937 18.4307 16.4152 18.3851 16.5646C18.3587 16.6512 18.3061 16.7383 18.2228 16.8062C18.1431 16.8711 18.0595 16.8988 17.9977 16.9103C17.8879 16.9305 17.8015 16.908 17.7772 16.9015C17.7418 16.8919 17.715 16.8805 17.7017 16.8745C17.6743 16.8622 17.6542 16.8501 17.6473 16.8459C17.6308 16.8359 17.6186 16.8271 17.6157 16.825C17.6074 16.8191 17.6011 16.8141 17.6006 16.8137L18.2145 16.0243ZM18.2219 16.0302C18.2218 16.0301 18.2208 16.0293 18.2202 16.0288C18.2196 16.0284 18.2175 16.0267 18.215 16.0248L17.6001 16.8133C17.5989 16.8124 17.598 16.8117 17.5976 16.8114C17.5971 16.811 17.5968 16.8108 17.5968 16.8107C17.5967 16.8107 17.5967 16.8107 17.5969 16.8108C17.597 16.8109 17.597 16.8109 17.5972 16.811C17.5973 16.8111 17.5974 16.8113 17.5976 16.8114L18.2219 16.0302ZM18.2633 16.0673L18.2633 16.0672L17.5562 16.7744L17.5562 16.7744L18.2633 16.0673ZM18.2098 16.0208L18.2098 16.0208L17.6098 16.8208L17.6098 16.8208L18.2098 16.0208ZM18.3774 16.1376C18.3201 16.1009 18.2813 16.0741 18.2574 16.0569C18.2344 16.0403 18.2241 16.0319 18.2223 16.0305L17.5973 16.8112C17.6231 16.8318 17.694 16.8875 17.8382 16.9798L18.3774 16.1376ZM18.8891 16.4371C18.677 16.3201 18.5047 16.2191 18.3774 16.1376L17.8382 16.9798C17.9909 17.0776 18.1841 17.1903 18.4063 17.3128L18.8891 16.4371ZM19.8703 16.9491C19.5171 16.7721 19.1789 16.5968 18.8891 16.4371L18.4063 17.3128C18.7117 17.4812 19.0625 17.6628 19.4223 17.8432L19.8703 16.9491ZM18.6873 16.6392C18.847 16.9289 19.0223 17.267 19.1993 17.6202L20.0933 17.1721C19.913 16.8123 19.7313 16.4616 19.563 16.1563L18.6873 16.6392ZM18.3877 16.1274C18.4693 16.2547 18.5703 16.427 18.6873 16.6392L19.563 16.1563C19.4404 15.934 19.3277 15.7409 19.2299 15.5881L18.3877 16.1274ZM18.2806 15.9722C18.282 15.974 18.2904 15.9843 18.3069 16.0073C18.3241 16.0312 18.351 16.07 18.3877 16.1274L19.2299 15.5881C19.1374 15.4438 19.0818 15.3729 19.0612 15.3472L18.2806 15.9722ZM18.2839 15.9763L18.2839 15.9763L19.0578 15.3431L19.0578 15.3431L18.2839 15.9763ZM18.2856 15.9784L18.2857 15.9785L19.056 15.3409L19.056 15.3408L18.2856 15.9784ZM19.0229 15.3039C19.0215 15.3026 19.0171 15.2981 19.0113 15.2927C19.0085 15.29 19.0026 15.2846 18.9949 15.278C18.9917 15.2752 18.9697 15.2559 18.9386 15.236C18.9292 15.23 18.8798 15.1975 18.8083 15.1767C18.7737 15.1667 18.6883 15.1453 18.5803 15.1647C18.4479 15.1885 18.31 15.2702 18.2297 15.4175C18.1639 15.5381 18.1666 15.6498 18.1702 15.6959C18.1743 15.7489 18.1861 15.7896 18.1926 15.8099C18.2059 15.8512 18.2217 15.8813 18.227 15.8912C18.2397 15.9152 18.2517 15.9328 18.2545 15.937C18.2592 15.944 18.2632 15.9495 18.2653 15.9523C18.2694 15.958 18.2729 15.9625 18.274 15.9639C18.2756 15.9659 18.2769 15.9676 18.2775 15.9684C18.2788 15.97 18.28 15.9716 18.2803 15.9719L19.0613 15.3474C19.055 15.3395 19.0644 15.351 19.0723 15.3618C19.0743 15.3646 19.0782 15.37 19.0829 15.3769C19.0857 15.381 19.0976 15.3986 19.1103 15.4225C19.1156 15.4325 19.1314 15.4625 19.1446 15.5038C19.1512 15.5241 19.163 15.5648 19.1671 15.6178C19.1707 15.6639 19.1734 15.7755 19.1076 15.8962C19.0273 16.0435 18.8894 16.1252 18.757 16.149C18.6489 16.1684 18.5636 16.147 18.529 16.137C18.4575 16.1162 18.4081 16.0837 18.3987 16.0777C18.3677 16.0578 18.3457 16.0386 18.3425 16.0358C18.3349 16.0293 18.3291 16.0239 18.3264 16.0213C18.3208 16.016 18.3165 16.0118 18.3154 16.0107L19.0229 15.3039ZM18.3163 13.8894C17.7303 14.4749 17.7299 15.4247 18.3154 16.0107L19.0228 15.3039C18.8277 15.1085 18.8278 14.792 19.0231 14.5968L18.3163 13.8894ZM20.4376 13.8903C19.8521 13.3042 18.9024 13.3038 18.3163 13.8894L19.0231 14.5968C19.2185 14.4016 19.5351 14.4017 19.7302 14.5971L20.4376 13.8903ZM20.9142 14.5096C20.7992 14.33 20.6338 14.0866 20.4376 13.8903L19.7302 14.5971C19.846 14.7129 19.9635 14.8794 20.072 15.0489L20.9142 14.5096ZM21.1841 14.9583C21.0935 14.7999 21.0027 14.6479 20.9142 14.5096L20.072 15.0489C20.149 15.1691 20.231 15.3061 20.3159 15.4547L21.1841 14.9583ZM20.25 9.5V15.2065H21.25V9.5H20.25ZM21.75 8C20.9216 8 20.25 8.67157 20.25 9.5H21.25C21.25 9.22386 21.4739 9 21.75 9V8ZM19.5629 22.8436C19.7312 22.5383 19.9128 22.1876 20.0931 21.8277L19.199 21.3798C19.0221 21.733 18.8468 22.0711 18.6871 22.3609L19.5629 22.8436ZM19.2298 23.4118C19.3276 23.2591 19.4403 23.0659 19.5629 22.8436L18.6871 22.3609C18.5701 22.5731 18.4691 22.7454 18.3876 22.8727L19.2298 23.4118ZM19.0612 23.6527C19.0818 23.627 19.1375 23.5561 19.2298 23.4118L18.3876 22.8727C18.3509 22.93 18.3241 22.9688 18.3069 22.9927C18.2903 23.0157 18.282 23.026 18.2805 23.0278L19.0612 23.6527ZM18.3153 22.9894C18.3163 22.9884 18.3206 22.9841 18.3263 22.9788C18.329 22.9762 18.3348 22.9707 18.3426 22.9641C18.3455 22.9616 18.3684 22.9415 18.4007 22.921C18.4095 22.9154 18.4636 22.8799 18.5422 22.8594C18.5803 22.8494 18.6772 22.8283 18.7962 22.8597C18.9451 22.899 19.0689 23.0052 19.1295 23.1492C19.178 23.2644 19.1698 23.3648 19.1648 23.4046C19.159 23.4518 19.1476 23.4881 19.1411 23.5067C19.1281 23.5443 19.1134 23.5718 19.1082 23.5814C19.096 23.6039 19.0847 23.6204 19.0819 23.6245C19.0774 23.6311 19.0737 23.6363 19.0717 23.6389C19.064 23.6494 19.055 23.6605 19.0612 23.6527L18.2805 23.0278C18.2803 23.0281 18.279 23.0297 18.2778 23.0312C18.2772 23.032 18.2759 23.0336 18.2744 23.0356C18.2732 23.037 18.2699 23.0413 18.2659 23.0468C18.2639 23.0496 18.26 23.0548 18.2555 23.0615C18.2527 23.0656 18.2413 23.0822 18.2291 23.1048C18.2239 23.1143 18.2092 23.1419 18.1962 23.1795C18.1897 23.1981 18.1783 23.2344 18.1724 23.2817C18.1675 23.3215 18.1593 23.4219 18.2078 23.537C18.2684 23.6811 18.3922 23.7873 18.5411 23.8266C18.6601 23.858 18.757 23.8368 18.7951 23.8269C18.8737 23.8063 18.9278 23.7708 18.9366 23.7653C18.969 23.7447 18.9919 23.7246 18.9949 23.722C19.0027 23.7153 19.0086 23.7098 19.0114 23.7072C19.0172 23.7017 19.0217 23.6972 19.023 23.6959L18.3153 22.9894ZM18.686 23.9211C18.8118 23.869 18.9261 23.7927 19.0224 23.6965L18.3159 22.9888C18.3123 22.9924 18.308 22.9953 18.3033 22.9972L18.686 23.9211ZM18.2885 24.0001C18.4249 24.0001 18.56 23.9733 18.686 23.9211L18.3033 22.9972C18.2987 22.9991 18.2936 23.0001 18.2885 23.0001V24.0001ZM17.8911 23.9211C18.0171 23.9733 18.1521 24.0001 18.2885 24.0001V23.0001C18.2835 23.0001 18.2784 22.9991 18.2737 22.9972L17.8911 23.9211ZM17.5541 23.6959C17.6505 23.7924 17.765 23.8689 17.8911 23.9211L18.2737 22.9972C18.2691 22.9953 18.2648 22.9924 18.2612 22.9888L17.5541 23.6959ZM17.3289 23.359C17.3811 23.485 17.4576 23.5995 17.5541 23.6959L18.2612 22.9888C18.2576 22.9852 18.2548 22.981 18.2528 22.9763L17.3289 23.359ZM17.2499 22.9615C17.2499 23.0979 17.2767 23.2329 17.3289 23.359L18.2528 22.9763C18.2509 22.9716 18.2499 22.9666 18.2499 22.9615H17.2499ZM17.3289 22.564C17.2767 22.69 17.2499 22.8251 17.2499 22.9615H18.2499C18.2499 22.9564 18.2509 22.9514 18.2528 22.9467L17.3289 22.564ZM17.5533 22.2279C17.4572 22.3242 17.381 22.4384 17.3289 22.564L18.2528 22.9467C18.2548 22.942 18.2576 22.9378 18.2612 22.9342L17.5533 22.2279ZM17.5975 22.1887C17.5912 22.1937 17.5999 22.1866 17.6081 22.1805C17.6089 22.18 17.6228 22.1694 17.6413 22.1578C17.6423 22.1571 17.6815 22.1313 17.7359 22.1115C17.7526 22.1055 17.7822 22.0956 17.8204 22.0889C17.8533 22.0831 17.9281 22.073 18.0201 22.0944C18.1264 22.1191 18.2595 22.189 18.3422 22.3353C18.4153 22.4647 18.4102 22.5867 18.4029 22.6445C18.3895 22.7497 18.3448 22.823 18.3398 22.8315C18.3261 22.8554 18.3133 22.8729 18.3073 22.8808C18.2948 22.8975 18.284 22.9098 18.2805 22.9136C18.2721 22.9231 18.2651 22.9302 18.2639 22.9315L17.5506 22.2306C17.5491 22.2321 17.542 22.2393 17.5334 22.2489C17.5299 22.2528 17.5191 22.2651 17.5065 22.2819C17.5006 22.2898 17.4878 22.3074 17.474 22.3312C17.469 22.3398 17.4243 22.413 17.4109 22.5183C17.4036 22.576 17.3985 22.6981 17.4716 22.8274C17.5544 22.9738 17.6874 23.0437 17.7937 23.0684C17.8857 23.0898 17.9605 23.0796 17.9934 23.0738C18.0316 23.0671 18.0612 23.0573 18.078 23.0512C18.1324 23.0314 18.1716 23.0056 18.1727 23.0049C18.1913 22.9932 18.2053 22.9826 18.2063 22.9819C18.2131 22.9768 18.2188 22.9722 18.2189 22.9722C18.2202 22.9711 18.2216 22.97 18.2219 22.9698L17.5975 22.1887ZM17.5939 22.1915L17.5939 22.1916L18.2255 22.9668L18.2256 22.9668L17.5939 22.1915ZM17.8382 22.0201C17.6939 22.1126 17.623 22.1683 17.5972 22.1889L18.2223 22.9694C18.2241 22.968 18.2344 22.9597 18.2574 22.9431C18.2813 22.9259 18.3201 22.899 18.3775 22.8623L17.8382 22.0201ZM18.4064 21.6871C18.1841 21.8096 17.991 21.9223 17.8382 22.0201L18.3775 22.8623C18.5048 22.7808 18.6771 22.6798 18.8892 22.5628L18.4064 21.6871ZM19.422 21.1568C19.0623 21.3371 18.7117 21.5187 18.4064 21.6871L18.8892 22.5628C19.1789 22.403 19.517 22.2278 19.8701 22.0508L19.422 21.1568ZM24.611 16.4371C24.3212 16.5968 23.9832 16.772 23.63 16.949L24.078 17.843C24.4378 17.6627 24.7884 17.4811 25.0937 17.3128L24.611 16.4371ZM25.1227 16.1376C24.9954 16.2191 24.8231 16.3201 24.611 16.4371L25.0937 17.3128C25.316 17.1903 25.5091 17.0776 25.6619 16.9798L25.1227 16.1376ZM25.2778 16.0305C25.276 16.0319 25.2657 16.0403 25.2428 16.0568C25.2188 16.074 25.18 16.1009 25.1227 16.1376L25.6619 16.9798C25.8062 16.8874 25.8771 16.8317 25.9028 16.8111L25.2778 16.0305ZM25.946 16.773C25.9473 16.7716 25.9518 16.7671 25.9574 16.7612C25.9601 16.7583 25.9657 16.7523 25.9725 16.7444C25.975 16.7414 25.9955 16.7181 26.0163 16.6849C26.0219 16.6762 26.0583 16.6202 26.0784 16.5391C26.0883 16.4993 26.1085 16.3994 26.0731 16.2782C26.0289 16.1271 25.9176 16.0093 25.7772 15.9537C25.6646 15.9091 25.5674 15.9177 25.5286 15.9228C25.4825 15.9288 25.4471 15.94 25.4287 15.9464C25.3916 15.9593 25.3645 15.9738 25.3549 15.979C25.3324 15.9912 25.3159 16.0024 25.3118 16.0053C25.305 16.0099 25.2998 16.0137 25.297 16.0157C25.2915 16.0198 25.2872 16.0231 25.2857 16.0242C25.2837 16.0258 25.2821 16.027 25.2813 16.0277C25.2798 16.0289 25.2782 16.0302 25.2778 16.0305L25.9028 16.8111C25.9105 16.805 25.8994 16.814 25.8888 16.8218C25.8862 16.8237 25.881 16.8275 25.8744 16.832C25.8703 16.8348 25.8538 16.846 25.8314 16.8582C25.8219 16.8633 25.7947 16.8778 25.7576 16.8908C25.7392 16.8972 25.7039 16.9084 25.6577 16.9144C25.6189 16.9194 25.5218 16.9281 25.4092 16.8835C25.2687 16.8279 25.1575 16.71 25.1133 16.559C25.0778 16.4378 25.098 16.3378 25.1079 16.298C25.1281 16.2169 25.1645 16.161 25.17 16.1523C25.1908 16.1192 25.2113 16.0958 25.2138 16.0929C25.2205 16.0851 25.2261 16.0791 25.2287 16.0764C25.2341 16.0706 25.2384 16.0663 25.2395 16.0652L25.946 16.773ZM25.2502 16.0385C25.2502 16.0487 25.2461 16.0585 25.2389 16.0658L25.9466 16.7724C26.141 16.5776 26.2502 16.3137 26.2502 16.0385H25.2502ZM25.2389 16.0111C25.2461 16.0184 25.2502 16.0282 25.2502 16.0385H26.2502C26.2502 15.763 26.1408 15.4988 25.946 15.304L25.2389 16.0111ZM25.2115 15.9998C25.2218 15.9998 25.2316 16.0039 25.2389 16.0111L25.946 15.304C25.7512 15.1092 25.487 14.9998 25.2115 14.9998V15.9998ZM25.1842 16.0111C25.1915 16.0039 25.2013 15.9998 25.2115 15.9998V14.9998C24.9365 14.9998 24.6727 15.1089 24.478 15.3032L25.1842 16.0111ZM25.2195 15.9723C25.2197 15.9719 25.2209 15.9705 25.222 15.9691C25.2221 15.969 25.2266 15.9633 25.2318 15.9564C25.2326 15.9554 25.243 15.9417 25.2544 15.9236C25.2556 15.9216 25.2795 15.8853 25.2987 15.8348C25.3011 15.8285 25.3461 15.7229 25.3264 15.5857C25.3139 15.4989 25.2694 15.3642 25.1387 15.2624C25.0128 15.1643 24.8796 15.1539 24.8068 15.1574C24.6842 15.1635 24.5978 15.2147 24.5901 15.2189C24.5636 15.2335 24.5442 15.2474 24.5358 15.2536C24.5177 15.2669 24.5045 15.2785 24.5005 15.282C24.4904 15.2909 24.4828 15.2984 24.4813 15.2999L25.1809 16.0144C25.1796 16.0157 25.1722 16.023 25.1622 16.0318C25.1582 16.0353 25.1451 16.0469 25.127 16.0601C25.1186 16.0663 25.0992 16.0802 25.0727 16.0948C25.0651 16.099 24.9787 16.1502 24.856 16.1562C24.7833 16.1598 24.6501 16.1494 24.5242 16.0513C24.3935 15.9495 24.349 15.8147 24.3365 15.728C24.3168 15.5908 24.3618 15.4852 24.3642 15.4789C24.3834 15.4285 24.4072 15.3922 24.4084 15.3903C24.4198 15.3722 24.4301 15.3587 24.4307 15.3578C24.4369 15.3495 24.4439 15.341 24.439 15.3471L25.2195 15.9723ZM25.2173 15.975L25.2173 15.975L24.4412 15.3444L24.4412 15.3444L25.2173 15.975ZM25.1124 16.1273C25.1491 16.07 25.176 16.0312 25.1932 16.0073C25.2097 15.9843 25.2181 15.974 25.2195 15.9722L24.4389 15.3472C24.4183 15.373 24.3626 15.4438 24.2702 15.5881L25.1124 16.1273ZM24.813 16.6391C24.9299 16.4269 25.0309 16.2546 25.1124 16.1273L24.2702 15.5881C24.1724 15.7409 24.0598 15.934 23.9372 16.1563L24.813 16.6391ZM24.301 17.62C24.478 17.2668 24.6532 16.9288 24.813 16.6391L23.9372 16.1563C23.7689 16.4616 23.5873 16.8122 23.407 17.172L24.301 17.62Z" fill="black" mask="url(#path-1-inside-1_193_760)"/>
</g>
<defs>
<filter id="filter0_d_193_760" x="0.25" y="0" width="44" height="44" filterUnits="userSpaceOnUse" color-interpolation-filters="sRGB">
<feFlood flood-opacity="0" result="BackgroundImageFix"/>
<feColorMatrix in="SourceAlpha" type="matrix" values="0 0 0 0 0 0 0 0 0 0 0 0 0 0 0 0 0 0 127 0" result="hardAlpha"/>
<feOffset dy="2"/>
<feGaussianBlur stdDeviation="1"/>
<feComposite in2="hardAlpha" operator="out"/>
<feColorMatrix type="matrix" values="0 0 0 0 0 0 0 0 0 0 0 0 0 0 0 0 0 0 0.25 0"/>
<feBlend mode="normal" in2="BackgroundImageFix" result="effect1_dropShadow_193_760"/>
<feBlend mode="normal" in="SourceGraphic" in2="effect1_dropShadow_193_760" result="shape"/>
</filter>
<linearGradient id="paint0_linear_193_760" x1="39.75" y1="2.25" x2="2.25" y2="36.25" gradientUnits="userSpaceOnUse">
<stop stop-color="#1D1B1E"/>
<stop offset="1" stop-color="#1D1B1E"/>
</linearGradient>
</defs>
</svg>
