<svg width="209" height="209" viewBox="0 0 209 209" fill="none" xmlns="http://www.w3.org/2000/svg">
<path d="M173.189 74.8642C175.288 83.7722 164.874 96.3185 160.03 108.532C155.185 120.746 156.004 132.247 152.488 143.979C148.973 155.71 141.236 167.539 130.918 169.132C120.714 170.591 107.949 162.06 94.3945 159.067C80.8601 156.321 66.5564 159.36 56.5868 154.581C46.6171 149.801 41.0019 137.45 41.1309 125.374C41.1465 113.432 47.0401 101.878 50.5031 91.0215C53.9458 79.9177 55.0512 69.1299 59.45 59.0672C63.9623 48.8707 71.8611 39.0184 81.5712 37.6001C91.1476 36.0683 102.649 42.8369 113.092 47.3289C123.536 51.8208 132.902 53.7891 144.767 57.4182C156.88 61.027 171.224 66.0697 173.189 74.8642Z" fill="#F6EFF3"/>
<circle cx="49" cy="46" r="8" fill="url(#paint0_radial_101_3985)"/>
<circle cx="79" cy="53" r="3" fill="url(#paint1_radial_101_3985)"/>
<circle cx="76" cy="25" r="6" fill="url(#paint2_radial_101_3985)"/>
<circle cx="172" cy="73" r="7" fill="url(#paint3_radial_101_3985)"/>
<circle cx="118.5" cy="157.5" r="3.5" fill="url(#paint4_radial_101_3985)"/>
<circle cx="163" cy="167" r="2" fill="url(#paint5_radial_101_3985)"/>
<circle cx="157" cy="54" r="4" fill="url(#paint6_radial_101_3985)"/>
<circle cx="138.5" cy="168.5" r="10.5" fill="url(#paint7_radial_101_3985)"/>
<circle cx="49.5" cy="127.5" r="3.5" fill="url(#paint8_radial_101_3985)"/>
<circle cx="48.5" cy="148.5" r="3.5" fill="url(#paint9_radial_101_3985)"/>
<circle cx="28.5" cy="130.5" r="6.5" fill="url(#paint10_radial_101_3985)"/>
<circle cx="164.5" cy="89.5" r="3.5" fill="url(#paint11_radial_101_3985)"/>
<path d="M91.6666 105L100.116 112.604C101.554 113.899 103.789 113.7 104.977 112.173L118.333 95M105 138.333C123.409 138.333 138.333 123.409 138.333 105C138.333 86.5905 123.409 71.6666 105 71.6666C86.5905 71.6666 71.6666 86.5905 71.6666 105C71.6666 123.409 86.5905 138.333 105 138.333Z" stroke="#8636BB" stroke-width="5" stroke-linecap="round" stroke-linejoin="round"/>
<defs>
<radialGradient id="paint0_radial_101_3985" cx="0" cy="0" r="1" gradientUnits="userSpaceOnUse" gradientTransform="translate(54.5758 40.6667) rotate(135.616) scale(15.943)">
<stop stop-color="#DDAAFF"/>
<stop offset="1" stop-color="#7428A7"/>
</radialGradient>
<radialGradient id="paint1_radial_101_3985" cx="0" cy="0" r="1" gradientUnits="userSpaceOnUse" gradientTransform="translate(81.0909 51) rotate(135.616) scale(5.97861)">
<stop stop-color="#DDAAFF"/>
<stop offset="1" stop-color="#7428A7"/>
</radialGradient>
<radialGradient id="paint2_radial_101_3985" cx="0" cy="0" r="1" gradientUnits="userSpaceOnUse" gradientTransform="translate(80.1818 21) rotate(135.616) scale(11.9572)">
<stop stop-color="#DDAAFF"/>
<stop offset="1" stop-color="#7428A7"/>
</radialGradient>
<radialGradient id="paint3_radial_101_3985" cx="0" cy="0" r="1" gradientUnits="userSpaceOnUse" gradientTransform="translate(176.879 68.3333) rotate(135.616) scale(13.9501)">
<stop stop-color="#DDAAFF"/>
<stop offset="1" stop-color="#7428A7"/>
</radialGradient>
<radialGradient id="paint4_radial_101_3985" cx="0" cy="0" r="1" gradientUnits="userSpaceOnUse" gradientTransform="translate(120.939 155.167) rotate(135.616) scale(6.97505)">
<stop stop-color="#DDAAFF"/>
<stop offset="1" stop-color="#7428A7"/>
</radialGradient>
<radialGradient id="paint5_radial_101_3985" cx="0" cy="0" r="1" gradientUnits="userSpaceOnUse" gradientTransform="translate(164.394 165.667) rotate(135.616) scale(3.98574)">
<stop stop-color="#DDAAFF"/>
<stop offset="1" stop-color="#7428A7"/>
</radialGradient>
<radialGradient id="paint6_radial_101_3985" cx="0" cy="0" r="1" gradientUnits="userSpaceOnUse" gradientTransform="translate(159.788 51.3333) rotate(135.616) scale(7.97148)">
<stop stop-color="#DDAAFF"/>
<stop offset="1" stop-color="#7428A7"/>
</radialGradient>
<radialGradient id="paint7_radial_101_3985" cx="0" cy="0" r="1" gradientUnits="userSpaceOnUse" gradientTransform="translate(145.818 161.5) rotate(135.616) scale(20.9251)">
<stop stop-color="#DDAAFF"/>
<stop offset="1" stop-color="#7428A7"/>
</radialGradient>
<radialGradient id="paint8_radial_101_3985" cx="0" cy="0" r="1" gradientUnits="userSpaceOnUse" gradientTransform="translate(51.9394 125.167) rotate(135.616) scale(6.97505)">
<stop stop-color="#DDAAFF"/>
<stop offset="1" stop-color="#7428A7"/>
</radialGradient>
<radialGradient id="paint9_radial_101_3985" cx="0" cy="0" r="1" gradientUnits="userSpaceOnUse" gradientTransform="translate(50.9394 146.167) rotate(135.616) scale(6.97505)">
<stop stop-color="#DDAAFF"/>
<stop offset="1" stop-color="#7428A7"/>
</radialGradient>
<radialGradient id="paint10_radial_101_3985" cx="0" cy="0" r="1" gradientUnits="userSpaceOnUse" gradientTransform="translate(33.0303 126.167) rotate(135.616) scale(12.9537)">
<stop stop-color="#DDAAFF"/>
<stop offset="1" stop-color="#7428A7"/>
</radialGradient>
<radialGradient id="paint11_radial_101_3985" cx="0" cy="0" r="1" gradientUnits="userSpaceOnUse" gradientTransform="translate(166.939 87.1667) rotate(135.616) scale(6.97505)">
<stop stop-color="#DDAAFF"/>
<stop offset="1" stop-color="#7428A7"/>
</radialGradient>
</defs>
</svg>
