<svg width="49" height="44" viewBox="0 0 49 44" fill="none" xmlns="http://www.w3.org/2000/svg">
<rect x="0.25" y="0.25" width="48" height="39.5" fill="white"/>
<rect x="0.25" y="0.25" width="48" height="39.5" stroke="white" stroke-width="0.5"/>
<g filter="url(#filter0_d_193_759)">
<mask id="path-2-inside-1_193_759" fill="white">
<path fill-rule="evenodd" clip-rule="evenodd" d="M6.59315 2.34315C4.25 4.68629 4.25 8.45753 4.25 16V24C4.25 31.5425 4.25 35.3137 6.59315 37.6569C8.93629 40 12.7075 40 20.25 40H28.25C35.7925 40 39.5637 40 41.9069 37.6569C44.25 35.3137 44.25 31.5425 44.25 24V16C44.25 8.45753 44.25 4.68629 41.9069 2.34315C39.5637 0 35.7925 0 28.25 0H20.25C12.7075 0 8.93629 0 6.59315 2.34315ZM23.75 8.5C24.3023 8.5 24.75 8.94771 24.75 9.5V15.2068C24.8378 15.0532 24.9242 14.9086 25.007 14.7793C25.1187 14.6048 25.2602 14.3998 25.4161 14.2437L25.4164 14.2434C25.8925 13.7673 26.5382 13.4998 27.2115 13.4998C27.8848 13.4998 28.5306 13.7673 29.0066 14.2434C29.4827 14.7195 29.7502 15.3652 29.7502 16.0385C29.7502 16.7118 29.4827 17.3575 29.0066 17.8336L29.0064 17.8339C28.8502 17.9899 28.6452 18.1313 28.4707 18.2431C28.3414 18.3258 28.1969 18.4122 28.0433 18.5H33.75C34.3023 18.5 34.75 18.9477 34.75 19.5C34.75 20.0523 34.3023 20.5 33.75 20.5H28.0434C28.1969 20.5878 28.3415 20.6742 28.4707 20.7569C28.6452 20.8687 28.8502 21.0101 29.0064 21.1661C29.397 21.5564 29.3973 22.1896 29.0069 22.5803C28.6166 22.971 27.9834 22.9712 27.5927 22.5809C27.5938 22.5819 27.5931 22.5814 27.5904 22.5792L27.5903 22.5792C27.5776 22.5689 27.521 22.5237 27.3923 22.4413C27.2523 22.3516 27.0696 22.2448 26.8524 22.125C26.5548 21.961 26.2105 21.7826 25.854 21.604C26.0326 21.9604 26.2111 22.3048 26.3751 22.6023C26.4948 22.8195 26.6017 23.0022 26.6913 23.1422C26.7737 23.2709 26.819 23.3275 26.8292 23.3402L26.8293 23.3403C26.8314 23.343 26.832 23.3437 26.8309 23.3427C27.2213 23.7334 27.221 24.3665 26.8304 24.7569C26.4397 25.1472 25.8065 25.147 25.4161 24.7563C25.2602 24.6002 25.1187 24.3952 25.007 24.2206C24.9242 24.0914 24.8378 23.9468 24.75 23.7932V29.5C24.75 30.0523 24.3023 30.5 23.75 30.5C23.1977 30.5 22.75 30.0523 22.75 29.5V23.7933C22.6622 23.9468 22.5759 24.0914 22.4931 24.2206C22.3814 24.3951 22.24 24.6002 22.0839 24.7563L22.0836 24.7566C21.8479 24.9923 21.5681 25.1793 21.26 25.3069C20.952 25.4345 20.6219 25.5001 20.2885 25.5001C19.9552 25.5001 19.625 25.4345 19.317 25.3069C19.009 25.1793 18.7292 24.9923 18.4934 24.7566C18.2577 24.5209 18.0707 24.241 17.9431 23.933C17.8155 23.625 17.7499 23.2949 17.7499 22.9615C17.7499 22.6281 17.8155 22.298 17.9431 21.99C18.0707 21.682 18.2577 21.4021 18.4934 21.1664L18.4937 21.1661C18.6498 21.0101 18.8548 20.8687 19.0293 20.7569C19.1586 20.6742 19.3031 20.5878 19.4566 20.5H13.75C13.1977 20.5 12.75 20.0523 12.75 19.5C12.75 18.9477 13.1977 18.5 13.75 18.5H19.4568C19.3032 18.4122 19.1586 18.3258 19.0294 18.2431C18.8548 18.1313 18.6499 17.9899 18.4937 17.8339C18.103 17.4435 18.1028 16.8104 18.4931 16.4197C18.8835 16.029 19.5167 16.0287 19.9074 16.4191C19.9067 16.4184 19.9067 16.4184 19.9076 16.419C19.908 16.4194 19.9088 16.42 19.9098 16.4208L19.9098 16.4208L19.9098 16.4208C19.9226 16.4311 19.9792 16.4764 20.1078 16.5587C20.2478 16.6484 20.4305 16.7552 20.6477 16.8749C20.9453 17.039 21.2898 17.2175 21.6463 17.3961C21.4677 17.0396 21.2892 16.6953 21.1251 16.3977C21.0053 16.1805 20.8985 15.9978 20.8088 15.8578C20.7264 15.729 20.6811 15.6724 20.6709 15.6597L20.6709 15.6597L20.6708 15.6596C20.6687 15.657 20.6681 15.6563 20.6691 15.6573C20.2788 15.2666 20.279 14.6334 20.6697 14.2431C21.0604 13.8527 21.6936 13.853 22.0839 14.2437C22.2399 14.3998 22.3813 14.6047 22.4931 14.7793C22.5758 14.9085 22.6622 15.053 22.75 15.2065V9.5C22.75 8.94771 23.1977 8.5 23.75 8.5ZM21.6461 21.6038C21.4674 21.9603 21.289 22.3047 21.125 22.6022C21.0052 22.8195 20.8984 23.0022 20.8087 23.1423C20.7264 23.2709 20.6811 23.3275 20.6709 23.3402C20.6687 23.343 20.6681 23.3437 20.6691 23.3427C20.6192 23.3926 20.5599 23.4321 20.4947 23.4591C20.4293 23.4862 20.3593 23.5001 20.2885 23.5001C20.2178 23.5001 20.1478 23.4862 20.0824 23.4591C20.0171 23.4321 19.9577 23.3924 19.9076 23.3424C19.8576 23.2924 19.818 23.233 19.7909 23.1676C19.7638 23.1023 19.7499 23.0322 19.7499 22.9615C19.7499 22.8907 19.7638 22.8207 19.7909 22.7553C19.8179 22.6902 19.8574 22.631 19.9072 22.581C19.9064 22.5818 19.9072 22.5812 19.9097 22.5792L19.9098 22.5792C19.9225 22.569 19.9791 22.5236 20.1078 22.4412C20.2479 22.3515 20.4306 22.2447 20.6478 22.1249C20.9453 21.9609 21.2896 21.7824 21.6461 21.6038ZM25.854 17.396C26.2105 17.2174 26.5548 17.039 26.8524 16.8749C27.0696 16.7552 27.2523 16.6484 27.3923 16.5587C27.521 16.4763 27.5776 16.431 27.5903 16.4208C27.5931 16.4186 27.5938 16.418 27.5927 16.4191C27.6936 16.3181 27.7502 16.1812 27.7502 16.0385C27.7502 15.8956 27.6935 15.7586 27.5924 15.6576C27.4914 15.5566 27.3544 15.4998 27.2115 15.4998C27.0689 15.4998 26.9321 15.5564 26.8311 15.6571C26.8319 15.6563 26.8313 15.6571 26.8292 15.6597L26.8292 15.6597C26.819 15.6725 26.7737 15.729 26.6913 15.8577C26.6017 15.9977 26.4948 16.1805 26.3751 16.3977C26.2111 16.6952 26.0326 17.0395 25.854 17.396Z"/>
</mask>
<path fill-rule="evenodd" clip-rule="evenodd" d="M6.59315 2.34315C4.25 4.68629 4.25 8.45753 4.25 16V24C4.25 31.5425 4.25 35.3137 6.59315 37.6569C8.93629 40 12.7075 40 20.25 40H28.25C35.7925 40 39.5637 40 41.9069 37.6569C44.25 35.3137 44.25 31.5425 44.25 24V16C44.25 8.45753 44.25 4.68629 41.9069 2.34315C39.5637 0 35.7925 0 28.25 0H20.25C12.7075 0 8.93629 0 6.59315 2.34315ZM23.75 8.5C24.3023 8.5 24.75 8.94771 24.75 9.5V15.2068C24.8378 15.0532 24.9242 14.9086 25.007 14.7793C25.1187 14.6048 25.2602 14.3998 25.4161 14.2437L25.4164 14.2434C25.8925 13.7673 26.5382 13.4998 27.2115 13.4998C27.8848 13.4998 28.5306 13.7673 29.0066 14.2434C29.4827 14.7195 29.7502 15.3652 29.7502 16.0385C29.7502 16.7118 29.4827 17.3575 29.0066 17.8336L29.0064 17.8339C28.8502 17.9899 28.6452 18.1313 28.4707 18.2431C28.3414 18.3258 28.1969 18.4122 28.0433 18.5H33.75C34.3023 18.5 34.75 18.9477 34.75 19.5C34.75 20.0523 34.3023 20.5 33.75 20.5H28.0434C28.1969 20.5878 28.3415 20.6742 28.4707 20.7569C28.6452 20.8687 28.8502 21.0101 29.0064 21.1661C29.397 21.5564 29.3973 22.1896 29.0069 22.5803C28.6166 22.971 27.9834 22.9712 27.5927 22.5809C27.5938 22.5819 27.5931 22.5814 27.5904 22.5792L27.5903 22.5792C27.5776 22.5689 27.521 22.5237 27.3923 22.4413C27.2523 22.3516 27.0696 22.2448 26.8524 22.125C26.5548 21.961 26.2105 21.7826 25.854 21.604C26.0326 21.9604 26.2111 22.3048 26.3751 22.6023C26.4948 22.8195 26.6017 23.0022 26.6913 23.1422C26.7737 23.2709 26.819 23.3275 26.8292 23.3402L26.8293 23.3403C26.8314 23.343 26.832 23.3437 26.8309 23.3427C27.2213 23.7334 27.221 24.3665 26.8304 24.7569C26.4397 25.1472 25.8065 25.147 25.4161 24.7563C25.2602 24.6002 25.1187 24.3952 25.007 24.2206C24.9242 24.0914 24.8378 23.9468 24.75 23.7932V29.5C24.75 30.0523 24.3023 30.5 23.75 30.5C23.1977 30.5 22.75 30.0523 22.75 29.5V23.7933C22.6622 23.9468 22.5759 24.0914 22.4931 24.2206C22.3814 24.3951 22.24 24.6002 22.0839 24.7563L22.0836 24.7566C21.8479 24.9923 21.5681 25.1793 21.26 25.3069C20.952 25.4345 20.6219 25.5001 20.2885 25.5001C19.9552 25.5001 19.625 25.4345 19.317 25.3069C19.009 25.1793 18.7292 24.9923 18.4934 24.7566C18.2577 24.5209 18.0707 24.241 17.9431 23.933C17.8155 23.625 17.7499 23.2949 17.7499 22.9615C17.7499 22.6281 17.8155 22.298 17.9431 21.99C18.0707 21.682 18.2577 21.4021 18.4934 21.1664L18.4937 21.1661C18.6498 21.0101 18.8548 20.8687 19.0293 20.7569C19.1586 20.6742 19.3031 20.5878 19.4566 20.5H13.75C13.1977 20.5 12.75 20.0523 12.75 19.5C12.75 18.9477 13.1977 18.5 13.75 18.5H19.4568C19.3032 18.4122 19.1586 18.3258 19.0294 18.2431C18.8548 18.1313 18.6499 17.9899 18.4937 17.8339C18.103 17.4435 18.1028 16.8104 18.4931 16.4197C18.8835 16.029 19.5167 16.0287 19.9074 16.4191C19.9067 16.4184 19.9067 16.4184 19.9076 16.419C19.908 16.4194 19.9088 16.42 19.9098 16.4208L19.9098 16.4208L19.9098 16.4208C19.9226 16.4311 19.9792 16.4764 20.1078 16.5587C20.2478 16.6484 20.4305 16.7552 20.6477 16.8749C20.9453 17.039 21.2898 17.2175 21.6463 17.3961C21.4677 17.0396 21.2892 16.6953 21.1251 16.3977C21.0053 16.1805 20.8985 15.9978 20.8088 15.8578C20.7264 15.729 20.6811 15.6724 20.6709 15.6597L20.6709 15.6597L20.6708 15.6596C20.6687 15.657 20.6681 15.6563 20.6691 15.6573C20.2788 15.2666 20.279 14.6334 20.6697 14.2431C21.0604 13.8527 21.6936 13.853 22.0839 14.2437C22.2399 14.3998 22.3813 14.6047 22.4931 14.7793C22.5758 14.9085 22.6622 15.053 22.75 15.2065V9.5C22.75 8.94771 23.1977 8.5 23.75 8.5ZM21.6461 21.6038C21.4674 21.9603 21.289 22.3047 21.125 22.6022C21.0052 22.8195 20.8984 23.0022 20.8087 23.1423C20.7264 23.2709 20.6811 23.3275 20.6709 23.3402C20.6687 23.343 20.6681 23.3437 20.6691 23.3427C20.6192 23.3926 20.5599 23.4321 20.4947 23.4591C20.4293 23.4862 20.3593 23.5001 20.2885 23.5001C20.2178 23.5001 20.1478 23.4862 20.0824 23.4591C20.0171 23.4321 19.9577 23.3924 19.9076 23.3424C19.8576 23.2924 19.818 23.233 19.7909 23.1676C19.7638 23.1023 19.7499 23.0322 19.7499 22.9615C19.7499 22.8907 19.7638 22.8207 19.7909 22.7553C19.8179 22.6902 19.8574 22.631 19.9072 22.581C19.9064 22.5818 19.9072 22.5812 19.9097 22.5792L19.9098 22.5792C19.9225 22.569 19.9791 22.5236 20.1078 22.4412C20.2479 22.3515 20.4306 22.2447 20.6478 22.1249C20.9453 21.9609 21.2896 21.7824 21.6461 21.6038ZM25.854 17.396C26.2105 17.2174 26.5548 17.039 26.8524 16.8749C27.0696 16.7552 27.2523 16.6484 27.3923 16.5587C27.521 16.4763 27.5776 16.431 27.5903 16.4208C27.5931 16.4186 27.5938 16.418 27.5927 16.4191C27.6936 16.3181 27.7502 16.1812 27.7502 16.0385C27.7502 15.8956 27.6935 15.7586 27.5924 15.6576C27.4914 15.5566 27.3544 15.4998 27.2115 15.4998C27.0689 15.4998 26.9321 15.5564 26.8311 15.6571C26.8319 15.6563 26.8313 15.6571 26.8292 15.6597L26.8292 15.6597C26.819 15.6725 26.7737 15.729 26.6913 15.8577C26.6017 15.9977 26.4948 16.1805 26.3751 16.3977C26.2111 16.6952 26.0326 17.0395 25.854 17.396Z" fill="url(#paint0_linear_193_759)"/>
<path d="M6.59315 37.6569L6.9467 37.3033H6.9467L6.59315 37.6569ZM41.9069 37.6569L41.5533 37.3033L41.9069 37.6569ZM41.9069 2.34315L41.5533 2.6967V2.6967L41.9069 2.34315ZM24.75 15.2068H24.25V17.089L25.1841 15.4549L24.75 15.2068ZM25.007 14.7793L25.4281 15.0489V15.0489L25.007 14.7793ZM25.4161 14.2437L25.7698 14.5971L25.7703 14.5966L25.4161 14.2437ZM25.4164 14.2434L25.0629 13.8898L25.0623 13.8904L25.4164 14.2434ZM29.0066 14.2434L29.3602 13.8898L29.3602 13.8898L29.0066 14.2434ZM29.0064 17.8339L29.3598 18.1876L29.3599 18.1874L29.0064 17.8339ZM28.4707 18.2431L28.2011 17.822L28.2011 17.822L28.4707 18.2431ZM28.0433 18.5L27.7952 18.0659L26.1611 19H28.0433V18.5ZM28.0434 20.5V20H26.1612L27.7952 20.9341L28.0434 20.5ZM28.4707 20.7569L28.2011 21.178H28.2011L28.4707 20.7569ZM29.0064 21.1661L29.3598 20.8124L29.3598 20.8124L29.0064 21.1661ZM29.0069 22.5803L28.6532 22.2269V22.2269L29.0069 22.5803ZM27.5927 22.5809L27.946 22.227L27.2393 22.9346L27.5927 22.5809ZM27.5904 22.5792L27.2771 22.9689L27.2779 22.9696L27.5904 22.5792ZM27.5903 22.5792L27.9036 22.1895L27.9028 22.1888L27.5903 22.5792ZM27.3923 22.4413L27.1227 22.8624L27.1227 22.8624L27.3923 22.4413ZM26.8524 22.125L27.0937 21.6872L26.8524 22.125ZM25.854 21.604L26.078 21.1569L24.7331 20.4831L25.407 21.8279L25.854 21.604ZM26.3751 22.6023L25.9372 22.8437L26.3751 22.6023ZM26.6913 23.1422L27.1124 22.8726L27.1124 22.8726L26.6913 23.1422ZM26.8292 23.3402L26.4389 23.6527L26.4395 23.6535L26.8292 23.3402ZM26.8293 23.3403L27.2196 23.0279L27.219 23.0271L26.8293 23.3403ZM26.8309 23.3427L27.1846 22.9893L26.4771 23.6959L26.8309 23.3427ZM26.8304 24.7569L26.4769 24.4032H26.4769L26.8304 24.7569ZM25.4161 24.7563L25.0624 25.1097L25.0624 25.1097L25.4161 24.7563ZM25.007 24.2206L25.4281 23.951V23.951L25.007 24.2206ZM24.75 23.7932L25.1841 23.5451L24.25 21.911V23.7932H24.75ZM22.75 23.7933H23.25V21.911L22.3159 23.5452L22.75 23.7933ZM22.4931 24.2206L22.072 23.951L22.072 23.951L22.4931 24.2206ZM22.0839 24.7563L22.4375 25.1098L22.4376 25.1097L22.0839 24.7563ZM21.26 25.3069L21.4514 25.7688L21.4514 25.7688L21.26 25.3069ZM19.317 25.3069L19.5084 24.845H19.5084L19.317 25.3069ZM18.4934 24.7566L18.1399 25.1101L18.1399 25.1101L18.4934 24.7566ZM17.9431 23.933L17.4812 24.1243L17.9431 23.933ZM17.9431 21.99L18.4051 22.1813L17.9431 21.99ZM18.4934 21.1664L18.1405 20.8122L18.1399 20.8128L18.4934 21.1664ZM18.4937 21.1661L18.8467 21.5202L18.8471 21.5198L18.4937 21.1661ZM19.0293 20.7569L19.299 21.178L19.299 21.178L19.0293 20.7569ZM19.4566 20.5L19.7048 20.9341L21.3385 20H19.4566V20.5ZM19.4568 18.5V19H21.339L19.7049 18.0659L19.4568 18.5ZM19.0294 18.2431L19.299 17.822L19.299 17.822L19.0294 18.2431ZM18.4937 17.8339L18.8471 17.4802H18.8471L18.4937 17.8339ZM18.4931 16.4197L18.8468 16.7731L18.8468 16.7731L18.4931 16.4197ZM19.9074 16.4191L19.5539 16.7728L20.2612 16.0658L19.9074 16.4191ZM19.9076 16.419L20.215 16.0248L20.2145 16.0243L19.9076 16.419ZM19.9098 16.4208L20.2633 16.0672L20.2437 16.0476L20.2219 16.0302L19.9098 16.4208ZM19.9098 16.4208L19.5562 16.7744L19.5813 16.7995L19.6098 16.8208L19.9098 16.4208ZM19.9098 16.4208L20.2223 16.0305L20.2161 16.0256L20.2098 16.0208L19.9098 16.4208ZM20.1078 16.5587L20.3774 16.1376L20.3774 16.1376L20.1078 16.5587ZM20.6477 16.8749L20.4063 17.3128L20.4063 17.3128L20.6477 16.8749ZM21.6463 17.3961L21.4223 17.8432L22.7674 18.5171L22.0933 17.1721L21.6463 17.3961ZM21.1251 16.3977L20.6873 16.6392L20.6873 16.6392L21.1251 16.3977ZM20.8088 15.8578L21.2299 15.5881L21.2299 15.5881L20.8088 15.8578ZM20.6709 15.6597L21.0612 15.3472L21.0578 15.3431L20.6709 15.6597ZM20.6709 15.6597L21.0578 15.3431L21.056 15.3409L20.6709 15.6597ZM20.6708 15.6596L20.2802 15.9719L20.2856 15.9784L20.6708 15.6596ZM20.6691 15.6573L20.3154 16.0107L21.0229 15.3039L20.6691 15.6573ZM20.6697 14.2431L21.0231 14.5968L21.0231 14.5968L20.6697 14.2431ZM22.0839 14.2437L21.7302 14.5971L21.7302 14.5971L22.0839 14.2437ZM22.4931 14.7793L22.9142 14.5096V14.5096L22.4931 14.7793ZM22.75 15.2065L22.3159 15.4547L23.25 17.0884V15.2065H22.75ZM21.125 22.6022L20.6871 22.3609V22.3609L21.125 22.6022ZM21.6461 21.6038L22.0931 21.8277L22.767 20.4827L21.422 21.1568L21.6461 21.6038ZM20.8087 23.1423L20.3876 22.8727H20.3876L20.8087 23.1423ZM20.6709 23.3402L21.0612 23.6527L21.0612 23.6527L20.6709 23.3402ZM20.6691 23.3427L21.023 23.6959L20.3159 22.9888L20.6691 23.3427ZM20.4947 23.4591L20.3033 22.9972L20.3033 22.9972L20.4947 23.4591ZM20.0824 23.4591L19.8911 23.9211H19.8911L20.0824 23.4591ZM19.9076 23.3424L20.2612 22.9888L20.2612 22.9888L19.9076 23.3424ZM19.7909 23.1676L20.2528 22.9763L20.2528 22.9763L19.7909 23.1676ZM19.7909 22.7553L20.2528 22.9467L20.2528 22.9467L19.7909 22.7553ZM19.9072 22.581L20.2639 22.9315L19.5533 22.2279L19.9072 22.581ZM19.9097 22.5792L20.2219 22.9698L20.2255 22.9668L19.9097 22.5792ZM19.9098 22.5792L19.5972 22.1889L19.5939 22.1915L19.9098 22.5792ZM20.1078 22.4412L20.3775 22.8623L20.3775 22.8623L20.1078 22.4412ZM20.6478 22.1249L20.4064 21.6871L20.4064 21.6871L20.6478 22.1249ZM26.8524 16.8749L27.0937 17.3128L27.0937 17.3128L26.8524 16.8749ZM25.854 17.396L25.407 17.172L24.7331 18.5169L26.078 17.843L25.854 17.396ZM27.3923 16.5587L27.1227 16.1376H27.1227L27.3923 16.5587ZM27.5903 16.4208L27.9028 16.8111L27.9028 16.8111L27.5903 16.4208ZM27.5927 16.4191L27.2389 16.0658L27.946 16.773L27.5927 16.4191ZM27.5924 15.6576L27.2389 16.0111L27.2389 16.0111L27.5924 15.6576ZM26.8311 15.6571L26.478 15.3032L27.1809 16.0144L26.8311 15.6571ZM26.8292 15.6597L27.2173 15.975L27.2195 15.9723L26.8292 15.6597ZM26.8292 15.6597L26.4411 15.3444L26.4389 15.3472L26.8292 15.6597ZM26.6913 15.8577L27.1124 16.1273L27.1124 16.1273L26.6913 15.8577ZM26.3751 16.3977L25.9372 16.1563L26.3751 16.3977ZM4.75 16C4.75 12.2146 4.75106 9.4259 5.03843 7.28845C5.32387 5.16538 5.88351 3.75989 6.9467 2.6967L6.23959 1.98959C4.95964 3.26955 4.3477 4.92125 4.04735 7.1552C3.74894 9.37477 3.75 12.2429 3.75 16H4.75ZM4.75 24V16H3.75V24H4.75ZM6.9467 37.3033C5.88351 36.2401 5.32387 34.8346 5.03843 32.7116C4.75106 30.5741 4.75 27.7854 4.75 24H3.75C3.75 27.7571 3.74894 30.6252 4.04735 32.8448C4.3477 35.0788 4.95964 36.7304 6.23959 38.0104L6.9467 37.3033ZM20.25 39.5C16.4646 39.5 13.6759 39.4989 11.5384 39.2116C9.41538 38.9261 8.00989 38.3665 6.9467 37.3033L6.23959 38.0104C7.51955 39.2904 9.17125 39.9023 11.4052 40.2026C13.6248 40.5011 16.4929 40.5 20.25 40.5V39.5ZM28.25 39.5H20.25V40.5H28.25V39.5ZM41.5533 37.3033C40.4901 38.3665 39.0846 38.9261 36.9616 39.2116C34.8241 39.4989 32.0354 39.5 28.25 39.5V40.5C32.0071 40.5 34.8752 40.5011 37.0948 40.2026C39.3288 39.9023 40.9804 39.2904 42.2604 38.0104L41.5533 37.3033ZM43.75 24C43.75 27.7854 43.7489 30.5741 43.4616 32.7116C43.1761 34.8346 42.6165 36.2401 41.5533 37.3033L42.2604 38.0104C43.5404 36.7304 44.1523 35.0788 44.4526 32.8448C44.7511 30.6252 44.75 27.7571 44.75 24H43.75ZM43.75 16V24H44.75V16H43.75ZM41.5533 2.6967C42.6165 3.75989 43.1761 5.16538 43.4616 7.28845C43.7489 9.4259 43.75 12.2146 43.75 16H44.75C44.75 12.2429 44.7511 9.37477 44.4526 7.1552C44.1523 4.92125 43.5404 3.26955 42.2604 1.98959L41.5533 2.6967ZM28.25 0.5C32.0354 0.5 34.8241 0.501062 36.9616 0.788435C39.0846 1.07387 40.4901 1.63351 41.5533 2.6967L42.2604 1.98959C40.9804 0.709635 39.3288 0.0976994 37.0948 -0.202648C34.8752 -0.501062 32.0071 -0.5 28.25 -0.5V0.5ZM20.25 0.5H28.25V-0.5H20.25V0.5ZM6.9467 2.6967C8.00989 1.63351 9.41538 1.07387 11.5384 0.788435C13.6759 0.501062 16.4646 0.5 20.25 0.5V-0.5C16.4929 -0.5 13.6248 -0.501062 11.4052 -0.202648C9.17125 0.0976994 7.51955 0.709635 6.23959 1.98959L6.9467 2.6967ZM25.25 9.5C25.25 8.67157 24.5784 8 23.75 8V9C24.0261 9 24.25 9.22386 24.25 9.5H25.25ZM25.25 15.2068V9.5H24.25V15.2068H25.25ZM24.5859 14.5097C24.4974 14.648 24.4065 14.8001 24.3159 14.9586L25.1841 15.4549C25.2691 15.3062 25.3511 15.1692 25.4281 15.0489L24.5859 14.5097ZM25.0624 13.8903C24.8662 14.0867 24.7009 14.3301 24.5859 14.5097L25.4281 15.0489C25.5365 14.8795 25.6541 14.7129 25.7698 14.5971L25.0624 13.8903ZM25.0623 13.8904L25.062 13.8907L25.7703 14.5966L25.7706 14.5964L25.0623 13.8904ZM27.2115 12.9998C26.4056 12.9998 25.6327 13.32 25.0629 13.8898L25.77 14.5969C26.1523 14.2146 26.6709 13.9998 27.2115 13.9998V12.9998ZM29.3602 13.8898C28.7903 13.32 28.0174 12.9998 27.2115 12.9998V13.9998C27.7522 13.9998 28.2708 14.2146 28.6531 14.5969L29.3602 13.8898ZM30.2502 16.0385C30.2502 15.2326 29.9301 14.4597 29.3602 13.8898L28.6531 14.5969C29.0354 14.9793 29.2502 15.4978 29.2502 16.0385H30.2502ZM29.3602 18.1871C29.9301 17.6173 30.2502 16.8444 30.2502 16.0385H29.2502C29.2502 16.5792 29.0354 17.0977 28.6531 17.48L29.3602 18.1871ZM29.3599 18.1874L29.3602 18.1871L28.6531 17.48L28.6528 17.4803L29.3599 18.1874ZM28.7403 18.6641C28.9199 18.5491 29.1634 18.3838 29.3598 18.1876L28.653 17.4802C28.5371 17.5959 28.3706 17.7135 28.2011 17.822L28.7403 18.6641ZM28.2914 18.9341C28.4499 18.8435 28.602 18.7527 28.7403 18.6641L28.2011 17.822C28.0809 17.899 27.9438 17.9809 27.7952 18.0659L28.2914 18.9341ZM33.75 18H28.0433V19H33.75V18ZM35.25 19.5C35.25 18.6716 34.5784 18 33.75 18V19C34.0261 19 34.25 19.2239 34.25 19.5H35.25ZM33.75 21C34.5784 21 35.25 20.3284 35.25 19.5H34.25C34.25 19.7761 34.0261 20 33.75 20V21ZM28.0434 21H33.75V20H28.0434V21ZM28.7403 20.3358C28.6021 20.2473 28.45 20.1565 28.2915 20.0659L27.7952 20.9341C27.9439 21.0191 28.0809 21.101 28.2011 21.178L28.7403 20.3358ZM29.3598 20.8124C29.1634 20.6161 28.9199 20.4508 28.7403 20.3358L28.2011 21.178C28.3706 21.2865 28.5371 21.404 28.653 21.5198L29.3598 20.8124ZM29.3606 22.9337C29.9462 22.3477 29.9458 21.3979 29.3598 20.8124L28.6529 21.5198C28.8483 21.715 28.8484 22.0315 28.6532 22.2269L29.3606 22.9337ZM27.2393 22.9346C27.8254 23.5201 28.7751 23.5197 29.3606 22.9337L28.6532 22.2269C28.4581 22.4222 28.1415 22.4224 27.9461 22.2272L27.2393 22.9346ZM27.2779 22.9696C27.2783 22.9698 27.2799 22.9711 27.2814 22.9723C27.2823 22.973 27.2839 22.9743 27.2859 22.9759C27.2874 22.977 27.2918 22.9805 27.2976 22.9847C27.3004 22.9868 27.306 22.9908 27.3131 22.9956C27.3172 22.9984 27.3353 23.0106 27.3599 23.0236C27.3699 23.0289 27.4015 23.0454 27.445 23.0589C27.4663 23.0655 27.5101 23.0777 27.5671 23.0807C27.6178 23.0834 27.7382 23.0821 27.8624 23.0027C28.0102 22.9083 28.0752 22.7618 28.0896 22.6408C28.1017 22.54 28.0798 22.4619 28.0697 22.4301C28.0487 22.3637 28.0182 22.3178 28.0121 22.3084C27.9927 22.2787 27.9742 22.2576 27.9714 22.2543C27.9649 22.2468 27.9596 22.2411 27.957 22.2384C27.9517 22.2327 27.9473 22.2283 27.946 22.227L27.2395 22.9348C27.2384 22.9337 27.2343 22.9295 27.2291 22.924C27.2265 22.9213 27.2213 22.9157 27.2149 22.9083C27.2121 22.905 27.1936 22.884 27.1743 22.8543C27.1681 22.8449 27.1377 22.799 27.1166 22.7327C27.1065 22.7009 27.0847 22.6227 27.0967 22.5219C27.1112 22.401 27.1762 22.2544 27.324 22.16C27.4482 22.0807 27.5685 22.0794 27.6192 22.0821C27.6763 22.085 27.7201 22.0972 27.7413 22.1038C27.7848 22.1173 27.8164 22.1338 27.8264 22.1391C27.851 22.1521 27.869 22.1643 27.8731 22.1671C27.8801 22.1718 27.8856 22.1758 27.8883 22.1778C27.8993 22.1858 27.9108 22.1952 27.9029 22.1889L27.2779 22.9696ZM27.277 22.9688L27.2771 22.9689L27.9037 22.1895L27.9036 22.1895L27.277 22.9688ZM27.1227 22.8624C27.18 22.8991 27.2188 22.9259 27.2428 22.9431C27.2657 22.9597 27.276 22.968 27.2778 22.9695L27.9028 22.1888C27.8771 22.1682 27.8062 22.1126 27.6619 22.0202L27.1227 22.8624ZM26.611 22.5629C26.8231 22.6799 26.9954 22.7809 27.1227 22.8624L27.6619 22.0202C27.5091 21.9224 27.316 21.8097 27.0937 21.6872L26.611 22.5629ZM25.63 22.051C25.9832 22.2279 26.3212 22.4032 26.611 22.5629L27.0937 21.6872C26.7884 21.5188 26.4378 21.3372 26.078 21.1569L25.63 22.051ZM26.813 22.3609C26.6532 22.0712 26.478 21.7331 26.301 21.38L25.407 21.8279C25.5873 22.1877 25.7689 22.5384 25.9372 22.8437L26.813 22.3609ZM27.1124 22.8726C27.0309 22.7453 26.9299 22.5731 26.813 22.3609L25.9372 22.8437C26.0598 23.066 26.1724 23.2591 26.2702 23.4118L27.1124 22.8726ZM27.2195 23.0278C27.2181 23.026 27.2097 23.0157 27.1932 22.9927C27.176 22.9688 27.1491 22.93 27.1124 22.8726L26.2702 23.4118C26.3626 23.5562 26.4183 23.627 26.4389 23.6527L27.2195 23.0278ZM27.219 23.0271L27.2189 23.027L26.4395 23.6535L26.4396 23.6536L27.219 23.0271ZM26.4771 23.6959C26.4784 23.6972 26.4828 23.7016 26.4884 23.707C26.4912 23.7095 26.4969 23.7149 26.5044 23.7213C26.5077 23.7242 26.5287 23.7427 26.5585 23.762C26.5679 23.7682 26.6138 23.7986 26.6801 23.8197C26.7119 23.8298 26.7901 23.8516 26.8909 23.8396C27.0118 23.8251 27.1584 23.7601 27.2528 23.6123C27.3322 23.4881 27.3334 23.3678 27.3308 23.3171C27.3278 23.26 27.3156 23.2162 27.309 23.1949C27.2955 23.1515 27.279 23.1198 27.2737 23.1098C27.2607 23.0852 27.2484 23.0671 27.2456 23.063C27.2408 23.0559 27.2368 23.0504 27.2348 23.0475C27.2305 23.0418 27.2271 23.0373 27.2259 23.0358C27.2244 23.0338 27.2231 23.0322 27.2224 23.0314C27.2212 23.0298 27.2199 23.0282 27.2196 23.0279L26.439 23.6528C26.4453 23.6607 26.4359 23.6492 26.4279 23.6382C26.4258 23.6355 26.4219 23.63 26.4171 23.623C26.4144 23.619 26.4022 23.6009 26.3892 23.5763C26.3839 23.5663 26.3674 23.5347 26.3539 23.4913C26.3473 23.47 26.3351 23.4262 26.3321 23.3692C26.3295 23.3185 26.3307 23.1981 26.4101 23.0739C26.5045 22.9261 26.651 22.8612 26.772 22.8467C26.8728 22.8346 26.951 22.8565 26.9827 22.8666C27.0491 22.8876 27.095 22.9181 27.1044 22.9242C27.1341 22.9435 27.1551 22.962 27.1583 22.9648C27.1657 22.9712 27.1714 22.9765 27.1741 22.979C27.1796 22.9842 27.1837 22.9884 27.1848 22.9894L26.4771 23.6959ZM27.1838 25.1106C27.7698 24.525 27.7702 23.5753 27.1846 22.9893L26.4772 23.6961C26.6724 23.8914 26.6723 24.208 26.4769 24.4032L27.1838 25.1106ZM25.0624 25.1097C25.648 25.6957 26.5977 25.6961 27.1838 25.1106L26.4769 24.4032C26.2816 24.5984 25.965 24.5982 25.7698 24.4029L25.0624 25.1097ZM24.5859 24.4902C24.7009 24.6699 24.8662 24.9133 25.0624 25.1097L25.7698 24.4029C25.6541 24.287 25.5365 24.1205 25.4281 23.951L24.5859 24.4902ZM24.3159 24.0413C24.4065 24.1998 24.4974 24.352 24.5859 24.4902L25.4281 23.951C25.3511 23.8308 25.2691 23.6937 25.1841 23.5451L24.3159 24.0413ZM25.25 29.5V23.7932H24.25V29.5H25.25ZM23.75 31C24.5784 31 25.25 30.3284 25.25 29.5H24.25C24.25 29.7761 24.0261 30 23.75 30V31ZM22.25 29.5C22.25 30.3284 22.9216 31 23.75 31V30C23.4739 30 23.25 29.7761 23.25 29.5H22.25ZM22.25 23.7933V29.5H23.25V23.7933H22.25ZM22.9142 24.4902C23.0027 24.3519 23.0935 24.1999 23.1841 24.0414L22.3159 23.5452C22.2309 23.6938 22.149 23.8308 22.072 23.951L22.9142 24.4902ZM22.4376 25.1097C22.6339 24.9133 22.7992 24.6698 22.9142 24.4902L22.072 23.951C21.9635 24.1205 21.846 24.287 21.7302 24.4029L22.4376 25.1097ZM22.4372 25.1101L22.4375 25.1098L21.7304 24.4027L21.7301 24.403L22.4372 25.1101ZM21.4514 25.7688C21.8201 25.6161 22.155 25.3923 22.4372 25.1101L21.7301 24.403C21.5408 24.5923 21.316 24.7425 21.0687 24.845L21.4514 25.7688ZM20.2885 26.0001C20.6876 26.0001 21.0827 25.9216 21.4514 25.7688L21.0687 24.845C20.8214 24.9474 20.5563 25.0001 20.2885 25.0001V26.0001ZM19.1257 25.7688C19.4944 25.9216 19.8895 26.0001 20.2885 26.0001V25.0001C20.0208 25.0001 19.7557 24.9474 19.5084 24.845L19.1257 25.7688ZM18.1399 25.1101C18.422 25.3923 18.757 25.6161 19.1257 25.7688L19.5084 24.845C19.261 24.7425 19.0363 24.5923 18.847 24.403L18.1399 25.1101ZM17.4812 24.1243C17.6339 24.493 17.8577 24.828 18.1399 25.1101L18.847 24.403C18.6577 24.2137 18.5075 23.989 18.4051 23.7416L17.4812 24.1243ZM17.2499 22.9615C17.2499 23.3605 17.3285 23.7557 17.4812 24.1243L18.4051 23.7416C18.3026 23.4943 18.2499 23.2292 18.2499 22.9615H17.2499ZM17.4812 21.7986C17.3285 22.1673 17.2499 22.5624 17.2499 22.9615H18.2499C18.2499 22.6938 18.3026 22.4287 18.4051 22.1813L17.4812 21.7986ZM18.1399 20.8128C17.8577 21.095 17.6339 21.43 17.4812 21.7986L18.4051 22.1813C18.5075 21.934 18.6577 21.7092 18.847 21.5199L18.1399 20.8128ZM18.1408 20.812L18.1405 20.8122L18.8464 21.5205L18.8467 21.5202L18.1408 20.812ZM18.7597 20.3358C18.5801 20.4509 18.3367 20.6162 18.1403 20.8124L18.8471 21.5198C18.963 21.404 19.1295 21.2865 19.299 21.178L18.7597 20.3358ZM19.2085 20.0659C19.05 20.1565 18.8979 20.2473 18.7597 20.3358L19.299 21.178C19.4192 21.101 19.5562 21.019 19.7048 20.9341L19.2085 20.0659ZM13.75 21H19.4566V20H13.75V21ZM12.25 19.5C12.25 20.3284 12.9216 21 13.75 21V20C13.4739 20 13.25 19.7761 13.25 19.5H12.25ZM13.75 18C12.9216 18 12.25 18.6716 12.25 19.5H13.25C13.25 19.2239 13.4739 19 13.75 19V18ZM19.4568 18H13.75V19H19.4568V18ZM18.7598 18.6641C18.898 18.7527 19.0502 18.8435 19.2087 18.9341L19.7049 18.0659C19.5563 17.9809 19.4192 17.899 19.299 17.822L18.7598 18.6641ZM18.1403 18.1876C18.3367 18.3838 18.5802 18.5491 18.7598 18.6641L19.299 17.822C19.1295 17.7135 18.963 17.5959 18.8471 17.4802L18.1403 18.1876ZM18.1394 16.0663C17.5539 16.6523 17.5543 17.602 18.1403 18.1876L18.8471 17.4802C18.6518 17.285 18.6517 16.9684 18.8468 16.7731L18.1394 16.0663ZM20.2608 16.0654C19.6747 15.4798 18.725 15.4802 18.1394 16.0663L18.8468 16.7731C19.042 16.5777 19.3586 16.5776 19.5539 16.7728L20.2608 16.0654ZM20.2145 16.0243C20.2136 16.0236 20.207 16.0185 20.1985 16.0124C20.1955 16.0102 20.1832 16.0014 20.1667 15.9913C20.1596 15.9871 20.1395 15.975 20.1122 15.9626C20.0988 15.9566 20.072 15.9452 20.0367 15.9357C20.0123 15.9292 19.926 15.9066 19.8161 15.9269C19.7543 15.9383 19.6707 15.966 19.591 16.031C19.5077 16.0989 19.4551 16.186 19.4287 16.2726C19.3831 16.422 19.4217 16.5435 19.4315 16.5734C19.4562 16.6495 19.4946 16.7015 19.4975 16.7056C19.5164 16.7326 19.5342 16.752 19.5358 16.7537C19.5451 16.764 19.553 16.7719 19.5535 16.7724L20.2612 16.0658C20.2613 16.066 20.269 16.0736 20.2781 16.0837C20.2797 16.0854 20.2975 16.1047 20.3164 16.1316C20.3192 16.1357 20.3576 16.1877 20.3823 16.2638C20.3921 16.2937 20.4307 16.4152 20.3851 16.5646C20.3587 16.6512 20.3061 16.7383 20.2228 16.8062C20.1431 16.8711 20.0595 16.8988 19.9977 16.9103C19.8879 16.9305 19.8015 16.908 19.7772 16.9015C19.7418 16.8919 19.715 16.8805 19.7017 16.8745C19.6743 16.8622 19.6542 16.8501 19.6473 16.8459C19.6308 16.8359 19.6186 16.8271 19.6157 16.825C19.6074 16.8191 19.6011 16.8141 19.6006 16.8137L20.2145 16.0243ZM20.2219 16.0302C20.2218 16.0301 20.2208 16.0293 20.2202 16.0288C20.2196 16.0284 20.2175 16.0267 20.215 16.0248L19.6001 16.8133C19.5989 16.8124 19.598 16.8117 19.5976 16.8114C19.5971 16.811 19.5968 16.8108 19.5968 16.8107C19.5967 16.8107 19.5967 16.8107 19.5969 16.8108C19.597 16.8109 19.597 16.8109 19.5972 16.811C19.5973 16.8111 19.5974 16.8113 19.5976 16.8114L20.2219 16.0302ZM20.2633 16.0673L20.2633 16.0672L19.5562 16.7744L19.5562 16.7744L20.2633 16.0673ZM20.2098 16.0208L20.2098 16.0208L19.6098 16.8208L19.6098 16.8208L20.2098 16.0208ZM20.3774 16.1376C20.3201 16.1009 20.2813 16.0741 20.2574 16.0569C20.2344 16.0403 20.2241 16.0319 20.2223 16.0305L19.5973 16.8112C19.6231 16.8318 19.694 16.8875 19.8382 16.9798L20.3774 16.1376ZM20.8891 16.4371C20.677 16.3201 20.5047 16.2191 20.3774 16.1376L19.8382 16.9798C19.9909 17.0776 20.1841 17.1903 20.4063 17.3128L20.8891 16.4371ZM21.8703 16.9491C21.5171 16.7721 21.1789 16.5968 20.8891 16.4371L20.4063 17.3128C20.7117 17.4812 21.0625 17.6628 21.4223 17.8432L21.8703 16.9491ZM20.6873 16.6392C20.847 16.9289 21.0223 17.267 21.1993 17.6202L22.0933 17.1721C21.913 16.8123 21.7313 16.4616 21.563 16.1563L20.6873 16.6392ZM20.3877 16.1274C20.4693 16.2547 20.5703 16.427 20.6873 16.6392L21.563 16.1563C21.4404 15.934 21.3277 15.7409 21.2299 15.5881L20.3877 16.1274ZM20.2806 15.9722C20.282 15.974 20.2904 15.9843 20.3069 16.0073C20.3241 16.0312 20.351 16.07 20.3877 16.1274L21.2299 15.5881C21.1374 15.4438 21.0818 15.3729 21.0612 15.3472L20.2806 15.9722ZM20.2839 15.9763L20.2839 15.9763L21.0578 15.3431L21.0578 15.3431L20.2839 15.9763ZM20.2856 15.9784L20.2857 15.9785L21.056 15.3409L21.056 15.3408L20.2856 15.9784ZM21.0229 15.3039C21.0215 15.3026 21.0171 15.2981 21.0113 15.2927C21.0085 15.29 21.0026 15.2846 20.9949 15.278C20.9917 15.2752 20.9697 15.2559 20.9386 15.236C20.9292 15.23 20.8798 15.1975 20.8083 15.1767C20.7737 15.1667 20.6883 15.1453 20.5803 15.1647C20.4479 15.1885 20.31 15.2702 20.2297 15.4175C20.1639 15.5381 20.1666 15.6498 20.1702 15.6959C20.1743 15.7489 20.1861 15.7896 20.1926 15.8099C20.2059 15.8512 20.2217 15.8813 20.227 15.8912C20.2397 15.9152 20.2517 15.9328 20.2545 15.937C20.2592 15.944 20.2632 15.9495 20.2653 15.9523C20.2694 15.958 20.2729 15.9625 20.274 15.9639C20.2756 15.9659 20.2769 15.9676 20.2775 15.9684C20.2788 15.97 20.28 15.9716 20.2803 15.9719L21.0613 15.3474C21.055 15.3395 21.0644 15.351 21.0723 15.3618C21.0743 15.3646 21.0782 15.37 21.0829 15.3769C21.0857 15.381 21.0976 15.3986 21.1103 15.4225C21.1156 15.4325 21.1314 15.4625 21.1446 15.5038C21.1512 15.5241 21.163 15.5648 21.1671 15.6178C21.1707 15.6639 21.1734 15.7755 21.1076 15.8962C21.0273 16.0435 20.8894 16.1252 20.757 16.149C20.6489 16.1684 20.5636 16.147 20.529 16.137C20.4575 16.1162 20.4081 16.0837 20.3987 16.0777C20.3677 16.0578 20.3457 16.0386 20.3425 16.0358C20.3349 16.0293 20.3291 16.0239 20.3264 16.0213C20.3208 16.016 20.3165 16.0118 20.3154 16.0107L21.0229 15.3039ZM20.3163 13.8894C19.7303 14.4749 19.7299 15.4247 20.3154 16.0107L21.0228 15.3039C20.8277 15.1085 20.8278 14.792 21.0231 14.5968L20.3163 13.8894ZM22.4376 13.8903C21.8521 13.3042 20.9024 13.3038 20.3163 13.8894L21.0231 14.5968C21.2185 14.4016 21.5351 14.4017 21.7302 14.5971L22.4376 13.8903ZM22.9142 14.5096C22.7992 14.33 22.6338 14.0866 22.4376 13.8903L21.7302 14.5971C21.846 14.7129 21.9635 14.8794 22.072 15.0489L22.9142 14.5096ZM23.1841 14.9583C23.0935 14.7999 23.0027 14.6479 22.9142 14.5096L22.072 15.0489C22.149 15.1691 22.231 15.3061 22.3159 15.4547L23.1841 14.9583ZM22.25 9.5V15.2065H23.25V9.5H22.25ZM23.75 8C22.9216 8 22.25 8.67157 22.25 9.5H23.25C23.25 9.22386 23.4739 9 23.75 9V8ZM21.5629 22.8436C21.7312 22.5383 21.9128 22.1876 22.0931 21.8277L21.199 21.3798C21.0221 21.733 20.8468 22.0711 20.6871 22.3609L21.5629 22.8436ZM21.2298 23.4118C21.3276 23.2591 21.4403 23.0659 21.5629 22.8436L20.6871 22.3609C20.5701 22.5731 20.4691 22.7454 20.3876 22.8727L21.2298 23.4118ZM21.0612 23.6527C21.0818 23.627 21.1375 23.5561 21.2298 23.4118L20.3876 22.8727C20.3509 22.93 20.3241 22.9688 20.3069 22.9927C20.2903 23.0157 20.282 23.026 20.2805 23.0278L21.0612 23.6527ZM20.3153 22.9894C20.3163 22.9884 20.3206 22.9841 20.3263 22.9788C20.329 22.9762 20.3348 22.9707 20.3426 22.9641C20.3455 22.9616 20.3684 22.9415 20.4007 22.921C20.4095 22.9154 20.4636 22.8799 20.5422 22.8594C20.5803 22.8494 20.6772 22.8283 20.7962 22.8597C20.9451 22.899 21.0689 23.0052 21.1295 23.1492C21.178 23.2644 21.1698 23.3648 21.1648 23.4046C21.159 23.4518 21.1476 23.4881 21.1411 23.5067C21.1281 23.5443 21.1134 23.5718 21.1082 23.5814C21.096 23.6039 21.0847 23.6204 21.0819 23.6245C21.0774 23.6311 21.0737 23.6363 21.0717 23.6389C21.064 23.6494 21.055 23.6605 21.0612 23.6527L20.2805 23.0278C20.2803 23.0281 20.279 23.0297 20.2778 23.0312C20.2772 23.032 20.2759 23.0336 20.2744 23.0356C20.2732 23.037 20.2699 23.0413 20.2659 23.0468C20.2639 23.0496 20.26 23.0548 20.2555 23.0615C20.2527 23.0656 20.2413 23.0822 20.2291 23.1048C20.2239 23.1143 20.2092 23.1419 20.1962 23.1795C20.1897 23.1981 20.1783 23.2344 20.1724 23.2817C20.1675 23.3215 20.1593 23.4219 20.2078 23.537C20.2684 23.6811 20.3922 23.7873 20.5411 23.8266C20.6601 23.858 20.757 23.8368 20.7951 23.8269C20.8737 23.8063 20.9278 23.7708 20.9366 23.7653C20.969 23.7447 20.9919 23.7246 20.9949 23.722C21.0027 23.7153 21.0086 23.7098 21.0114 23.7072C21.0172 23.7017 21.0217 23.6972 21.023 23.6959L20.3153 22.9894ZM20.686 23.9211C20.8118 23.869 20.9261 23.7927 21.0224 23.6965L20.3159 22.9888C20.3123 22.9924 20.308 22.9953 20.3033 22.9972L20.686 23.9211ZM20.2885 24.0001C20.4249 24.0001 20.56 23.9733 20.686 23.9211L20.3033 22.9972C20.2987 22.9991 20.2936 23.0001 20.2885 23.0001V24.0001ZM19.8911 23.9211C20.0171 23.9733 20.1521 24.0001 20.2885 24.0001V23.0001C20.2835 23.0001 20.2784 22.9991 20.2737 22.9972L19.8911 23.9211ZM19.5541 23.6959C19.6505 23.7924 19.765 23.8689 19.8911 23.9211L20.2737 22.9972C20.2691 22.9953 20.2648 22.9924 20.2612 22.9888L19.5541 23.6959ZM19.3289 23.359C19.3811 23.485 19.4576 23.5995 19.5541 23.6959L20.2612 22.9888C20.2576 22.9852 20.2548 22.981 20.2528 22.9763L19.3289 23.359ZM19.2499 22.9615C19.2499 23.0979 19.2767 23.2329 19.3289 23.359L20.2528 22.9763C20.2509 22.9716 20.2499 22.9666 20.2499 22.9615H19.2499ZM19.3289 22.564C19.2767 22.69 19.2499 22.8251 19.2499 22.9615H20.2499C20.2499 22.9564 20.2509 22.9514 20.2528 22.9467L19.3289 22.564ZM19.5533 22.2279C19.4572 22.3242 19.381 22.4384 19.3289 22.564L20.2528 22.9467C20.2548 22.942 20.2576 22.9378 20.2612 22.9342L19.5533 22.2279ZM19.5975 22.1887C19.5912 22.1937 19.5999 22.1866 19.6081 22.1805C19.6089 22.18 19.6228 22.1694 19.6413 22.1578C19.6423 22.1571 19.6815 22.1313 19.7359 22.1115C19.7526 22.1055 19.7822 22.0956 19.8204 22.0889C19.8533 22.0831 19.9281 22.073 20.0201 22.0944C20.1264 22.1191 20.2595 22.189 20.3422 22.3353C20.4153 22.4647 20.4102 22.5867 20.4029 22.6445C20.3895 22.7497 20.3448 22.823 20.3398 22.8315C20.3261 22.8554 20.3133 22.8729 20.3073 22.8808C20.2948 22.8975 20.284 22.9098 20.2805 22.9136C20.2721 22.9231 20.2651 22.9302 20.2639 22.9315L19.5506 22.2306C19.5491 22.2321 19.542 22.2393 19.5334 22.2489C19.5299 22.2528 19.5191 22.2651 19.5065 22.2819C19.5006 22.2898 19.4878 22.3074 19.474 22.3312C19.469 22.3398 19.4243 22.413 19.4109 22.5183C19.4036 22.576 19.3985 22.6981 19.4716 22.8274C19.5544 22.9738 19.6874 23.0437 19.7937 23.0684C19.8857 23.0898 19.9605 23.0796 19.9934 23.0738C20.0316 23.0671 20.0612 23.0573 20.078 23.0512C20.1324 23.0314 20.1716 23.0056 20.1727 23.0049C20.1913 22.9932 20.2053 22.9826 20.2063 22.9819C20.2131 22.9768 20.2188 22.9722 20.2189 22.9722C20.2202 22.9711 20.2216 22.97 20.2219 22.9698L19.5975 22.1887ZM19.5939 22.1915L19.5939 22.1916L20.2255 22.9668L20.2256 22.9668L19.5939 22.1915ZM19.8382 22.0201C19.6939 22.1126 19.623 22.1683 19.5972 22.1889L20.2223 22.9694C20.2241 22.968 20.2344 22.9597 20.2574 22.9431C20.2813 22.9259 20.3201 22.899 20.3775 22.8623L19.8382 22.0201ZM20.4064 21.6871C20.1841 21.8096 19.991 21.9223 19.8382 22.0201L20.3775 22.8623C20.5048 22.7808 20.6771 22.6798 20.8892 22.5628L20.4064 21.6871ZM21.422 21.1568C21.0623 21.3371 20.7117 21.5187 20.4064 21.6871L20.8892 22.5628C21.1789 22.403 21.517 22.2278 21.8701 22.0508L21.422 21.1568ZM26.611 16.4371C26.3212 16.5968 25.9832 16.772 25.63 16.949L26.078 17.843C26.4378 17.6627 26.7884 17.4811 27.0937 17.3128L26.611 16.4371ZM27.1227 16.1376C26.9954 16.2191 26.8231 16.3201 26.611 16.4371L27.0937 17.3128C27.316 17.1903 27.5091 17.0776 27.6619 16.9798L27.1227 16.1376ZM27.2778 16.0305C27.276 16.0319 27.2657 16.0403 27.2428 16.0568C27.2188 16.074 27.18 16.1009 27.1227 16.1376L27.6619 16.9798C27.8062 16.8874 27.8771 16.8317 27.9028 16.8111L27.2778 16.0305ZM27.946 16.773C27.9473 16.7716 27.9518 16.7671 27.9574 16.7612C27.9601 16.7583 27.9657 16.7523 27.9725 16.7444C27.975 16.7414 27.9955 16.7181 28.0163 16.6849C28.0219 16.6762 28.0583 16.6202 28.0784 16.5391C28.0883 16.4993 28.1085 16.3994 28.0731 16.2782C28.0289 16.1271 27.9176 16.0093 27.7772 15.9537C27.6646 15.9091 27.5674 15.9177 27.5286 15.9228C27.4825 15.9288 27.4471 15.94 27.4287 15.9464C27.3916 15.9593 27.3645 15.9738 27.3549 15.979C27.3324 15.9912 27.3159 16.0024 27.3118 16.0053C27.305 16.0099 27.2998 16.0137 27.297 16.0157C27.2915 16.0198 27.2872 16.0231 27.2857 16.0242C27.2837 16.0258 27.2821 16.027 27.2813 16.0277C27.2798 16.0289 27.2782 16.0302 27.2778 16.0305L27.9028 16.8111C27.9105 16.805 27.8994 16.814 27.8888 16.8218C27.8862 16.8237 27.881 16.8275 27.8744 16.832C27.8703 16.8348 27.8538 16.846 27.8314 16.8582C27.8219 16.8633 27.7947 16.8778 27.7576 16.8908C27.7392 16.8972 27.7039 16.9084 27.6577 16.9144C27.6189 16.9194 27.5218 16.9281 27.4092 16.8835C27.2687 16.8279 27.1575 16.71 27.1133 16.559C27.0778 16.4378 27.098 16.3378 27.1079 16.298C27.1281 16.2169 27.1645 16.161 27.17 16.1523C27.1908 16.1192 27.2113 16.0958 27.2138 16.0929C27.2205 16.0851 27.2261 16.0791 27.2287 16.0764C27.2341 16.0706 27.2384 16.0663 27.2395 16.0652L27.946 16.773ZM27.2502 16.0385C27.2502 16.0487 27.2461 16.0585 27.2389 16.0658L27.9466 16.7724C28.141 16.5776 28.2502 16.3137 28.2502 16.0385H27.2502ZM27.2389 16.0111C27.2461 16.0184 27.2502 16.0282 27.2502 16.0385H28.2502C28.2502 15.763 28.1408 15.4988 27.946 15.304L27.2389 16.0111ZM27.2115 15.9998C27.2218 15.9998 27.2316 16.0039 27.2389 16.0111L27.946 15.304C27.7512 15.1092 27.487 14.9998 27.2115 14.9998V15.9998ZM27.1842 16.0111C27.1915 16.0039 27.2013 15.9998 27.2115 15.9998V14.9998C26.9365 14.9998 26.6727 15.1089 26.478 15.3032L27.1842 16.0111ZM27.2195 15.9723C27.2197 15.9719 27.2209 15.9705 27.222 15.9691C27.2221 15.969 27.2266 15.9633 27.2318 15.9564C27.2326 15.9554 27.243 15.9417 27.2544 15.9236C27.2556 15.9216 27.2795 15.8853 27.2987 15.8348C27.3011 15.8285 27.3461 15.7229 27.3264 15.5857C27.3139 15.4989 27.2694 15.3642 27.1387 15.2624C27.0128 15.1643 26.8796 15.1539 26.8068 15.1574C26.6842 15.1635 26.5978 15.2147 26.5901 15.2189C26.5636 15.2335 26.5442 15.2474 26.5358 15.2536C26.5177 15.2669 26.5045 15.2785 26.5005 15.282C26.4904 15.2909 26.4828 15.2984 26.4813 15.2999L27.1809 16.0144C27.1796 16.0157 27.1722 16.023 27.1622 16.0318C27.1582 16.0353 27.1451 16.0469 27.127 16.0601C27.1186 16.0663 27.0992 16.0802 27.0727 16.0948C27.0651 16.099 26.9787 16.1502 26.856 16.1562C26.7833 16.1598 26.6501 16.1494 26.5242 16.0513C26.3935 15.9495 26.349 15.8147 26.3365 15.728C26.3168 15.5908 26.3618 15.4852 26.3642 15.4789C26.3834 15.4285 26.4072 15.3922 26.4084 15.3903C26.4198 15.3722 26.4301 15.3587 26.4307 15.3578C26.4369 15.3495 26.4439 15.341 26.439 15.3471L27.2195 15.9723ZM27.2173 15.975L27.2173 15.975L26.4412 15.3444L26.4412 15.3444L27.2173 15.975ZM27.1124 16.1273C27.1491 16.07 27.176 16.0312 27.1932 16.0073C27.2097 15.9843 27.2181 15.974 27.2195 15.9722L26.4389 15.3472C26.4183 15.373 26.3626 15.4438 26.2702 15.5881L27.1124 16.1273ZM26.813 16.6391C26.9299 16.4269 27.0309 16.2546 27.1124 16.1273L26.2702 15.5881C26.1724 15.7409 26.0598 15.934 25.9372 16.1563L26.813 16.6391ZM26.301 17.62C26.478 17.2668 26.6532 16.9288 26.813 16.6391L25.9372 16.1563C25.7689 16.4616 25.5873 16.8122 25.407 17.172L26.301 17.62Z" fill="black" mask="url(#path-2-inside-1_193_759)"/>
</g>
<defs>
<filter id="filter0_d_193_759" x="2.25" y="0" width="44" height="44" filterUnits="userSpaceOnUse" color-interpolation-filters="sRGB">
<feFlood flood-opacity="0" result="BackgroundImageFix"/>
<feColorMatrix in="SourceAlpha" type="matrix" values="0 0 0 0 0 0 0 0 0 0 0 0 0 0 0 0 0 0 127 0" result="hardAlpha"/>
<feOffset dy="2"/>
<feGaussianBlur stdDeviation="1"/>
<feComposite in2="hardAlpha" operator="out"/>
<feColorMatrix type="matrix" values="0 0 0 0 0 0 0 0 0 0 0 0 0 0 0 0 0 0 0.25 0"/>
<feBlend mode="normal" in2="BackgroundImageFix" result="effect1_dropShadow_193_759"/>
<feBlend mode="normal" in="SourceGraphic" in2="effect1_dropShadow_193_759" result="shape"/>
</filter>
<linearGradient id="paint0_linear_193_759" x1="41.75" y1="2.25" x2="4.25" y2="36.25" gradientUnits="userSpaceOnUse">
<stop stop-color="#1D1B1E"/>
<stop offset="1" stop-color="#1D1B1E"/>
</linearGradient>
</defs>
</svg>
